<?xml version="1.0" encoding="UTF-8" standalone="no"?><svg xmlns="http://www.w3.org/2000/svg" xmlns:xlink="http://www.w3.org/1999/xlink" clip-rule="evenodd" stroke-miterlimit="4.00" viewBox="0 0 884 45"><desc>SVG generated by Keynote</desc><defs></defs><g transform="matrix(1.00, 0.00, -0.00, -1.00, 0.0, 45.0)"><text xml:space="preserve" font-family="Menlo-Regular" font-size="40.0" fill="#373840" transform="matrix(1.00, 0.00, -0.00, -1.00, -1.0, 10.0)">C</text><text xml:space="preserve" font-family="Menlo-Regular" font-size="40.0" fill="#373840" transform="matrix(1.00, 0.00, -0.00, -1.00, 23.1, 10.0)">y</text><text xml:space="preserve" font-family="Menlo-Regular" font-size="40.0" fill="#373840" transform="matrix(1.00, 0.00, -0.00, -1.00, 47.2, 10.0)">c</text><text xml:space="preserve" font-family="Menlo-Regular" font-size="40.0" fill="#373840" transform="matrix(1.00, 0.00, -0.00, -1.00, 71.3, 10.0)">l</text><text xml:space="preserve" font-family="Menlo-Regular" font-size="40.0" fill="#373840" transform="matrix(1.00, 0.00, -0.00, -1.00, 95.3, 10.0)">e</text><text xml:space="preserve" font-family="Menlo-Regular" font-size="40.0" fill="#373840" transform="matrix(1.00, 0.00, -0.00, -1.00, 119.4, 10.0)">.</text><text xml:space="preserve" font-family="Menlo-Regular" font-size="40.0" fill="#373840" transform="matrix(1.00, 0.00, -0.00, -1.00, 143.5, 10.0)">j</text><text xml:space="preserve" font-family="Menlo-Regular" font-size="40.0" fill="#373840" transform="matrix(1.00, 0.00, -0.00, -1.00, 167.6, 10.0)">s</text><text xml:space="preserve" font-family="Menlo-Regular" font-size="40.0" fill="#373840" transform="matrix(1.00, 0.00, -0.00, -1.00, 191.7, 10.0)"> </text><text xml:space="preserve" font-family="Menlo-Regular" font-size="40.0" fill="#373840" transform="matrix(1.00, 0.00, -0.00, -1.00, 215.8, 10.0)">(</text><text xml:space="preserve" font-family="Menlo-Regular" font-size="40.0" fill="#373840" transform="matrix(1.00, 0.00, -0.00, -1.00, 239.9, 10.0)">s</text><text xml:space="preserve" font-family="Menlo-Regular" font-size="40.0" fill="#373840" transform="matrix(1.00, 0.00, -0.00, -1.00, 263.9, 10.0)">e</text><text xml:space="preserve" font-family="Menlo-Regular" font-size="40.0" fill="#373840" transform="matrix(1.00, 0.00, -0.00, -1.00, 288.0, 10.0)">p</text><text xml:space="preserve" font-family="Menlo-Regular" font-size="40.0" fill="#373840" transform="matrix(1.00, 0.00, -0.00, -1.00, 312.1, 10.0)">a</text><text xml:space="preserve" font-family="Menlo-Regular" font-size="40.0" fill="#373840" transform="matrix(1.00, 0.00, -0.00, -1.00, 336.2, 10.0)">r</text><text xml:space="preserve" font-family="Menlo-Regular" font-size="40.0" fill="#373840" transform="matrix(1.00, 0.00, -0.00, -1.00, 360.3, 10.0)">a</text><text xml:space="preserve" font-family="Menlo-Regular" font-size="40.0" fill="#373840" transform="matrix(1.00, 0.00, -0.00, -1.00, 384.4, 10.0)">t</text><text xml:space="preserve" font-family="Menlo-Regular" font-size="40.0" fill="#373840" transform="matrix(1.00, 0.00, -0.00, -1.00, 408.5, 10.0)">i</text><text xml:space="preserve" font-family="Menlo-Regular" font-size="40.0" fill="#373840" transform="matrix(1.00, 0.00, -0.00, -1.00, 432.5, 10.0)">n</text><text xml:space="preserve" font-family="Menlo-Regular" font-size="40.0" fill="#373840" transform="matrix(1.00, 0.00, -0.00, -1.00, 456.6, 10.0)">g</text><text xml:space="preserve" font-family="Menlo-Regular" font-size="40.0" fill="#373840" transform="matrix(1.00, 0.00, -0.00, -1.00, 480.7, 10.0)"> </text><text xml:space="preserve" font-family="Menlo-Regular" font-size="40.0" fill="#373840" transform="matrix(1.00, 0.00, -0.00, -1.00, 504.8, 10.0)">l</text><text xml:space="preserve" font-family="Menlo-Regular" font-size="40.0" fill="#373840" transform="matrix(1.00, 0.00, -0.00, -1.00, 528.9, 10.0)">o</text><text xml:space="preserve" font-family="Menlo-Regular" font-size="40.0" fill="#373840" transform="matrix(1.00, 0.00, -0.00, -1.00, 553.0, 10.0)">g</text><text xml:space="preserve" font-family="Menlo-Regular" font-size="40.0" fill="#373840" transform="matrix(1.00, 0.00, -0.00, -1.00, 577.1, 10.0)">i</text><text xml:space="preserve" font-family="Menlo-Regular" font-size="40.0" fill="#373840" transform="matrix(1.00, 0.00, -0.00, -1.00, 601.2, 10.0)">c</text><text xml:space="preserve" font-family="Menlo-Regular" font-size="40.0" fill="#373840" transform="matrix(1.00, 0.00, -0.00, -1.00, 625.2, 10.0)"> </text><text xml:space="preserve" font-family="Menlo-Regular" font-size="40.0" fill="#373840" transform="matrix(1.00, 0.00, -0.00, -1.00, 649.3, 10.0)">&amp;</text><text xml:space="preserve" font-family="Menlo-Regular" font-size="40.0" fill="#373840" transform="matrix(1.00, 0.00, -0.00, -1.00, 673.4, 10.0)"> </text><text xml:space="preserve" font-family="Menlo-Regular" font-size="40.0" fill="#373840" transform="matrix(1.00, 0.00, -0.00, -1.00, 697.5, 10.0)">e</text><text xml:space="preserve" font-family="Menlo-Regular" font-size="40.0" fill="#373840" transform="matrix(1.00, 0.00, -0.00, -1.00, 721.6, 10.0)">f</text><text xml:space="preserve" font-family="Menlo-Regular" font-size="40.0" fill="#373840" transform="matrix(1.00, 0.00, -0.00, -1.00, 745.7, 10.0)">f</text><text xml:space="preserve" font-family="Menlo-Regular" font-size="40.0" fill="#373840" transform="matrix(1.00, 0.00, -0.00, -1.00, 769.8, 10.0)">e</text><text xml:space="preserve" font-family="Menlo-Regular" font-size="40.0" fill="#373840" transform="matrix(1.00, 0.00, -0.00, -1.00, 793.8, 10.0)">c</text><text xml:space="preserve" font-family="Menlo-Regular" font-size="40.0" fill="#373840" transform="matrix(1.00, 0.00, -0.00, -1.00, 817.9, 10.0)">t</text><text xml:space="preserve" font-family="Menlo-Regular" font-size="40.0" fill="#373840" transform="matrix(1.00, 0.00, -0.00, -1.00, 842.0, 10.0)">s</text><text xml:space="preserve" font-family="Menlo-Regular" font-size="40.0" fill="#373840" transform="matrix(1.00, 0.00, -0.00, -1.00, 866.1, 10.0)">)</text></g></svg>