<?xml version="1.0" encoding="UTF-8" standalone="no"?><svg xmlns="http://www.w3.org/2000/svg" xmlns:xlink="http://www.w3.org/1999/xlink" clip-rule="evenodd" stroke-miterlimit="4.00" viewBox="0 0 1024 768"><desc>SVG generated by Keynote</desc><defs></defs><g transform="matrix(1.00, 0.00, -0.00, -1.00, 0.0, 768.0)"><path d="M 0.0 768.0 L 1024.0 768.0 L 1024.0 0.0 L 0.0 0.0 Z M 0.0 768.0 " fill="#FAFAFA"></path><g opacity="0.30"><g><clipPath id="clip-3"><path d="M 0.0 0.0 L 1024.0 0.0 L 1024.0 768.0 L 0.0 768.0 Z M 0.0 0.0 "></path></clipPath><g clip-path="url(#clip-3)"><text xml:space="preserve" font-family="Menlo-Regular" font-size="40.0" fill="#373840" transform="matrix(1.00, 0.00, -0.00, -1.00, 62.0, 485.0)">N</text><text xml:space="preserve" font-family="Menlo-Regular" font-size="40.0" fill="#373840" transform="matrix(1.00, 0.00, -0.00, -1.00, 86.1, 485.0)">o</text><text xml:space="preserve" font-family="Menlo-Regular" font-size="40.0" fill="#373840" transform="matrix(1.00, 0.00, -0.00, -1.00, 110.2, 485.0)">d</text><text xml:space="preserve" font-family="Menlo-Regular" font-size="40.0" fill="#373840" transform="matrix(1.00, 0.00, -0.00, -1.00, 134.3, 485.0)">e</text><text xml:space="preserve" font-family="Menlo-Regular" font-size="40.0" fill="#373840" transform="matrix(1.00, 0.00, -0.00, -1.00, 158.3, 485.0)">.</text><text xml:space="preserve" font-family="Menlo-Regular" font-size="40.0" fill="#373840" transform="matrix(1.00, 0.00, -0.00, -1.00, 182.4, 485.0)">j</text><text xml:space="preserve" font-family="Menlo-Regular" font-size="40.0" fill="#373840" transform="matrix(1.00, 0.00, -0.00, -1.00, 206.5, 485.0)">s</text><text xml:space="preserve" font-family="Menlo-Regular" font-size="40.0" fill="#373840" transform="matrix(1.00, 0.00, -0.00, -1.00, 230.6, 485.0)"> </text><text xml:space="preserve" font-family="Menlo-Regular" font-size="40.0" fill="#373840" transform="matrix(1.00, 0.00, -0.00, -1.00, 254.7, 485.0)">(</text><text xml:space="preserve" font-family="Menlo-Regular" font-size="40.0" fill="#373840" transform="matrix(1.00, 0.00, -0.00, -1.00, 278.8, 485.0)">t</text><text xml:space="preserve" font-family="Menlo-Regular" font-size="40.0" fill="#373840" transform="matrix(1.00, 0.00, -0.00, -1.00, 302.9, 485.0)">h</text><text xml:space="preserve" font-family="Menlo-Regular" font-size="40.0" fill="#373840" transform="matrix(1.00, 0.00, -0.00, -1.00, 326.9, 485.0)">e</text><text xml:space="preserve" font-family="Menlo-Regular" font-size="40.0" fill="#373840" transform="matrix(1.00, 0.00, -0.00, -1.00, 351.0, 485.0)"> </text><text xml:space="preserve" font-family="Menlo-Regular" font-size="40.0" fill="#373840" transform="matrix(1.00, 0.00, -0.00, -1.00, 375.1, 485.0)">e</text><text xml:space="preserve" font-family="Menlo-Regular" font-size="40.0" fill="#373840" transform="matrix(1.00, 0.00, -0.00, -1.00, 399.2, 485.0)">v</text><text xml:space="preserve" font-family="Menlo-Regular" font-size="40.0" fill="#373840" transform="matrix(1.00, 0.00, -0.00, -1.00, 423.3, 485.0)">e</text><text xml:space="preserve" font-family="Menlo-Regular" font-size="40.0" fill="#373840" transform="matrix(1.00, 0.00, -0.00, -1.00, 447.4, 485.0)">n</text><text xml:space="preserve" font-family="Menlo-Regular" font-size="40.0" fill="#373840" transform="matrix(1.00, 0.00, -0.00, -1.00, 471.5, 485.0)">t</text><text xml:space="preserve" font-family="Menlo-Regular" font-size="40.0" fill="#373840" transform="matrix(1.00, 0.00, -0.00, -1.00, 495.5, 485.0)"> </text><text xml:space="preserve" font-family="Menlo-Regular" font-size="40.0" fill="#373840" transform="matrix(1.00, 0.00, -0.00, -1.00, 519.6, 485.0)">l</text><text xml:space="preserve" font-family="Menlo-Regular" font-size="40.0" fill="#373840" transform="matrix(1.00, 0.00, -0.00, -1.00, 543.7, 485.0)">o</text><text xml:space="preserve" font-family="Menlo-Regular" font-size="40.0" fill="#373840" transform="matrix(1.00, 0.00, -0.00, -1.00, 567.8, 485.0)">o</text><text xml:space="preserve" font-family="Menlo-Regular" font-size="40.0" fill="#373840" transform="matrix(1.00, 0.00, -0.00, -1.00, 591.9, 485.0)">p</text><text xml:space="preserve" font-family="Menlo-Regular" font-size="40.0" fill="#373840" transform="matrix(1.00, 0.00, -0.00, -1.00, 616.0, 485.0)">)</text></g></g></g><g opacity="0.30"><g><clipPath id="clip-4"><path d="M 0.0 0.0 L 1024.0 0.0 L 1024.0 768.0 L 0.0 768.0 Z M 0.0 0.0 "></path></clipPath><g clip-path="url(#clip-4)"><text xml:space="preserve" font-family="Menlo-Regular" font-size="40.0" fill="#373840" transform="matrix(1.00, 0.00, -0.00, -1.00, 62.0, 399.0)">C</text><text xml:space="preserve" font-family="Menlo-Regular" font-size="40.0" fill="#373840" transform="matrix(1.00, 0.00, -0.00, -1.00, 86.1, 399.0)">o</text><text xml:space="preserve" font-family="Menlo-Regular" font-size="40.0" fill="#373840" transform="matrix(1.00, 0.00, -0.00, -1.00, 110.2, 399.0)">u</text><text xml:space="preserve" font-family="Menlo-Regular" font-size="40.0" fill="#373840" transform="matrix(1.00, 0.00, -0.00, -1.00, 134.3, 399.0)">c</text><text xml:space="preserve" font-family="Menlo-Regular" font-size="40.0" fill="#373840" transform="matrix(1.00, 0.00, -0.00, -1.00, 158.3, 399.0)">h</text><text xml:space="preserve" font-family="Menlo-Regular" font-size="40.0" fill="#373840" transform="matrix(1.00, 0.00, -0.00, -1.00, 182.4, 399.0)">D</text><text xml:space="preserve" font-family="Menlo-Regular" font-size="40.0" fill="#373840" transform="matrix(1.00, 0.00, -0.00, -1.00, 206.5, 399.0)">B</text><text xml:space="preserve" font-family="Menlo-Regular" font-size="40.0" fill="#373840" transform="matrix(1.00, 0.00, -0.00, -1.00, 230.6, 399.0)"> </text><text xml:space="preserve" font-family="Menlo-Regular" font-size="40.0" fill="#373840" transform="matrix(1.00, 0.00, -0.00, -1.00, 254.7, 399.0)">(</text><text xml:space="preserve" font-family="Menlo-Regular" font-size="40.0" fill="#373840" transform="matrix(1.00, 0.00, -0.00, -1.00, 278.8, 399.0)">M</text><text xml:space="preserve" font-family="Menlo-Regular" font-size="40.0" fill="#373840" transform="matrix(1.00, 0.00, -0.00, -1.00, 302.9, 399.0)">a</text><text xml:space="preserve" font-family="Menlo-Regular" font-size="40.0" fill="#373840" transform="matrix(1.00, 0.00, -0.00, -1.00, 326.9, 399.0)">p</text><text xml:space="preserve" font-family="Menlo-Regular" font-size="40.0" fill="#373840" transform="matrix(1.00, 0.00, -0.00, -1.00, 351.0, 399.0)">R</text><text xml:space="preserve" font-family="Menlo-Regular" font-size="40.0" fill="#373840" transform="matrix(1.00, 0.00, -0.00, -1.00, 375.1, 399.0)">e</text><text xml:space="preserve" font-family="Menlo-Regular" font-size="40.0" fill="#373840" transform="matrix(1.00, 0.00, -0.00, -1.00, 399.2, 399.0)">d</text><text xml:space="preserve" font-family="Menlo-Regular" font-size="40.0" fill="#373840" transform="matrix(1.00, 0.00, -0.00, -1.00, 423.3, 399.0)">u</text><text xml:space="preserve" font-family="Menlo-Regular" font-size="40.0" fill="#373840" transform="matrix(1.00, 0.00, -0.00, -1.00, 447.4, 399.0)">c</text><text xml:space="preserve" font-family="Menlo-Regular" font-size="40.0" fill="#373840" transform="matrix(1.00, 0.00, -0.00, -1.00, 471.5, 399.0)">e</text><text xml:space="preserve" font-family="Menlo-Regular" font-size="40.0" fill="#373840" transform="matrix(1.00, 0.00, -0.00, -1.00, 495.5, 399.0)">)</text></g></g></g><g opacity="0.30"><g><clipPath id="clip-5"><path d="M 0.0 0.0 L 1024.0 0.0 L 1024.0 768.0 L 0.0 768.0 Z M 0.0 0.0 "></path></clipPath><g clip-path="url(#clip-5)"><text xml:space="preserve" font-family="Menlo-Regular" font-size="40.0" fill="#373840" transform="matrix(1.00, 0.00, -0.00, -1.00, 62.0, 313.0)">B</text><text xml:space="preserve" font-family="Menlo-Regular" font-size="40.0" fill="#373840" transform="matrix(1.00, 0.00, -0.00, -1.00, 86.1, 313.0)">i</text><text xml:space="preserve" font-family="Menlo-Regular" font-size="40.0" fill="#373840" transform="matrix(1.00, 0.00, -0.00, -1.00, 110.2, 313.0)">t</text><text xml:space="preserve" font-family="Menlo-Regular" font-size="40.0" fill="#373840" transform="matrix(1.00, 0.00, -0.00, -1.00, 134.3, 313.0)">c</text><text xml:space="preserve" font-family="Menlo-Regular" font-size="40.0" fill="#373840" transform="matrix(1.00, 0.00, -0.00, -1.00, 158.3, 313.0)">o</text><text xml:space="preserve" font-family="Menlo-Regular" font-size="40.0" fill="#373840" transform="matrix(1.00, 0.00, -0.00, -1.00, 182.4, 313.0)">i</text><text xml:space="preserve" font-family="Menlo-Regular" font-size="40.0" fill="#373840" transform="matrix(1.00, 0.00, -0.00, -1.00, 206.5, 313.0)">n</text><text xml:space="preserve" font-family="Menlo-Regular" font-size="40.0" fill="#373840" transform="matrix(1.00, 0.00, -0.00, -1.00, 230.6, 313.0)"> </text><text xml:space="preserve" font-family="Menlo-Regular" font-size="40.0" fill="#373840" transform="matrix(1.00, 0.00, -0.00, -1.00, 254.7, 313.0)">(</text><text xml:space="preserve" font-family="Menlo-Regular" font-size="40.0" fill="#373840" transform="matrix(1.00, 0.00, -0.00, -1.00, 278.8, 313.0)">d</text><text xml:space="preserve" font-family="Menlo-Regular" font-size="40.0" fill="#373840" transform="matrix(1.00, 0.00, -0.00, -1.00, 302.9, 313.0)">e</text><text xml:space="preserve" font-family="Menlo-Regular" font-size="40.0" fill="#373840" transform="matrix(1.00, 0.00, -0.00, -1.00, 326.9, 313.0)">c</text><text xml:space="preserve" font-family="Menlo-Regular" font-size="40.0" fill="#373840" transform="matrix(1.00, 0.00, -0.00, -1.00, 351.0, 313.0)">e</text><text xml:space="preserve" font-family="Menlo-Regular" font-size="40.0" fill="#373840" transform="matrix(1.00, 0.00, -0.00, -1.00, 375.1, 313.0)">n</text><text xml:space="preserve" font-family="Menlo-Regular" font-size="40.0" fill="#373840" transform="matrix(1.00, 0.00, -0.00, -1.00, 399.2, 313.0)">t</text><text xml:space="preserve" font-family="Menlo-Regular" font-size="40.0" fill="#373840" transform="matrix(1.00, 0.00, -0.00, -1.00, 423.3, 313.0)">r</text><text xml:space="preserve" font-family="Menlo-Regular" font-size="40.0" fill="#373840" transform="matrix(1.00, 0.00, -0.00, -1.00, 447.4, 313.0)">a</text><text xml:space="preserve" font-family="Menlo-Regular" font-size="40.0" fill="#373840" transform="matrix(1.00, 0.00, -0.00, -1.00, 471.5, 313.0)">l</text><text xml:space="preserve" font-family="Menlo-Regular" font-size="40.0" fill="#373840" transform="matrix(1.00, 0.00, -0.00, -1.00, 495.5, 313.0)">i</text><text xml:space="preserve" font-family="Menlo-Regular" font-size="40.0" fill="#373840" transform="matrix(1.00, 0.00, -0.00, -1.00, 519.6, 313.0)">z</text><text xml:space="preserve" font-family="Menlo-Regular" font-size="40.0" fill="#373840" transform="matrix(1.00, 0.00, -0.00, -1.00, 543.7, 313.0)">e</text><text xml:space="preserve" font-family="Menlo-Regular" font-size="40.0" fill="#373840" transform="matrix(1.00, 0.00, -0.00, -1.00, 567.8, 313.0)">d</text><text xml:space="preserve" font-family="Menlo-Regular" font-size="40.0" fill="#373840" transform="matrix(1.00, 0.00, -0.00, -1.00, 591.9, 313.0)"> </text><text xml:space="preserve" font-family="Menlo-Regular" font-size="40.0" fill="#373840" transform="matrix(1.00, 0.00, -0.00, -1.00, 616.0, 313.0)">c</text><text xml:space="preserve" font-family="Menlo-Regular" font-size="40.0" fill="#373840" transform="matrix(1.00, 0.00, -0.00, -1.00, 640.1, 313.0)">o</text><text xml:space="preserve" font-family="Menlo-Regular" font-size="40.0" fill="#373840" transform="matrix(1.00, 0.00, -0.00, -1.00, 664.2, 313.0)">n</text><text xml:space="preserve" font-family="Menlo-Regular" font-size="40.0" fill="#373840" transform="matrix(1.00, 0.00, -0.00, -1.00, 688.2, 313.0)">s</text><text xml:space="preserve" font-family="Menlo-Regular" font-size="40.0" fill="#373840" transform="matrix(1.00, 0.00, -0.00, -1.00, 712.3, 313.0)">e</text><text xml:space="preserve" font-family="Menlo-Regular" font-size="40.0" fill="#373840" transform="matrix(1.00, 0.00, -0.00, -1.00, 736.4, 313.0)">n</text><text xml:space="preserve" font-family="Menlo-Regular" font-size="40.0" fill="#373840" transform="matrix(1.00, 0.00, -0.00, -1.00, 760.5, 313.0)">s</text><text xml:space="preserve" font-family="Menlo-Regular" font-size="40.0" fill="#373840" transform="matrix(1.00, 0.00, -0.00, -1.00, 784.6, 313.0)">u</text><text xml:space="preserve" font-family="Menlo-Regular" font-size="40.0" fill="#373840" transform="matrix(1.00, 0.00, -0.00, -1.00, 808.7, 313.0)">s</text><text xml:space="preserve" font-family="Menlo-Regular" font-size="40.0" fill="#373840" transform="matrix(1.00, 0.00, -0.00, -1.00, 832.8, 313.0)">)</text></g></g></g><g opacity="0.30"><g><clipPath id="clip-6"><path d="M 0.0 0.0 L 1024.0 0.0 L 1024.0 768.0 L 0.0 768.0 Z M 0.0 0.0 "></path></clipPath><g clip-path="url(#clip-6)"><text xml:space="preserve" font-family="Menlo-Regular" font-size="40.0" fill="#373840" transform="matrix(1.00, 0.00, -0.00, -1.00, 62.0, 227.0)">D</text><text xml:space="preserve" font-family="Menlo-Regular" font-size="40.0" fill="#373840" transform="matrix(1.00, 0.00, -0.00, -1.00, 86.1, 227.0)">3</text><text xml:space="preserve" font-family="Menlo-Regular" font-size="40.0" fill="#373840" transform="matrix(1.00, 0.00, -0.00, -1.00, 110.2, 227.0)">.</text><text xml:space="preserve" font-family="Menlo-Regular" font-size="40.0" fill="#373840" transform="matrix(1.00, 0.00, -0.00, -1.00, 134.3, 227.0)">j</text><text xml:space="preserve" font-family="Menlo-Regular" font-size="40.0" fill="#373840" transform="matrix(1.00, 0.00, -0.00, -1.00, 158.3, 227.0)">s</text><text xml:space="preserve" font-family="Menlo-Regular" font-size="40.0" fill="#373840" transform="matrix(1.00, 0.00, -0.00, -1.00, 182.4, 227.0)"> </text><text xml:space="preserve" font-family="Menlo-Regular" font-size="40.0" fill="#373840" transform="matrix(1.00, 0.00, -0.00, -1.00, 206.5, 227.0)">(</text><text xml:space="preserve" font-family="Menlo-Regular" font-size="40.0" fill="#373840" transform="matrix(1.00, 0.00, -0.00, -1.00, 230.6, 227.0)">d</text><text xml:space="preserve" font-family="Menlo-Regular" font-size="40.0" fill="#373840" transform="matrix(1.00, 0.00, -0.00, -1.00, 254.7, 227.0)">a</text><text xml:space="preserve" font-family="Menlo-Regular" font-size="40.0" fill="#373840" transform="matrix(1.00, 0.00, -0.00, -1.00, 278.8, 227.0)">t</text><text xml:space="preserve" font-family="Menlo-Regular" font-size="40.0" fill="#373840" transform="matrix(1.00, 0.00, -0.00, -1.00, 302.9, 227.0)">a</text><text xml:space="preserve" font-family="Menlo-Regular" font-size="40.0" fill="#373840" transform="matrix(1.00, 0.00, -0.00, -1.00, 326.9, 227.0)"> </text><text xml:space="preserve" font-family="Menlo-Regular" font-size="40.0" fill="#373840" transform="matrix(1.00, 0.00, -0.00, -1.00, 351.0, 227.0)">j</text><text xml:space="preserve" font-family="Menlo-Regular" font-size="40.0" fill="#373840" transform="matrix(1.00, 0.00, -0.00, -1.00, 375.1, 227.0)">o</text><text xml:space="preserve" font-family="Menlo-Regular" font-size="40.0" fill="#373840" transform="matrix(1.00, 0.00, -0.00, -1.00, 399.2, 227.0)">i</text><text xml:space="preserve" font-family="Menlo-Regular" font-size="40.0" fill="#373840" transform="matrix(1.00, 0.00, -0.00, -1.00, 423.3, 227.0)">n</text><text xml:space="preserve" font-family="Menlo-Regular" font-size="40.0" fill="#373840" transform="matrix(1.00, 0.00, -0.00, -1.00, 447.4, 227.0)">s</text><text xml:space="preserve" font-family="Menlo-Regular" font-size="40.0" fill="#373840" transform="matrix(1.00, 0.00, -0.00, -1.00, 471.5, 227.0)">)</text></g></g></g><text xml:space="preserve" font-family="Menlo-Regular" font-size="40.0" fill="#373840" transform="matrix(1.00, 0.00, -0.00, -1.00, 62.0, 141.0)">C</text><text xml:space="preserve" font-family="Menlo-Regular" font-size="40.0" fill="#373840" transform="matrix(1.00, 0.00, -0.00, -1.00, 86.1, 141.0)">y</text><text xml:space="preserve" font-family="Menlo-Regular" font-size="40.0" fill="#373840" transform="matrix(1.00, 0.00, -0.00, -1.00, 110.2, 141.0)">c</text><text xml:space="preserve" font-family="Menlo-Regular" font-size="40.0" fill="#373840" transform="matrix(1.00, 0.00, -0.00, -1.00, 134.3, 141.0)">l</text><text xml:space="preserve" font-family="Menlo-Regular" font-size="40.0" fill="#373840" transform="matrix(1.00, 0.00, -0.00, -1.00, 158.3, 141.0)">e</text><text xml:space="preserve" font-family="Menlo-Regular" font-size="40.0" fill="#373840" transform="matrix(1.00, 0.00, -0.00, -1.00, 182.4, 141.0)">.</text><text xml:space="preserve" font-family="Menlo-Regular" font-size="40.0" fill="#373840" transform="matrix(1.00, 0.00, -0.00, -1.00, 206.5, 141.0)">j</text><text xml:space="preserve" font-family="Menlo-Regular" font-size="40.0" fill="#373840" transform="matrix(1.00, 0.00, -0.00, -1.00, 230.6, 141.0)">s</text><text xml:space="preserve" font-family="Menlo-Regular" font-size="40.0" fill="#373840" transform="matrix(1.00, 0.00, -0.00, -1.00, 254.7, 141.0)"> </text><text xml:space="preserve" font-family="Menlo-Regular" font-size="40.0" fill="#373840" transform="matrix(1.00, 0.00, -0.00, -1.00, 278.8, 141.0)">(</text><text xml:space="preserve" font-family="Menlo-Regular" font-size="40.0" fill="#373840" transform="matrix(1.00, 0.00, -0.00, -1.00, 302.9, 141.0)">s</text><text xml:space="preserve" font-family="Menlo-Regular" font-size="40.0" fill="#373840" transform="matrix(1.00, 0.00, -0.00, -1.00, 326.9, 141.0)">e</text><text xml:space="preserve" font-family="Menlo-Regular" font-size="40.0" fill="#373840" transform="matrix(1.00, 0.00, -0.00, -1.00, 351.0, 141.0)">p</text><text xml:space="preserve" font-family="Menlo-Regular" font-size="40.0" fill="#373840" transform="matrix(1.00, 0.00, -0.00, -1.00, 375.1, 141.0)">a</text><text xml:space="preserve" font-family="Menlo-Regular" font-size="40.0" fill="#373840" transform="matrix(1.00, 0.00, -0.00, -1.00, 399.2, 141.0)">r</text><text xml:space="preserve" font-family="Menlo-Regular" font-size="40.0" fill="#373840" transform="matrix(1.00, 0.00, -0.00, -1.00, 423.3, 141.0)">a</text><text xml:space="preserve" font-family="Menlo-Regular" font-size="40.0" fill="#373840" transform="matrix(1.00, 0.00, -0.00, -1.00, 447.4, 141.0)">t</text><text xml:space="preserve" font-family="Menlo-Regular" font-size="40.0" fill="#373840" transform="matrix(1.00, 0.00, -0.00, -1.00, 471.5, 141.0)">i</text><text xml:space="preserve" font-family="Menlo-Regular" font-size="40.0" fill="#373840" transform="matrix(1.00, 0.00, -0.00, -1.00, 495.5, 141.0)">n</text><text xml:space="preserve" font-family="Menlo-Regular" font-size="40.0" fill="#373840" transform="matrix(1.00, 0.00, -0.00, -1.00, 519.6, 141.0)">g</text><text xml:space="preserve" font-family="Menlo-Regular" font-size="40.0" fill="#373840" transform="matrix(1.00, 0.00, -0.00, -1.00, 543.7, 141.0)"> </text><text xml:space="preserve" font-family="Menlo-Regular" font-size="40.0" fill="#373840" transform="matrix(1.00, 0.00, -0.00, -1.00, 567.8, 141.0)">l</text><text xml:space="preserve" font-family="Menlo-Regular" font-size="40.0" fill="#373840" transform="matrix(1.00, 0.00, -0.00, -1.00, 591.9, 141.0)">o</text><text xml:space="preserve" font-family="Menlo-Regular" font-size="40.0" fill="#373840" transform="matrix(1.00, 0.00, -0.00, -1.00, 616.0, 141.0)">g</text><text xml:space="preserve" font-family="Menlo-Regular" font-size="40.0" fill="#373840" transform="matrix(1.00, 0.00, -0.00, -1.00, 640.1, 141.0)">i</text><text xml:space="preserve" font-family="Menlo-Regular" font-size="40.0" fill="#373840" transform="matrix(1.00, 0.00, -0.00, -1.00, 664.2, 141.0)">c</text><text xml:space="preserve" font-family="Menlo-Regular" font-size="40.0" fill="#373840" transform="matrix(1.00, 0.00, -0.00, -1.00, 688.2, 141.0)"> </text><text xml:space="preserve" font-family="Menlo-Regular" font-size="40.0" fill="#373840" transform="matrix(1.00, 0.00, -0.00, -1.00, 712.3, 141.0)">&amp;</text><text xml:space="preserve" font-family="Menlo-Regular" font-size="40.0" fill="#373840" transform="matrix(1.00, 0.00, -0.00, -1.00, 736.4, 141.0)"> </text><text xml:space="preserve" font-family="Menlo-Regular" font-size="40.0" fill="#373840" transform="matrix(1.00, 0.00, -0.00, -1.00, 760.5, 141.0)">e</text><text xml:space="preserve" font-family="Menlo-Regular" font-size="40.0" fill="#373840" transform="matrix(1.00, 0.00, -0.00, -1.00, 784.6, 141.0)">f</text><text xml:space="preserve" font-family="Menlo-Regular" font-size="40.0" fill="#373840" transform="matrix(1.00, 0.00, -0.00, -1.00, 808.7, 141.0)">f</text><text xml:space="preserve" font-family="Menlo-Regular" font-size="40.0" fill="#373840" transform="matrix(1.00, 0.00, -0.00, -1.00, 832.8, 141.0)">e</text><text xml:space="preserve" font-family="Menlo-Regular" font-size="40.0" fill="#373840" transform="matrix(1.00, 0.00, -0.00, -1.00, 856.8, 141.0)">c</text><text xml:space="preserve" font-family="Menlo-Regular" font-size="40.0" fill="#373840" transform="matrix(1.00, 0.00, -0.00, -1.00, 880.9, 141.0)">t</text><text xml:space="preserve" font-family="Menlo-Regular" font-size="40.0" fill="#373840" transform="matrix(1.00, 0.00, -0.00, -1.00, 905.0, 141.0)">s</text><text xml:space="preserve" font-family="Menlo-Regular" font-size="40.0" fill="#373840" transform="matrix(1.00, 0.00, -0.00, -1.00, 929.1, 141.0)">)</text><text xml:space="preserve" font-family="Menlo-Regular" font-size="60.0" fill="#373840" transform="matrix(1.00, 0.00, -0.00, -1.00, 259.0, 617.0)">"</text><text xml:space="preserve" font-family="Menlo-Regular" font-size="60.0" fill="#373840" transform="matrix(1.00, 0.00, -0.00, -1.00, 295.1, 617.0)">a</text><text xml:space="preserve" font-family="Menlo-Regular" font-size="60.0" fill="#373840" transform="matrix(1.00, 0.00, -0.00, -1.00, 331.3, 617.0)">h</text><text xml:space="preserve" font-family="Menlo-Regular" font-size="60.0" fill="#373840" transform="matrix(1.00, 0.00, -0.00, -1.00, 367.4, 617.0)">a</text><text xml:space="preserve" font-family="Menlo-Regular" font-size="60.0" fill="#373840" transform="matrix(1.00, 0.00, -0.00, -1.00, 403.5, 617.0)">!</text><text xml:space="preserve" font-family="Menlo-Regular" font-size="60.0" fill="#373840" transform="matrix(1.00, 0.00, -0.00, -1.00, 439.6, 617.0)">"</text><text xml:space="preserve" font-family="Menlo-Regular" font-size="60.0" fill="#373840" transform="matrix(1.00, 0.00, -0.00, -1.00, 475.8, 617.0)"> </text><text xml:space="preserve" font-family="Menlo-Regular" font-size="60.0" fill="#373840" transform="matrix(1.00, 0.00, -0.00, -1.00, 511.9, 617.0)">m</text><text xml:space="preserve" font-family="Menlo-Regular" font-size="60.0" fill="#373840" transform="matrix(1.00, 0.00, -0.00, -1.00, 548.0, 617.0)">o</text><text xml:space="preserve" font-family="Menlo-Regular" font-size="60.0" fill="#373840" transform="matrix(1.00, 0.00, -0.00, -1.00, 584.2, 617.0)">m</text><text xml:space="preserve" font-family="Menlo-Regular" font-size="60.0" fill="#373840" transform="matrix(1.00, 0.00, -0.00, -1.00, 620.3, 617.0)">e</text><text xml:space="preserve" font-family="Menlo-Regular" font-size="60.0" fill="#373840" transform="matrix(1.00, 0.00, -0.00, -1.00, 656.4, 617.0)">n</text><text xml:space="preserve" font-family="Menlo-Regular" font-size="60.0" fill="#373840" transform="matrix(1.00, 0.00, -0.00, -1.00, 692.5, 617.0)">t</text><text xml:space="preserve" font-family="Menlo-Regular" font-size="60.0" fill="#373840" transform="matrix(1.00, 0.00, -0.00, -1.00, 728.7, 617.0)">s</text></g></svg>