<?xml version="1.0" encoding="UTF-8" standalone="no"?><svg xmlns="http://www.w3.org/2000/svg" xmlns:xlink="http://www.w3.org/1999/xlink" clip-rule="evenodd" stroke-miterlimit="4.00" viewBox="0 0 573 44"><desc>SVG generated by Keynote</desc><defs></defs><g transform="matrix(1.00, 0.00, -0.00, -1.00, 0.0, 44.0)"><text xml:space="preserve" font-family="Menlo-Regular" font-size="40.0" fill="#373840" transform="matrix(1.00, 0.00, -0.00, -1.00, 1.0, 9.0)">N</text><text xml:space="preserve" font-family="Menlo-Regular" font-size="40.0" fill="#373840" transform="matrix(1.00, 0.00, -0.00, -1.00, 25.1, 9.0)">o</text><text xml:space="preserve" font-family="Menlo-Regular" font-size="40.0" fill="#373840" transform="matrix(1.00, 0.00, -0.00, -1.00, 49.2, 9.0)">d</text><text xml:space="preserve" font-family="Menlo-Regular" font-size="40.0" fill="#373840" transform="matrix(1.00, 0.00, -0.00, -1.00, 73.3, 9.0)">e</text><text xml:space="preserve" font-family="Menlo-Regular" font-size="40.0" fill="#373840" transform="matrix(1.00, 0.00, -0.00, -1.00, 97.3, 9.0)">.</text><text xml:space="preserve" font-family="Menlo-Regular" font-size="40.0" fill="#373840" transform="matrix(1.00, 0.00, -0.00, -1.00, 121.4, 9.0)">j</text><text xml:space="preserve" font-family="Menlo-Regular" font-size="40.0" fill="#373840" transform="matrix(1.00, 0.00, -0.00, -1.00, 145.5, 9.0)">s</text><text xml:space="preserve" font-family="Menlo-Regular" font-size="40.0" fill="#373840" transform="matrix(1.00, 0.00, -0.00, -1.00, 169.6, 9.0)"> </text><text xml:space="preserve" font-family="Menlo-Regular" font-size="40.0" fill="#373840" transform="matrix(1.00, 0.00, -0.00, -1.00, 193.7, 9.0)">(</text><text xml:space="preserve" font-family="Menlo-Regular" font-size="40.0" fill="#373840" transform="matrix(1.00, 0.00, -0.00, -1.00, 217.8, 9.0)">t</text><text xml:space="preserve" font-family="Menlo-Regular" font-size="40.0" fill="#373840" transform="matrix(1.00, 0.00, -0.00, -1.00, 241.9, 9.0)">h</text><text xml:space="preserve" font-family="Menlo-Regular" font-size="40.0" fill="#373840" transform="matrix(1.00, 0.00, -0.00, -1.00, 265.9, 9.0)">e</text><text xml:space="preserve" font-family="Menlo-Regular" font-size="40.0" fill="#373840" transform="matrix(1.00, 0.00, -0.00, -1.00, 290.0, 9.0)"> </text><text xml:space="preserve" font-family="Menlo-Regular" font-size="40.0" fill="#373840" transform="matrix(1.00, 0.00, -0.00, -1.00, 314.1, 9.0)">e</text><text xml:space="preserve" font-family="Menlo-Regular" font-size="40.0" fill="#373840" transform="matrix(1.00, 0.00, -0.00, -1.00, 338.2, 9.0)">v</text><text xml:space="preserve" font-family="Menlo-Regular" font-size="40.0" fill="#373840" transform="matrix(1.00, 0.00, -0.00, -1.00, 362.3, 9.0)">e</text><text xml:space="preserve" font-family="Menlo-Regular" font-size="40.0" fill="#373840" transform="matrix(1.00, 0.00, -0.00, -1.00, 386.4, 9.0)">n</text><text xml:space="preserve" font-family="Menlo-Regular" font-size="40.0" fill="#373840" transform="matrix(1.00, 0.00, -0.00, -1.00, 410.5, 9.0)">t</text><text xml:space="preserve" font-family="Menlo-Regular" font-size="40.0" fill="#373840" transform="matrix(1.00, 0.00, -0.00, -1.00, 434.5, 9.0)"> </text><text xml:space="preserve" font-family="Menlo-Regular" font-size="40.0" fill="#373840" transform="matrix(1.00, 0.00, -0.00, -1.00, 458.6, 9.0)">l</text><text xml:space="preserve" font-family="Menlo-Regular" font-size="40.0" fill="#373840" transform="matrix(1.00, 0.00, -0.00, -1.00, 482.7, 9.0)">o</text><text xml:space="preserve" font-family="Menlo-Regular" font-size="40.0" fill="#373840" transform="matrix(1.00, 0.00, -0.00, -1.00, 506.8, 9.0)">o</text><text xml:space="preserve" font-family="Menlo-Regular" font-size="40.0" fill="#373840" transform="matrix(1.00, 0.00, -0.00, -1.00, 530.9, 9.0)">p</text><text xml:space="preserve" font-family="Menlo-Regular" font-size="40.0" fill="#373840" transform="matrix(1.00, 0.00, -0.00, -1.00, 555.0, 9.0)">)</text></g></svg>