<?xml version="1.0" encoding="UTF-8" standalone="no"?><svg xmlns="http://www.w3.org/2000/svg" xmlns:xlink="http://www.w3.org/1999/xlink" clip-rule="evenodd" stroke-miterlimit="4.00" viewBox="0 0 162 73"><desc>SVG generated by Keynote</desc><defs></defs><g transform="matrix(1.00, 0.00, -0.00, -1.00, 0.0, 73.0)"><text xml:space="preserve" font-family="Menlo-Bold" font-weight="bold" font-size="30.0" fill="#4DE95D" transform="matrix(1.00, 0.00, -0.00, -1.00, 36.0, 46.0)">L</text><text xml:space="preserve" font-family="Menlo-Bold" font-weight="bold" font-size="30.0" fill="#4DE95D" transform="matrix(1.00, 0.00, -0.00, -1.00, 54.1, 46.0)">o</text><text xml:space="preserve" font-family="Menlo-Bold" font-weight="bold" font-size="30.0" fill="#4DE95D" transform="matrix(1.00, 0.00, -0.00, -1.00, 72.1, 46.0)">g</text><text xml:space="preserve" font-family="Menlo-Bold" font-weight="bold" font-size="30.0" fill="#4DE95D" transform="matrix(1.00, 0.00, -0.00, -1.00, 90.2, 46.0)">i</text><text xml:space="preserve" font-family="Menlo-Bold" font-weight="bold" font-size="30.0" fill="#4DE95D" transform="matrix(1.00, 0.00, -0.00, -1.00, 108.3, 46.0)">c</text><text xml:space="preserve" font-family="Menlo-Bold" font-weight="bold" font-size="30.0" fill="#4DE95D" transform="matrix(1.00, 0.00, -0.00, -1.00, 126.3, 46.0)"> </text><text xml:space="preserve" font-family="Menlo-Bold" font-weight="bold" font-size="17.0" fill="#4DE95D" transform="matrix(1.00, 0.00, -0.00, -1.00, -1.0, 6.0)">(</text><text xml:space="preserve" font-family="Menlo-Bold" font-weight="bold" font-size="17.0" fill="#4DE95D" transform="matrix(1.00, 0.00, -0.00, -1.00, 9.2, 6.0)">p</text><text xml:space="preserve" font-family="Menlo-Bold" font-weight="bold" font-size="17.0" fill="#4DE95D" transform="matrix(1.00, 0.00, -0.00, -1.00, 19.5, 6.0)">u</text><text xml:space="preserve" font-family="Menlo-Bold" font-weight="bold" font-size="17.0" fill="#4DE95D" transform="matrix(1.00, 0.00, -0.00, -1.00, 29.7, 6.0)">r</text><text xml:space="preserve" font-family="Menlo-Bold" font-weight="bold" font-size="17.0" fill="#4DE95D" transform="matrix(1.00, 0.00, -0.00, -1.00, 39.9, 6.0)">e</text><text xml:space="preserve" font-family="Menlo-Bold" font-weight="bold" font-size="17.0" fill="#4DE95D" transform="matrix(1.00, 0.00, -0.00, -1.00, 50.2, 6.0)"> </text><text xml:space="preserve" font-family="Menlo-Bold" font-weight="bold" font-size="17.0" fill="#4DE95D" transform="matrix(1.00, 0.00, -0.00, -1.00, 60.4, 6.0)">d</text><text xml:space="preserve" font-family="Menlo-Bold" font-weight="bold" font-size="17.0" fill="#4DE95D" transform="matrix(1.00, 0.00, -0.00, -1.00, 70.7, 6.0)">a</text><text xml:space="preserve" font-family="Menlo-Bold" font-weight="bold" font-size="17.0" fill="#4DE95D" transform="matrix(1.00, 0.00, -0.00, -1.00, 80.9, 6.0)">t</text><text xml:space="preserve" font-family="Menlo-Bold" font-weight="bold" font-size="17.0" fill="#4DE95D" transform="matrix(1.00, 0.00, -0.00, -1.00, 91.1, 6.0)">a</text><text xml:space="preserve" font-family="Menlo-Bold" font-weight="bold" font-size="17.0" fill="#4DE95D" transform="matrix(1.00, 0.00, -0.00, -1.00, 101.4, 6.0)"> </text><text xml:space="preserve" font-family="Menlo-Bold" font-weight="bold" font-size="17.0" fill="#4DE95D" transform="matrix(1.00, 0.00, -0.00, -1.00, 111.6, 6.0)">f</text><text xml:space="preserve" font-family="Menlo-Bold" font-weight="bold" font-size="17.0" fill="#4DE95D" transform="matrix(1.00, 0.00, -0.00, -1.00, 121.8, 6.0)">l</text><text xml:space="preserve" font-family="Menlo-Bold" font-weight="bold" font-size="17.0" fill="#4DE95D" transform="matrix(1.00, 0.00, -0.00, -1.00, 132.1, 6.0)">o</text><text xml:space="preserve" font-family="Menlo-Bold" font-weight="bold" font-size="17.0" fill="#4DE95D" transform="matrix(1.00, 0.00, -0.00, -1.00, 142.3, 6.0)">w</text><text xml:space="preserve" font-family="Menlo-Bold" font-weight="bold" font-size="17.0" fill="#4DE95D" transform="matrix(1.00, 0.00, -0.00, -1.00, 152.5, 6.0)">)</text></g></svg>