<?xml version="1.0" encoding="UTF-8" standalone="no"?><svg xmlns="http://www.w3.org/2000/svg" xmlns:xlink="http://www.w3.org/1999/xlink" clip-rule="evenodd" stroke-miterlimit="4.00" viewBox="0 0 203 71"><desc>SVG generated by Keynote</desc><defs></defs><g transform="matrix(1.00, 0.00, -0.00, -1.00, 0.0, 71.0)"><text xml:space="preserve" font-family="Menlo-Bold" font-weight="bold" font-size="30.0" fill="#D56653" transform="matrix(1.00, 0.00, -0.00, -1.00, 38.0, 46.0)">E</text><text xml:space="preserve" font-family="Menlo-Bold" font-weight="bold" font-size="30.0" fill="#D56653" transform="matrix(1.00, 0.00, -0.00, -1.00, 56.1, 46.0)">f</text><text xml:space="preserve" font-family="Menlo-Bold" font-weight="bold" font-size="30.0" fill="#D56653" transform="matrix(1.00, 0.00, -0.00, -1.00, 74.1, 46.0)">f</text><text xml:space="preserve" font-family="Menlo-Bold" font-weight="bold" font-size="30.0" fill="#D56653" transform="matrix(1.00, 0.00, -0.00, -1.00, 92.2, 46.0)">e</text><text xml:space="preserve" font-family="Menlo-Bold" font-weight="bold" font-size="30.0" fill="#D56653" transform="matrix(1.00, 0.00, -0.00, -1.00, 110.3, 46.0)">c</text><text xml:space="preserve" font-family="Menlo-Bold" font-weight="bold" font-size="30.0" fill="#D56653" transform="matrix(1.00, 0.00, -0.00, -1.00, 128.3, 46.0)">t</text><text xml:space="preserve" font-family="Menlo-Bold" font-weight="bold" font-size="30.0" fill="#D56653" transform="matrix(1.00, 0.00, -0.00, -1.00, 146.4, 46.0)">s</text><text xml:space="preserve" font-family="Menlo-Bold" font-weight="bold" font-size="30.0" fill="#D56653" transform="matrix(1.00, 0.00, -0.00, -1.00, 164.5, 46.0)"> </text><text xml:space="preserve" font-family="Menlo-Bold" font-weight="bold" font-size="17.0" fill="#D56653" transform="matrix(1.00, 0.00, -0.00, -1.00, -1.0, 6.0)">(</text><text xml:space="preserve" font-family="Menlo-Bold" font-weight="bold" font-size="17.0" fill="#D56653" transform="matrix(1.00, 0.00, -0.00, -1.00, 9.2, 6.0)">w</text><text xml:space="preserve" font-family="Menlo-Bold" font-weight="bold" font-size="17.0" fill="#D56653" transform="matrix(1.00, 0.00, -0.00, -1.00, 19.5, 6.0)">r</text><text xml:space="preserve" font-family="Menlo-Bold" font-weight="bold" font-size="17.0" fill="#D56653" transform="matrix(1.00, 0.00, -0.00, -1.00, 29.7, 6.0)">i</text><text xml:space="preserve" font-family="Menlo-Bold" font-weight="bold" font-size="17.0" fill="#D56653" transform="matrix(1.00, 0.00, -0.00, -1.00, 39.9, 6.0)">t</text><text xml:space="preserve" font-family="Menlo-Bold" font-weight="bold" font-size="17.0" fill="#D56653" transform="matrix(1.00, 0.00, -0.00, -1.00, 50.2, 6.0)">i</text><text xml:space="preserve" font-family="Menlo-Bold" font-weight="bold" font-size="17.0" fill="#D56653" transform="matrix(1.00, 0.00, -0.00, -1.00, 60.4, 6.0)">n</text><text xml:space="preserve" font-family="Menlo-Bold" font-weight="bold" font-size="17.0" fill="#D56653" transform="matrix(1.00, 0.00, -0.00, -1.00, 70.7, 6.0)">g</text><text xml:space="preserve" font-family="Menlo-Bold" font-weight="bold" font-size="17.0" fill="#D56653" transform="matrix(1.00, 0.00, -0.00, -1.00, 80.9, 6.0)"> </text><text xml:space="preserve" font-family="Menlo-Bold" font-weight="bold" font-size="17.0" fill="#D56653" transform="matrix(1.00, 0.00, -0.00, -1.00, 91.1, 6.0)">t</text><text xml:space="preserve" font-family="Menlo-Bold" font-weight="bold" font-size="17.0" fill="#D56653" transform="matrix(1.00, 0.00, -0.00, -1.00, 101.4, 6.0)">o</text><text xml:space="preserve" font-family="Menlo-Bold" font-weight="bold" font-size="17.0" fill="#D56653" transform="matrix(1.00, 0.00, -0.00, -1.00, 111.6, 6.0)"> </text><text xml:space="preserve" font-family="Menlo-Bold" font-weight="bold" font-size="17.0" fill="#D56653" transform="matrix(1.00, 0.00, -0.00, -1.00, 121.8, 6.0)">c</text><text xml:space="preserve" font-family="Menlo-Bold" font-weight="bold" font-size="17.0" fill="#D56653" transform="matrix(1.00, 0.00, -0.00, -1.00, 132.1, 6.0)">o</text><text xml:space="preserve" font-family="Menlo-Bold" font-weight="bold" font-size="17.0" fill="#D56653" transform="matrix(1.00, 0.00, -0.00, -1.00, 142.3, 6.0)">n</text><text xml:space="preserve" font-family="Menlo-Bold" font-weight="bold" font-size="17.0" fill="#D56653" transform="matrix(1.00, 0.00, -0.00, -1.00, 152.5, 6.0)">s</text><text xml:space="preserve" font-family="Menlo-Bold" font-weight="bold" font-size="17.0" fill="#D56653" transform="matrix(1.00, 0.00, -0.00, -1.00, 162.8, 6.0)">o</text><text xml:space="preserve" font-family="Menlo-Bold" font-weight="bold" font-size="17.0" fill="#D56653" transform="matrix(1.00, 0.00, -0.00, -1.00, 173.0, 6.0)">l</text><text xml:space="preserve" font-family="Menlo-Bold" font-weight="bold" font-size="17.0" fill="#D56653" transform="matrix(1.00, 0.00, -0.00, -1.00, 183.3, 6.0)">e</text><text xml:space="preserve" font-family="Menlo-Bold" font-weight="bold" font-size="17.0" fill="#D56653" transform="matrix(1.00, 0.00, -0.00, -1.00, 193.5, 6.0)">)</text></g></svg>