<?xml version="1.0" encoding="UTF-8" standalone="no"?><svg xmlns="http://www.w3.org/2000/svg" xmlns:xlink="http://www.w3.org/1999/xlink" clip-rule="evenodd" stroke-miterlimit="4.00" viewBox="0 0 1024 768"><desc>SVG generated by Keynote</desc><defs></defs><g transform="matrix(1.00, 0.00, -0.00, -1.00, 0.0, 768.0)"><path d="M 0.0 768.0 L 1024.0 768.0 L 1024.0 0.0 L 0.0 0.0 Z M 0.0 768.0 " fill="#FAFAFA"></path><text xml:space="preserve" font-family="Menlo-Bold" font-weight="bold" font-size="30.0" fill="#373840" transform="matrix(1.00, 0.00, -0.00, -1.00, 102.0, 670.0)">3</text><text xml:space="preserve" font-family="Menlo-Bold" font-weight="bold" font-size="30.0" fill="#373840" transform="matrix(1.00, 0.00, -0.00, -1.00, 120.1, 670.0)">)</text><text xml:space="preserve" font-family="Menlo-Bold" font-weight="bold" font-size="30.0" fill="#373840" transform="matrix(1.00, 0.00, -0.00, -1.00, 138.1, 670.0)"> </text><text xml:space="preserve" font-family="Menlo-Bold" font-weight="bold" font-size="30.0" fill="#373840" transform="matrix(1.00, 0.00, -0.00, -1.00, 156.2, 670.0)">W</text><text xml:space="preserve" font-family="Menlo-Bold" font-weight="bold" font-size="30.0" fill="#373840" transform="matrix(1.00, 0.00, -0.00, -1.00, 174.3, 670.0)">e</text><text xml:space="preserve" font-family="Menlo-Bold" font-weight="bold" font-size="30.0" fill="#373840" transform="matrix(1.00, 0.00, -0.00, -1.00, 192.3, 670.0)"> </text><text xml:space="preserve" font-family="Menlo-Bold" font-weight="bold" font-size="30.0" fill="#373840" transform="matrix(1.00, 0.00, -0.00, -1.00, 210.4, 670.0)">g</text><text xml:space="preserve" font-family="Menlo-Bold" font-weight="bold" font-size="30.0" fill="#373840" transform="matrix(1.00, 0.00, -0.00, -1.00, 228.5, 670.0)">e</text><text xml:space="preserve" font-family="Menlo-Bold" font-weight="bold" font-size="30.0" fill="#373840" transform="matrix(1.00, 0.00, -0.00, -1.00, 246.5, 670.0)">t</text><text xml:space="preserve" font-family="Menlo-Bold" font-weight="bold" font-size="30.0" fill="#373840" transform="matrix(1.00, 0.00, -0.00, -1.00, 264.6, 670.0)"> </text><text xml:space="preserve" font-family="Menlo-Bold" font-weight="bold" font-size="30.0" fill="#373840" transform="matrix(1.00, 0.00, -0.00, -1.00, 282.6, 670.0)">b</text><text xml:space="preserve" font-family="Menlo-Bold" font-weight="bold" font-size="30.0" fill="#373840" transform="matrix(1.00, 0.00, -0.00, -1.00, 300.7, 670.0)">a</text><text xml:space="preserve" font-family="Menlo-Bold" font-weight="bold" font-size="30.0" fill="#373840" transform="matrix(1.00, 0.00, -0.00, -1.00, 318.8, 670.0)">c</text><text xml:space="preserve" font-family="Menlo-Bold" font-weight="bold" font-size="30.0" fill="#373840" transform="matrix(1.00, 0.00, -0.00, -1.00, 336.8, 670.0)">k</text><text xml:space="preserve" font-family="Menlo-Bold" font-weight="bold" font-size="30.0" fill="#373840" transform="matrix(1.00, 0.00, -0.00, -1.00, 354.9, 670.0)"> </text><text xml:space="preserve" font-family="Menlo-Bold" font-weight="bold" font-size="30.0" fill="#373840" transform="matrix(1.00, 0.00, -0.00, -1.00, 373.0, 670.0)">t</text><text xml:space="preserve" font-family="Menlo-Bold" font-weight="bold" font-size="30.0" fill="#373840" transform="matrix(1.00, 0.00, -0.00, -1.00, 391.0, 670.0)">h</text><text xml:space="preserve" font-family="Menlo-Bold" font-weight="bold" font-size="30.0" fill="#373840" transform="matrix(1.00, 0.00, -0.00, -1.00, 409.1, 670.0)">e</text><text xml:space="preserve" font-family="Menlo-Bold" font-weight="bold" font-size="30.0" fill="#373840" transform="matrix(1.00, 0.00, -0.00, -1.00, 427.2, 670.0)"> </text><text xml:space="preserve" font-family="Menlo-Bold" font-weight="bold" font-size="30.0" fill="#373840" transform="matrix(1.00, 0.00, -0.00, -1.00, 445.2, 670.0)">r</text><text xml:space="preserve" font-family="Menlo-Bold" font-weight="bold" font-size="30.0" fill="#373840" transform="matrix(1.00, 0.00, -0.00, -1.00, 463.3, 670.0)">e</text><text xml:space="preserve" font-family="Menlo-Bold" font-weight="bold" font-size="30.0" fill="#373840" transform="matrix(1.00, 0.00, -0.00, -1.00, 481.4, 670.0)">s</text><text xml:space="preserve" font-family="Menlo-Bold" font-weight="bold" font-size="30.0" fill="#373840" transform="matrix(1.00, 0.00, -0.00, -1.00, 499.4, 670.0)">p</text><text xml:space="preserve" font-family="Menlo-Bold" font-weight="bold" font-size="30.0" fill="#373840" transform="matrix(1.00, 0.00, -0.00, -1.00, 517.5, 670.0)">o</text><text xml:space="preserve" font-family="Menlo-Bold" font-weight="bold" font-size="30.0" fill="#373840" transform="matrix(1.00, 0.00, -0.00, -1.00, 535.5, 670.0)">n</text><text xml:space="preserve" font-family="Menlo-Bold" font-weight="bold" font-size="30.0" fill="#373840" transform="matrix(1.00, 0.00, -0.00, -1.00, 553.6, 670.0)">s</text><text xml:space="preserve" font-family="Menlo-Bold" font-weight="bold" font-size="30.0" fill="#373840" transform="matrix(1.00, 0.00, -0.00, -1.00, 571.7, 670.0)">e</text><text xml:space="preserve" font-family="Menlo-Bold" font-weight="bold" font-size="30.0" fill="#373840" transform="matrix(1.00, 0.00, -0.00, -1.00, 589.7, 670.0)"> </text><text xml:space="preserve" font-family="Menlo-Bold" font-weight="bold" font-size="30.0" fill="#373840" transform="matrix(1.00, 0.00, -0.00, -1.00, 607.8, 670.0)">f</text><text xml:space="preserve" font-family="Menlo-Bold" font-weight="bold" font-size="30.0" fill="#373840" transform="matrix(1.00, 0.00, -0.00, -1.00, 625.9, 670.0)">r</text><text xml:space="preserve" font-family="Menlo-Bold" font-weight="bold" font-size="30.0" fill="#373840" transform="matrix(1.00, 0.00, -0.00, -1.00, 643.9, 670.0)">o</text><text xml:space="preserve" font-family="Menlo-Bold" font-weight="bold" font-size="30.0" fill="#373840" transform="matrix(1.00, 0.00, -0.00, -1.00, 662.0, 670.0)">m</text><text xml:space="preserve" font-family="Menlo-Bold" font-weight="bold" font-size="30.0" fill="#373840" transform="matrix(1.00, 0.00, -0.00, -1.00, 680.1, 670.0)"> </text><text xml:space="preserve" font-family="Menlo-Bold" font-weight="bold" font-size="30.0" fill="#373840" transform="matrix(1.00, 0.00, -0.00, -1.00, 102.0, 635.0)">t</text><text xml:space="preserve" font-family="Menlo-Bold" font-weight="bold" font-size="30.0" fill="#373840" transform="matrix(1.00, 0.00, -0.00, -1.00, 120.1, 635.0)">h</text><text xml:space="preserve" font-family="Menlo-Bold" font-weight="bold" font-size="30.0" fill="#373840" transform="matrix(1.00, 0.00, -0.00, -1.00, 138.1, 635.0)">e</text><text xml:space="preserve" font-family="Menlo-Bold" font-weight="bold" font-size="30.0" fill="#373840" transform="matrix(1.00, 0.00, -0.00, -1.00, 156.2, 635.0)"> </text><text xml:space="preserve" font-family="Menlo-Bold" font-weight="bold" font-size="30.0" fill="#373840" transform="matrix(1.00, 0.00, -0.00, -1.00, 174.3, 635.0)">d</text><text xml:space="preserve" font-family="Menlo-Bold" font-weight="bold" font-size="30.0" fill="#373840" transform="matrix(1.00, 0.00, -0.00, -1.00, 192.3, 635.0)">r</text><text xml:space="preserve" font-family="Menlo-Bold" font-weight="bold" font-size="30.0" fill="#373840" transform="matrix(1.00, 0.00, -0.00, -1.00, 210.4, 635.0)">i</text><text xml:space="preserve" font-family="Menlo-Bold" font-weight="bold" font-size="30.0" fill="#373840" transform="matrix(1.00, 0.00, -0.00, -1.00, 228.5, 635.0)">v</text><text xml:space="preserve" font-family="Menlo-Bold" font-weight="bold" font-size="30.0" fill="#373840" transform="matrix(1.00, 0.00, -0.00, -1.00, 246.5, 635.0)">e</text><text xml:space="preserve" font-family="Menlo-Bold" font-weight="bold" font-size="30.0" fill="#373840" transform="matrix(1.00, 0.00, -0.00, -1.00, 264.6, 635.0)">r</text><text xml:space="preserve" font-family="Menlo-Bold" font-weight="bold" font-size="30.0" fill="#373840" transform="matrix(1.00, 0.00, -0.00, -1.00, 282.6, 635.0)"> </text><text xml:space="preserve" font-family="Menlo-Bold" font-weight="bold" font-size="30.0" fill="#373840" transform="matrix(1.00, 0.00, -0.00, -1.00, 300.7, 635.0)">a</text><text xml:space="preserve" font-family="Menlo-Bold" font-weight="bold" font-size="30.0" fill="#373840" transform="matrix(1.00, 0.00, -0.00, -1.00, 318.8, 635.0)">s</text><text xml:space="preserve" font-family="Menlo-Bold" font-weight="bold" font-size="30.0" fill="#373840" transform="matrix(1.00, 0.00, -0.00, -1.00, 336.8, 635.0)"> </text><text xml:space="preserve" font-family="Menlo-Bold" font-weight="bold" font-size="30.0" fill="#373840" transform="matrix(1.00, 0.00, -0.00, -1.00, 354.9, 635.0)">a</text><text xml:space="preserve" font-family="Menlo-Bold" font-weight="bold" font-size="30.0" fill="#373840" transform="matrix(1.00, 0.00, -0.00, -1.00, 373.0, 635.0)">n</text><text xml:space="preserve" font-family="Menlo-Bold" font-weight="bold" font-size="30.0" fill="#373840" transform="matrix(1.00, 0.00, -0.00, -1.00, 391.0, 635.0)"> </text><text xml:space="preserve" font-family="Menlo-Bold" font-weight="bold" font-size="30.0" fill="#373840" transform="matrix(1.00, 0.00, -0.00, -1.00, 409.1, 635.0)">O</text><text xml:space="preserve" font-family="Menlo-Bold" font-weight="bold" font-size="30.0" fill="#373840" transform="matrix(1.00, 0.00, -0.00, -1.00, 427.2, 635.0)">b</text><text xml:space="preserve" font-family="Menlo-Bold" font-weight="bold" font-size="30.0" fill="#373840" transform="matrix(1.00, 0.00, -0.00, -1.00, 445.2, 635.0)">s</text><text xml:space="preserve" font-family="Menlo-Bold" font-weight="bold" font-size="30.0" fill="#373840" transform="matrix(1.00, 0.00, -0.00, -1.00, 463.3, 635.0)">e</text><text xml:space="preserve" font-family="Menlo-Bold" font-weight="bold" font-size="30.0" fill="#373840" transform="matrix(1.00, 0.00, -0.00, -1.00, 481.4, 635.0)">r</text><text xml:space="preserve" font-family="Menlo-Bold" font-weight="bold" font-size="30.0" fill="#373840" transform="matrix(1.00, 0.00, -0.00, -1.00, 499.4, 635.0)">v</text><text xml:space="preserve" font-family="Menlo-Bold" font-weight="bold" font-size="30.0" fill="#373840" transform="matrix(1.00, 0.00, -0.00, -1.00, 517.5, 635.0)">a</text><text xml:space="preserve" font-family="Menlo-Bold" font-weight="bold" font-size="30.0" fill="#373840" transform="matrix(1.00, 0.00, -0.00, -1.00, 535.5, 635.0)">b</text><text xml:space="preserve" font-family="Menlo-Bold" font-weight="bold" font-size="30.0" fill="#373840" transform="matrix(1.00, 0.00, -0.00, -1.00, 553.6, 635.0)">l</text><text xml:space="preserve" font-family="Menlo-Bold" font-weight="bold" font-size="30.0" fill="#373840" transform="matrix(1.00, 0.00, -0.00, -1.00, 571.7, 635.0)">e</text><text xml:space="preserve" font-family="Menlo-Bold" font-weight="bold" font-size="30.0" fill="#373840" transform="matrix(1.00, 0.00, -0.00, -1.00, 589.7, 635.0)">!</text><text xml:space="preserve" font-family="Menlo-Regular" font-size="33.0" fill="#373840" transform="matrix(1.00, 0.00, -0.00, -1.00, 100.0, 518.0)">f</text><text xml:space="preserve" font-family="Menlo-Regular" font-size="33.0" fill="#373840" transform="matrix(1.00, 0.00, -0.00, -1.00, 119.9, 518.0)">u</text><text xml:space="preserve" font-family="Menlo-Regular" font-size="33.0" fill="#373840" transform="matrix(1.00, 0.00, -0.00, -1.00, 139.7, 518.0)">n</text><text xml:space="preserve" font-family="Menlo-Regular" font-size="33.0" fill="#373840" transform="matrix(1.00, 0.00, -0.00, -1.00, 159.6, 518.0)">c</text><text xml:space="preserve" font-family="Menlo-Regular" font-size="33.0" fill="#373840" transform="matrix(1.00, 0.00, -0.00, -1.00, 179.5, 518.0)">t</text><text xml:space="preserve" font-family="Menlo-Regular" font-size="33.0" fill="#373840" transform="matrix(1.00, 0.00, -0.00, -1.00, 199.4, 518.0)">i</text><text xml:space="preserve" font-family="Menlo-Regular" font-size="33.0" fill="#373840" transform="matrix(1.00, 0.00, -0.00, -1.00, 219.2, 518.0)">o</text><text xml:space="preserve" font-family="Menlo-Regular" font-size="33.0" fill="#373840" transform="matrix(1.00, 0.00, -0.00, -1.00, 239.1, 518.0)">n</text><text xml:space="preserve" font-family="Menlo-Regular" font-size="33.0" fill="#373840" transform="matrix(1.00, 0.00, -0.00, -1.00, 259.0, 518.0)"> </text><text xml:space="preserve" font-family="Menlo-Regular" font-size="33.0" fill="#373840" transform="matrix(1.00, 0.00, -0.00, -1.00, 278.8, 518.0)">m</text><text xml:space="preserve" font-family="Menlo-Regular" font-size="33.0" fill="#373840" transform="matrix(1.00, 0.00, -0.00, -1.00, 298.7, 518.0)">a</text><text xml:space="preserve" font-family="Menlo-Regular" font-size="33.0" fill="#373840" transform="matrix(1.00, 0.00, -0.00, -1.00, 318.6, 518.0)">i</text><text xml:space="preserve" font-family="Menlo-Regular" font-size="33.0" fill="#373840" transform="matrix(1.00, 0.00, -0.00, -1.00, 338.5, 518.0)">n</text><text xml:space="preserve" font-family="Menlo-Regular" font-size="33.0" fill="#373840" transform="matrix(1.00, 0.00, -0.00, -1.00, 358.3, 518.0)">(</text><text xml:space="preserve" font-family="Menlo-Regular" font-size="33.0" fill="#373840" transform="matrix(1.00, 0.00, -0.00, -1.00, 378.2, 518.0)">s</text><text xml:space="preserve" font-family="Menlo-Regular" font-size="33.0" fill="#373840" transform="matrix(1.00, 0.00, -0.00, -1.00, 398.1, 518.0)">o</text><text xml:space="preserve" font-family="Menlo-Regular" font-size="33.0" fill="#373840" transform="matrix(1.00, 0.00, -0.00, -1.00, 417.9, 518.0)">u</text><text xml:space="preserve" font-family="Menlo-Regular" font-size="33.0" fill="#373840" transform="matrix(1.00, 0.00, -0.00, -1.00, 437.8, 518.0)">r</text><text xml:space="preserve" font-family="Menlo-Regular" font-size="33.0" fill="#373840" transform="matrix(1.00, 0.00, -0.00, -1.00, 457.7, 518.0)">c</text><text xml:space="preserve" font-family="Menlo-Regular" font-size="33.0" fill="#373840" transform="matrix(1.00, 0.00, -0.00, -1.00, 477.5, 518.0)">e</text><text xml:space="preserve" font-family="Menlo-Regular" font-size="33.0" fill="#373840" transform="matrix(1.00, 0.00, -0.00, -1.00, 497.4, 518.0)">s</text><text xml:space="preserve" font-family="Menlo-Regular" font-size="33.0" fill="#373840" transform="matrix(1.00, 0.00, -0.00, -1.00, 517.3, 518.0)">)</text><text xml:space="preserve" font-family="Menlo-Regular" font-size="33.0" fill="#373840" transform="matrix(1.00, 0.00, -0.00, -1.00, 537.2, 518.0)"> </text><text xml:space="preserve" font-family="Menlo-Regular" font-size="33.0" fill="#373840" transform="matrix(1.00, 0.00, -0.00, -1.00, 557.0, 518.0)">{</text><text xml:space="preserve" font-family="Menlo-Regular" font-size="33.0" fill="#373840" transform="matrix(1.00, 0.00, -0.00, -1.00, 576.9, 518.0)"> </text><text xml:space="preserve" font-family="Menlo-Regular" font-size="33.0" fill="#373840" transform="matrix(1.00, 0.00, -0.00, -1.00, 100.0, 467.0)"> </text><text xml:space="preserve" font-family="Menlo-Regular" font-size="33.0" fill="#373840" transform="matrix(1.00, 0.00, -0.00, -1.00, 119.9, 467.0)"> </text><text xml:space="preserve" font-family="Menlo-Regular" font-size="33.0" fill="#3F82EE" transform="matrix(1.00, 0.00, -0.00, -1.00, 139.7, 467.0)">c</text><text xml:space="preserve" font-family="Menlo-Regular" font-size="33.0" fill="#3F82EE" transform="matrix(1.00, 0.00, -0.00, -1.00, 159.6, 467.0)">o</text><text xml:space="preserve" font-family="Menlo-Regular" font-size="33.0" fill="#3F82EE" transform="matrix(1.00, 0.00, -0.00, -1.00, 179.5, 467.0)">n</text><text xml:space="preserve" font-family="Menlo-Regular" font-size="33.0" fill="#3F82EE" transform="matrix(1.00, 0.00, -0.00, -1.00, 199.3, 467.0)">s</text><text xml:space="preserve" font-family="Menlo-Regular" font-size="33.0" fill="#3F82EE" transform="matrix(1.00, 0.00, -0.00, -1.00, 219.2, 467.0)">t</text><text xml:space="preserve" font-family="Menlo-Regular" font-size="33.0" fill="#3F82EE" transform="matrix(1.00, 0.00, -0.00, -1.00, 239.1, 467.0)"> </text><text xml:space="preserve" font-family="Menlo-Regular" font-size="33.0" fill="#3F82EE" transform="matrix(1.00, 0.00, -0.00, -1.00, 259.0, 467.0)">r</text><text xml:space="preserve" font-family="Menlo-Regular" font-size="33.0" fill="#3F82EE" transform="matrix(1.00, 0.00, -0.00, -1.00, 278.8, 467.0)">e</text><text xml:space="preserve" font-family="Menlo-Regular" font-size="33.0" fill="#3F82EE" transform="matrix(1.00, 0.00, -0.00, -1.00, 298.7, 467.0)">s</text><text xml:space="preserve" font-family="Menlo-Regular" font-size="33.0" fill="#3F82EE" transform="matrix(1.00, 0.00, -0.00, -1.00, 318.6, 467.0)">B</text><text xml:space="preserve" font-family="Menlo-Regular" font-size="33.0" fill="#3F82EE" transform="matrix(1.00, 0.00, -0.00, -1.00, 338.4, 467.0)">o</text><text xml:space="preserve" font-family="Menlo-Regular" font-size="33.0" fill="#3F82EE" transform="matrix(1.00, 0.00, -0.00, -1.00, 358.3, 467.0)">d</text><text xml:space="preserve" font-family="Menlo-Regular" font-size="33.0" fill="#3F82EE" transform="matrix(1.00, 0.00, -0.00, -1.00, 378.2, 467.0)">y</text><text xml:space="preserve" font-family="Menlo-Regular" font-size="33.0" fill="#3F82EE" transform="matrix(1.00, 0.00, -0.00, -1.00, 398.1, 467.0)">$</text><text xml:space="preserve" font-family="Menlo-Regular" font-size="33.0" fill="#3F82EE" transform="matrix(1.00, 0.00, -0.00, -1.00, 417.9, 467.0)"> </text><text xml:space="preserve" font-family="Menlo-Regular" font-size="33.0" fill="#3F82EE" transform="matrix(1.00, 0.00, -0.00, -1.00, 437.8, 467.0)">=</text><text xml:space="preserve" font-family="Menlo-Regular" font-size="33.0" fill="#3F82EE" transform="matrix(1.00, 0.00, -0.00, -1.00, 457.7, 467.0)"> </text><text xml:space="preserve" font-family="Menlo-Regular" font-size="33.0" fill="#3F82EE" transform="matrix(1.00, 0.00, -0.00, -1.00, 477.5, 467.0)">s</text><text xml:space="preserve" font-family="Menlo-Regular" font-size="33.0" fill="#3F82EE" transform="matrix(1.00, 0.00, -0.00, -1.00, 497.4, 467.0)">o</text><text xml:space="preserve" font-family="Menlo-Regular" font-size="33.0" fill="#3F82EE" transform="matrix(1.00, 0.00, -0.00, -1.00, 517.3, 467.0)">u</text><text xml:space="preserve" font-family="Menlo-Regular" font-size="33.0" fill="#3F82EE" transform="matrix(1.00, 0.00, -0.00, -1.00, 537.2, 467.0)">r</text><text xml:space="preserve" font-family="Menlo-Regular" font-size="33.0" fill="#3F82EE" transform="matrix(1.00, 0.00, -0.00, -1.00, 557.0, 467.0)">c</text><text xml:space="preserve" font-family="Menlo-Regular" font-size="33.0" fill="#3F82EE" transform="matrix(1.00, 0.00, -0.00, -1.00, 576.9, 467.0)">e</text><text xml:space="preserve" font-family="Menlo-Regular" font-size="33.0" fill="#3F82EE" transform="matrix(1.00, 0.00, -0.00, -1.00, 596.8, 467.0)">s</text><text xml:space="preserve" font-family="Menlo-Regular" font-size="33.0" fill="#3F82EE" transform="matrix(1.00, 0.00, -0.00, -1.00, 616.6, 467.0)">.</text><text xml:space="preserve" font-family="Menlo-Regular" font-size="33.0" fill="#3F82EE" transform="matrix(1.00, 0.00, -0.00, -1.00, 636.5, 467.0)">H</text><text xml:space="preserve" font-family="Menlo-Regular" font-size="33.0" fill="#3F82EE" transform="matrix(1.00, 0.00, -0.00, -1.00, 656.4, 467.0)">T</text><text xml:space="preserve" font-family="Menlo-Regular" font-size="33.0" fill="#3F82EE" transform="matrix(1.00, 0.00, -0.00, -1.00, 676.3, 467.0)">T</text><text xml:space="preserve" font-family="Menlo-Regular" font-size="33.0" fill="#3F82EE" transform="matrix(1.00, 0.00, -0.00, -1.00, 696.1, 467.0)">P</text><text xml:space="preserve" font-family="Menlo-Regular" font-size="33.0" fill="#3F82EE" transform="matrix(1.00, 0.00, -0.00, -1.00, 716.0, 467.0)"> </text><text xml:space="preserve" font-family="Menlo-Regular" font-size="33.0" fill="#3F82EE" transform="matrix(1.00, 0.00, -0.00, -1.00, 100.0, 417.0)"> </text><text xml:space="preserve" font-family="Menlo-Regular" font-size="33.0" fill="#3F82EE" transform="matrix(1.00, 0.00, -0.00, -1.00, 119.9, 417.0)"> </text><text xml:space="preserve" font-family="Menlo-Regular" font-size="33.0" fill="#3F82EE" transform="matrix(1.00, 0.00, -0.00, -1.00, 139.7, 417.0)"> </text><text xml:space="preserve" font-family="Menlo-Regular" font-size="33.0" fill="#3F82EE" transform="matrix(1.00, 0.00, -0.00, -1.00, 159.6, 417.0)"> </text><text xml:space="preserve" font-family="Menlo-Regular" font-size="33.0" fill="#3F82EE" transform="matrix(1.00, 0.00, -0.00, -1.00, 179.5, 417.0)">.</text><text xml:space="preserve" font-family="Menlo-Regular" font-size="33.0" fill="#3F82EE" transform="matrix(1.00, 0.00, -0.00, -1.00, 199.4, 417.0)">s</text><text xml:space="preserve" font-family="Menlo-Regular" font-size="33.0" fill="#3F82EE" transform="matrix(1.00, 0.00, -0.00, -1.00, 219.2, 417.0)">w</text><text xml:space="preserve" font-family="Menlo-Regular" font-size="33.0" fill="#3F82EE" transform="matrix(1.00, 0.00, -0.00, -1.00, 239.1, 417.0)">i</text><text xml:space="preserve" font-family="Menlo-Regular" font-size="33.0" fill="#3F82EE" transform="matrix(1.00, 0.00, -0.00, -1.00, 259.0, 417.0)">t</text><text xml:space="preserve" font-family="Menlo-Regular" font-size="33.0" fill="#3F82EE" transform="matrix(1.00, 0.00, -0.00, -1.00, 278.8, 417.0)">c</text><text xml:space="preserve" font-family="Menlo-Regular" font-size="33.0" fill="#3F82EE" transform="matrix(1.00, 0.00, -0.00, -1.00, 298.7, 417.0)">h</text><text xml:space="preserve" font-family="Menlo-Regular" font-size="33.0" fill="#3F82EE" transform="matrix(1.00, 0.00, -0.00, -1.00, 318.6, 417.0)">(</text><text xml:space="preserve" font-family="Menlo-Regular" font-size="33.0" fill="#3F82EE" transform="matrix(1.00, 0.00, -0.00, -1.00, 338.5, 417.0)">)</text><text xml:space="preserve" font-family="Menlo-Regular" font-size="33.0" fill="#3F82EE" transform="matrix(1.00, 0.00, -0.00, -1.00, 358.3, 417.0)"> </text><text xml:space="preserve" font-family="Menlo-Regular" font-size="33.0" fill="#3F82EE" transform="matrix(1.00, 0.00, -0.00, -1.00, 378.2, 417.0)">/</text><text xml:space="preserve" font-family="Menlo-Regular" font-size="33.0" fill="#3F82EE" transform="matrix(1.00, 0.00, -0.00, -1.00, 398.1, 417.0)">/</text><text xml:space="preserve" font-family="Menlo-Regular" font-size="33.0" fill="#3F82EE" transform="matrix(1.00, 0.00, -0.00, -1.00, 417.9, 417.0)"> </text><text xml:space="preserve" font-family="Menlo-Regular" font-size="33.0" fill="#3F82EE" transform="matrix(1.00, 0.00, -0.00, -1.00, 437.8, 417.0)">i</text><text xml:space="preserve" font-family="Menlo-Regular" font-size="33.0" fill="#3F82EE" transform="matrix(1.00, 0.00, -0.00, -1.00, 457.7, 417.0)">t</text><text xml:space="preserve" font-family="Menlo-Regular" font-size="33.0" fill="#3F82EE" transform="matrix(1.00, 0.00, -0.00, -1.00, 477.5, 417.0)">'</text><text xml:space="preserve" font-family="Menlo-Regular" font-size="33.0" fill="#3F82EE" transform="matrix(1.00, 0.00, -0.00, -1.00, 497.4, 417.0)">s</text><text xml:space="preserve" font-family="Menlo-Regular" font-size="33.0" fill="#3F82EE" transform="matrix(1.00, 0.00, -0.00, -1.00, 517.3, 417.0)"> </text><text xml:space="preserve" font-family="Menlo-Regular" font-size="33.0" fill="#3F82EE" transform="matrix(1.00, 0.00, -0.00, -1.00, 537.2, 417.0)">a</text><text xml:space="preserve" font-family="Menlo-Regular" font-size="33.0" fill="#3F82EE" transform="matrix(1.00, 0.00, -0.00, -1.00, 557.0, 417.0)"> </text><text xml:space="preserve" font-family="Menlo-Regular" font-size="33.0" fill="#3F82EE" transform="matrix(1.00, 0.00, -0.00, -1.00, 576.9, 417.0)">s</text><text xml:space="preserve" font-family="Menlo-Regular" font-size="33.0" fill="#3F82EE" transform="matrix(1.00, 0.00, -0.00, -1.00, 596.8, 417.0)">t</text><text xml:space="preserve" font-family="Menlo-Regular" font-size="33.0" fill="#3F82EE" transform="matrix(1.00, 0.00, -0.00, -1.00, 616.6, 417.0)">r</text><text xml:space="preserve" font-family="Menlo-Regular" font-size="33.0" fill="#3F82EE" transform="matrix(1.00, 0.00, -0.00, -1.00, 636.5, 417.0)">e</text><text xml:space="preserve" font-family="Menlo-Regular" font-size="33.0" fill="#3F82EE" transform="matrix(1.00, 0.00, -0.00, -1.00, 656.4, 417.0)">a</text><text xml:space="preserve" font-family="Menlo-Regular" font-size="33.0" fill="#3F82EE" transform="matrix(1.00, 0.00, -0.00, -1.00, 676.3, 417.0)">m</text><text xml:space="preserve" font-family="Menlo-Regular" font-size="33.0" fill="#3F82EE" transform="matrix(1.00, 0.00, -0.00, -1.00, 696.1, 417.0)"> </text><text xml:space="preserve" font-family="Menlo-Regular" font-size="33.0" fill="#3F82EE" transform="matrix(1.00, 0.00, -0.00, -1.00, 716.0, 417.0)">o</text><text xml:space="preserve" font-family="Menlo-Regular" font-size="33.0" fill="#3F82EE" transform="matrix(1.00, 0.00, -0.00, -1.00, 735.9, 417.0)">f</text><text xml:space="preserve" font-family="Menlo-Regular" font-size="33.0" fill="#3F82EE" transform="matrix(1.00, 0.00, -0.00, -1.00, 755.7, 417.0)"> </text><text xml:space="preserve" font-family="Menlo-Regular" font-size="33.0" fill="#3F82EE" transform="matrix(1.00, 0.00, -0.00, -1.00, 775.6, 417.0)">s</text><text xml:space="preserve" font-family="Menlo-Regular" font-size="33.0" fill="#3F82EE" transform="matrix(1.00, 0.00, -0.00, -1.00, 795.5, 417.0)">t</text><text xml:space="preserve" font-family="Menlo-Regular" font-size="33.0" fill="#3F82EE" transform="matrix(1.00, 0.00, -0.00, -1.00, 815.4, 417.0)">r</text><text xml:space="preserve" font-family="Menlo-Regular" font-size="33.0" fill="#3F82EE" transform="matrix(1.00, 0.00, -0.00, -1.00, 835.2, 417.0)">e</text><text xml:space="preserve" font-family="Menlo-Regular" font-size="33.0" fill="#3F82EE" transform="matrix(1.00, 0.00, -0.00, -1.00, 855.1, 417.0)">a</text><text xml:space="preserve" font-family="Menlo-Regular" font-size="33.0" fill="#3F82EE" transform="matrix(1.00, 0.00, -0.00, -1.00, 875.0, 417.0)">m</text><text xml:space="preserve" font-family="Menlo-Regular" font-size="33.0" fill="#3F82EE" transform="matrix(1.00, 0.00, -0.00, -1.00, 894.8, 417.0)">s</text><text xml:space="preserve" font-family="Menlo-Regular" font-size="33.0" fill="#3F82EE" transform="matrix(1.00, 0.00, -0.00, -1.00, 914.7, 417.0)"> </text><text xml:space="preserve" font-family="Menlo-Regular" font-size="33.0" fill="#3F82EE" transform="matrix(1.00, 0.00, -0.00, -1.00, 100.0, 366.0)"> </text><text xml:space="preserve" font-family="Menlo-Regular" font-size="33.0" fill="#3F82EE" transform="matrix(1.00, 0.00, -0.00, -1.00, 119.9, 366.0)"> </text><text xml:space="preserve" font-family="Menlo-Regular" font-size="33.0" fill="#3F82EE" transform="matrix(1.00, 0.00, -0.00, -1.00, 139.7, 366.0)"> </text><text xml:space="preserve" font-family="Menlo-Regular" font-size="33.0" fill="#3F82EE" transform="matrix(1.00, 0.00, -0.00, -1.00, 159.6, 366.0)"> </text><text xml:space="preserve" font-family="Menlo-Regular" font-size="33.0" fill="#3F82EE" transform="matrix(1.00, 0.00, -0.00, -1.00, 179.5, 366.0)">.</text><text xml:space="preserve" font-family="Menlo-Regular" font-size="33.0" fill="#3F82EE" transform="matrix(1.00, 0.00, -0.00, -1.00, 199.4, 366.0)">m</text><text xml:space="preserve" font-family="Menlo-Regular" font-size="33.0" fill="#3F82EE" transform="matrix(1.00, 0.00, -0.00, -1.00, 219.2, 366.0)">a</text><text xml:space="preserve" font-family="Menlo-Regular" font-size="33.0" fill="#3F82EE" transform="matrix(1.00, 0.00, -0.00, -1.00, 239.1, 366.0)">p</text><text xml:space="preserve" font-family="Menlo-Regular" font-size="33.0" fill="#3F82EE" transform="matrix(1.00, 0.00, -0.00, -1.00, 259.0, 366.0)">(</text><text xml:space="preserve" font-family="Menlo-Regular" font-size="33.0" fill="#3F82EE" transform="matrix(1.00, 0.00, -0.00, -1.00, 278.8, 366.0)">r</text><text xml:space="preserve" font-family="Menlo-Regular" font-size="33.0" fill="#3F82EE" transform="matrix(1.00, 0.00, -0.00, -1.00, 298.7, 366.0)">e</text><text xml:space="preserve" font-family="Menlo-Regular" font-size="33.0" fill="#3F82EE" transform="matrix(1.00, 0.00, -0.00, -1.00, 318.6, 366.0)">s</text><text xml:space="preserve" font-family="Menlo-Regular" font-size="33.0" fill="#3F82EE" transform="matrix(1.00, 0.00, -0.00, -1.00, 338.5, 366.0)"> </text><text xml:space="preserve" font-family="Menlo-Regular" font-size="33.0" fill="#3F82EE" transform="matrix(1.00, 0.00, -0.00, -1.00, 358.3, 366.0)">=</text><text xml:space="preserve" font-family="Menlo-Regular" font-size="33.0" fill="#3F82EE" transform="matrix(1.00, 0.00, -0.00, -1.00, 378.2, 366.0)">&gt;</text><text xml:space="preserve" font-family="Menlo-Regular" font-size="33.0" fill="#3F82EE" transform="matrix(1.00, 0.00, -0.00, -1.00, 398.1, 366.0)"> </text><text xml:space="preserve" font-family="Menlo-Regular" font-size="33.0" fill="#3F82EE" transform="matrix(1.00, 0.00, -0.00, -1.00, 417.9, 366.0)">r</text><text xml:space="preserve" font-family="Menlo-Regular" font-size="33.0" fill="#3F82EE" transform="matrix(1.00, 0.00, -0.00, -1.00, 437.8, 366.0)">e</text><text xml:space="preserve" font-family="Menlo-Regular" font-size="33.0" fill="#3F82EE" transform="matrix(1.00, 0.00, -0.00, -1.00, 457.7, 366.0)">s</text><text xml:space="preserve" font-family="Menlo-Regular" font-size="33.0" fill="#3F82EE" transform="matrix(1.00, 0.00, -0.00, -1.00, 477.5, 366.0)">.</text><text xml:space="preserve" font-family="Menlo-Regular" font-size="33.0" fill="#3F82EE" transform="matrix(1.00, 0.00, -0.00, -1.00, 497.4, 366.0)">b</text><text xml:space="preserve" font-family="Menlo-Regular" font-size="33.0" fill="#3F82EE" transform="matrix(1.00, 0.00, -0.00, -1.00, 517.3, 366.0)">o</text><text xml:space="preserve" font-family="Menlo-Regular" font-size="33.0" fill="#3F82EE" transform="matrix(1.00, 0.00, -0.00, -1.00, 537.2, 366.0)">d</text><text xml:space="preserve" font-family="Menlo-Regular" font-size="33.0" fill="#3F82EE" transform="matrix(1.00, 0.00, -0.00, -1.00, 557.0, 366.0)">y</text><text xml:space="preserve" font-family="Menlo-Regular" font-size="33.0" fill="#3F82EE" transform="matrix(1.00, 0.00, -0.00, -1.00, 576.9, 366.0)">)</text><text xml:space="preserve" font-family="Menlo-Regular" font-size="33.0" fill="#3F82EE" transform="matrix(1.00, 0.00, -0.00, -1.00, 596.8, 366.0)">;</text><text xml:space="preserve" font-family="Menlo-Regular" font-size="33.0" fill="#3F82EE" transform="matrix(1.00, 0.00, -0.00, -1.00, 616.6, 366.0)"> </text><text xml:space="preserve" font-family="Menlo-Regular" font-size="33.0" fill="#373840" transform="matrix(1.00, 0.00, -0.00, -1.00, 100.0, 315.0)"> </text><text xml:space="preserve" font-family="Menlo-Regular" font-size="33.0" fill="#373840" transform="matrix(1.00, 0.00, -0.00, -1.00, 119.9, 315.0)"> </text><text xml:space="preserve" font-family="Menlo-Regular" font-size="33.0" fill="#373840" transform="matrix(1.00, 0.00, -0.00, -1.00, 139.7, 315.0)">c</text><text xml:space="preserve" font-family="Menlo-Regular" font-size="33.0" fill="#373840" transform="matrix(1.00, 0.00, -0.00, -1.00, 159.6, 315.0)">o</text><text xml:space="preserve" font-family="Menlo-Regular" font-size="33.0" fill="#373840" transform="matrix(1.00, 0.00, -0.00, -1.00, 179.5, 315.0)">n</text><text xml:space="preserve" font-family="Menlo-Regular" font-size="33.0" fill="#373840" transform="matrix(1.00, 0.00, -0.00, -1.00, 199.4, 315.0)">s</text><text xml:space="preserve" font-family="Menlo-Regular" font-size="33.0" fill="#373840" transform="matrix(1.00, 0.00, -0.00, -1.00, 219.2, 315.0)">t</text><text xml:space="preserve" font-family="Menlo-Regular" font-size="33.0" fill="#373840" transform="matrix(1.00, 0.00, -0.00, -1.00, 239.1, 315.0)"> </text><text xml:space="preserve" font-family="Menlo-Regular" font-size="33.0" fill="#373840" transform="matrix(1.00, 0.00, -0.00, -1.00, 259.0, 315.0)">r</text><text xml:space="preserve" font-family="Menlo-Regular" font-size="33.0" fill="#373840" transform="matrix(1.00, 0.00, -0.00, -1.00, 278.8, 315.0)">e</text><text xml:space="preserve" font-family="Menlo-Regular" font-size="33.0" fill="#373840" transform="matrix(1.00, 0.00, -0.00, -1.00, 298.7, 315.0)">q</text><text xml:space="preserve" font-family="Menlo-Regular" font-size="33.0" fill="#373840" transform="matrix(1.00, 0.00, -0.00, -1.00, 318.6, 315.0)">u</text><text xml:space="preserve" font-family="Menlo-Regular" font-size="33.0" fill="#373840" transform="matrix(1.00, 0.00, -0.00, -1.00, 338.5, 315.0)">e</text><text xml:space="preserve" font-family="Menlo-Regular" font-size="33.0" fill="#373840" transform="matrix(1.00, 0.00, -0.00, -1.00, 358.3, 315.0)">s</text><text xml:space="preserve" font-family="Menlo-Regular" font-size="33.0" fill="#373840" transform="matrix(1.00, 0.00, -0.00, -1.00, 378.2, 315.0)">t</text><text xml:space="preserve" font-family="Menlo-Regular" font-size="33.0" fill="#373840" transform="matrix(1.00, 0.00, -0.00, -1.00, 398.1, 315.0)">$</text><text xml:space="preserve" font-family="Menlo-Regular" font-size="33.0" fill="#373840" transform="matrix(1.00, 0.00, -0.00, -1.00, 417.9, 315.0)"> </text><text xml:space="preserve" font-family="Menlo-Regular" font-size="33.0" fill="#373840" transform="matrix(1.00, 0.00, -0.00, -1.00, 437.8, 315.0)">=</text><text xml:space="preserve" font-family="Menlo-Regular" font-size="33.0" fill="#373840" transform="matrix(1.00, 0.00, -0.00, -1.00, 457.7, 315.0)"> </text><text xml:space="preserve" font-family="Menlo-Regular" font-size="33.0" fill="#373840" transform="matrix(1.00, 0.00, -0.00, -1.00, 477.5, 315.0)">O</text><text xml:space="preserve" font-family="Menlo-Regular" font-size="33.0" fill="#373840" transform="matrix(1.00, 0.00, -0.00, -1.00, 497.4, 315.0)">b</text><text xml:space="preserve" font-family="Menlo-Regular" font-size="33.0" fill="#373840" transform="matrix(1.00, 0.00, -0.00, -1.00, 517.3, 315.0)">s</text><text xml:space="preserve" font-family="Menlo-Regular" font-size="33.0" fill="#373840" transform="matrix(1.00, 0.00, -0.00, -1.00, 537.2, 315.0)">e</text><text xml:space="preserve" font-family="Menlo-Regular" font-size="33.0" fill="#373840" transform="matrix(1.00, 0.00, -0.00, -1.00, 557.0, 315.0)">r</text><text xml:space="preserve" font-family="Menlo-Regular" font-size="33.0" fill="#373840" transform="matrix(1.00, 0.00, -0.00, -1.00, 576.9, 315.0)">v</text><text xml:space="preserve" font-family="Menlo-Regular" font-size="33.0" fill="#373840" transform="matrix(1.00, 0.00, -0.00, -1.00, 596.8, 315.0)">a</text><text xml:space="preserve" font-family="Menlo-Regular" font-size="33.0" fill="#373840" transform="matrix(1.00, 0.00, -0.00, -1.00, 616.6, 315.0)">b</text><text xml:space="preserve" font-family="Menlo-Regular" font-size="33.0" fill="#373840" transform="matrix(1.00, 0.00, -0.00, -1.00, 636.5, 315.0)">l</text><text xml:space="preserve" font-family="Menlo-Regular" font-size="33.0" fill="#373840" transform="matrix(1.00, 0.00, -0.00, -1.00, 656.4, 315.0)">e</text><text xml:space="preserve" font-family="Menlo-Regular" font-size="33.0" fill="#373840" transform="matrix(1.00, 0.00, -0.00, -1.00, 676.3, 315.0)">.</text><text xml:space="preserve" font-family="Menlo-Regular" font-size="33.0" fill="#373840" transform="matrix(1.00, 0.00, -0.00, -1.00, 696.1, 315.0)">o</text><text xml:space="preserve" font-family="Menlo-Regular" font-size="33.0" fill="#373840" transform="matrix(1.00, 0.00, -0.00, -1.00, 716.0, 315.0)">f</text><text xml:space="preserve" font-family="Menlo-Regular" font-size="33.0" fill="#373840" transform="matrix(1.00, 0.00, -0.00, -1.00, 735.9, 315.0)">(</text><text xml:space="preserve" font-family="Menlo-Regular" font-size="33.0" fill="#373840" transform="matrix(1.00, 0.00, -0.00, -1.00, 755.7, 315.0)">{</text><text xml:space="preserve" font-family="Menlo-Regular" font-size="33.0" fill="#373840" transform="matrix(1.00, 0.00, -0.00, -1.00, 775.6, 315.0)"> </text><text xml:space="preserve" font-family="Menlo-Regular" font-size="33.0" fill="#373840" transform="matrix(1.00, 0.00, -0.00, -1.00, 100.0, 265.0)"> </text><text xml:space="preserve" font-family="Menlo-Regular" font-size="33.0" fill="#373840" transform="matrix(1.00, 0.00, -0.00, -1.00, 119.9, 265.0)"> </text><text xml:space="preserve" font-family="Menlo-Regular" font-size="33.0" fill="#373840" transform="matrix(1.00, 0.00, -0.00, -1.00, 139.7, 265.0)"> </text><text xml:space="preserve" font-family="Menlo-Regular" font-size="33.0" fill="#373840" transform="matrix(1.00, 0.00, -0.00, -1.00, 159.6, 265.0)"> </text><text xml:space="preserve" font-family="Menlo-Regular" font-size="33.0" fill="#373840" transform="matrix(1.00, 0.00, -0.00, -1.00, 179.5, 265.0)">u</text><text xml:space="preserve" font-family="Menlo-Regular" font-size="33.0" fill="#373840" transform="matrix(1.00, 0.00, -0.00, -1.00, 199.4, 265.0)">r</text><text xml:space="preserve" font-family="Menlo-Regular" font-size="33.0" fill="#373840" transform="matrix(1.00, 0.00, -0.00, -1.00, 219.2, 265.0)">l</text><text xml:space="preserve" font-family="Menlo-Regular" font-size="33.0" fill="#373840" transform="matrix(1.00, 0.00, -0.00, -1.00, 239.1, 265.0)">:</text><text xml:space="preserve" font-family="Menlo-Regular" font-size="33.0" fill="#373840" transform="matrix(1.00, 0.00, -0.00, -1.00, 259.0, 265.0)"> </text><text xml:space="preserve" font-family="Menlo-Regular" font-size="33.0" fill="#373840" transform="matrix(1.00, 0.00, -0.00, -1.00, 278.8, 265.0)">'</text><text xml:space="preserve" font-family="Menlo-Regular" font-size="33.0" fill="#373840" transform="matrix(1.00, 0.00, -0.00, -1.00, 298.7, 265.0)">h</text><text xml:space="preserve" font-family="Menlo-Regular" font-size="33.0" fill="#373840" transform="matrix(1.00, 0.00, -0.00, -1.00, 318.5, 265.0)">t</text><text xml:space="preserve" font-family="Menlo-Regular" font-size="33.0" fill="#373840" transform="matrix(1.00, 0.00, -0.00, -1.00, 338.4, 265.0)">t</text><text xml:space="preserve" font-family="Menlo-Regular" font-size="33.0" fill="#373840" transform="matrix(1.00, 0.00, -0.00, -1.00, 358.3, 265.0)">p</text><text xml:space="preserve" font-family="Menlo-Regular" font-size="33.0" fill="#373840" transform="matrix(1.00, 0.00, -0.00, -1.00, 378.2, 265.0)">:</text><text xml:space="preserve" font-family="Menlo-Regular" font-size="33.0" fill="#373840" transform="matrix(1.00, 0.00, -0.00, -1.00, 398.0, 265.0)">/</text><text xml:space="preserve" font-family="Menlo-Regular" font-size="33.0" fill="#373840" transform="matrix(1.00, 0.00, -0.00, -1.00, 417.9, 265.0)">/</text><text xml:space="preserve" font-family="Menlo-Regular" font-size="33.0" fill="#373840" transform="matrix(1.00, 0.00, -0.00, -1.00, 437.8, 265.0)">a</text><text xml:space="preserve" font-family="Menlo-Regular" font-size="33.0" fill="#373840" transform="matrix(1.00, 0.00, -0.00, -1.00, 457.6, 265.0)">p</text><text xml:space="preserve" font-family="Menlo-Regular" font-size="33.0" fill="#373840" transform="matrix(1.00, 0.00, -0.00, -1.00, 477.5, 265.0)">i</text><text xml:space="preserve" font-family="Menlo-Regular" font-size="33.0" fill="#373840" transform="matrix(1.00, 0.00, -0.00, -1.00, 497.4, 265.0)">.</text><text xml:space="preserve" font-family="Menlo-Regular" font-size="33.0" fill="#373840" transform="matrix(1.00, 0.00, -0.00, -1.00, 517.3, 265.0)">g</text><text xml:space="preserve" font-family="Menlo-Regular" font-size="33.0" fill="#373840" transform="matrix(1.00, 0.00, -0.00, -1.00, 537.1, 265.0)">i</text><text xml:space="preserve" font-family="Menlo-Regular" font-size="33.0" fill="#373840" transform="matrix(1.00, 0.00, -0.00, -1.00, 557.0, 265.0)">t</text><text xml:space="preserve" font-family="Menlo-Regular" font-size="33.0" fill="#373840" transform="matrix(1.00, 0.00, -0.00, -1.00, 576.9, 265.0)">h</text><text xml:space="preserve" font-family="Menlo-Regular" font-size="33.0" fill="#373840" transform="matrix(1.00, 0.00, -0.00, -1.00, 596.7, 265.0)">u</text><text xml:space="preserve" font-family="Menlo-Regular" font-size="33.0" fill="#373840" transform="matrix(1.00, 0.00, -0.00, -1.00, 616.6, 265.0)">b</text><text xml:space="preserve" font-family="Menlo-Regular" font-size="33.0" fill="#373840" transform="matrix(1.00, 0.00, -0.00, -1.00, 636.5, 265.0)">.</text><text xml:space="preserve" font-family="Menlo-Regular" font-size="33.0" fill="#373840" transform="matrix(1.00, 0.00, -0.00, -1.00, 656.4, 265.0)">c</text><text xml:space="preserve" font-family="Menlo-Regular" font-size="33.0" fill="#373840" transform="matrix(1.00, 0.00, -0.00, -1.00, 676.2, 265.0)">o</text><text xml:space="preserve" font-family="Menlo-Regular" font-size="33.0" fill="#373840" transform="matrix(1.00, 0.00, -0.00, -1.00, 696.1, 265.0)">m</text><text xml:space="preserve" font-family="Menlo-Regular" font-size="33.0" fill="#373840" transform="matrix(1.00, 0.00, -0.00, -1.00, 716.0, 265.0)">/</text><text xml:space="preserve" font-family="Menlo-Regular" font-size="33.0" fill="#373840" transform="matrix(1.00, 0.00, -0.00, -1.00, 735.8, 265.0)">f</text><text xml:space="preserve" font-family="Menlo-Regular" font-size="33.0" fill="#373840" transform="matrix(1.00, 0.00, -0.00, -1.00, 755.7, 265.0)">o</text><text xml:space="preserve" font-family="Menlo-Regular" font-size="33.0" fill="#373840" transform="matrix(1.00, 0.00, -0.00, -1.00, 775.6, 265.0)">o</text><text xml:space="preserve" font-family="Menlo-Regular" font-size="33.0" fill="#373840" transform="matrix(1.00, 0.00, -0.00, -1.00, 795.5, 265.0)">/</text><text xml:space="preserve" font-family="Menlo-Regular" font-size="33.0" fill="#373840" transform="matrix(1.00, 0.00, -0.00, -1.00, 815.3, 265.0)">b</text><text xml:space="preserve" font-family="Menlo-Regular" font-size="33.0" fill="#373840" transform="matrix(1.00, 0.00, -0.00, -1.00, 835.2, 265.0)">a</text><text xml:space="preserve" font-family="Menlo-Regular" font-size="33.0" fill="#373840" transform="matrix(1.00, 0.00, -0.00, -1.00, 855.1, 265.0)">r</text><text xml:space="preserve" font-family="Menlo-Regular" font-size="33.0" fill="#373840" transform="matrix(1.00, 0.00, -0.00, -1.00, 874.9, 265.0)">'</text><text xml:space="preserve" font-family="Menlo-Regular" font-size="33.0" fill="#373840" transform="matrix(1.00, 0.00, -0.00, -1.00, 894.7, 265.0)"> </text><g><clipPath id="clip-110"><path d="M 297.4 260.8 L 894.5 260.8 L 894.5 264.2 L 297.4 264.2 Z M 297.4 260.8 "></path></clipPath><g clip-path="url(#clip-110)"><path d="M 202.7 290.8 L 798.7 290.8 " fill="none" stroke="#373840" stroke-width="1.45" stroke-miterlimit="0.00" transform="matrix(1.00, 0.00, 0.00, -1.00, 95.8, 553.3)"></path></g></g><text xml:space="preserve" font-family="Menlo-Regular" font-size="33.0" fill="#373840" transform="matrix(1.00, 0.00, -0.00, -1.00, 100.0, 214.0)"> </text><text xml:space="preserve" font-family="Menlo-Regular" font-size="33.0" fill="#373840" transform="matrix(1.00, 0.00, -0.00, -1.00, 119.9, 214.0)"> </text><text xml:space="preserve" font-family="Menlo-Regular" font-size="33.0" fill="#373840" transform="matrix(1.00, 0.00, -0.00, -1.00, 139.7, 214.0)">}</text><text xml:space="preserve" font-family="Menlo-Regular" font-size="33.0" fill="#373840" transform="matrix(1.00, 0.00, -0.00, -1.00, 159.6, 214.0)">)</text><text xml:space="preserve" font-family="Menlo-Regular" font-size="33.0" fill="#373840" transform="matrix(1.00, 0.00, -0.00, -1.00, 179.5, 214.0)">;</text><text xml:space="preserve" font-family="Menlo-Regular" font-size="33.0" fill="#373840" transform="matrix(1.00, 0.00, -0.00, -1.00, 199.4, 214.0)"> </text><text xml:space="preserve" font-family="Menlo-Regular" font-size="33.0" fill="#373840" transform="matrix(1.00, 0.00, -0.00, -1.00, 100.0, 163.0)"> </text><text xml:space="preserve" font-family="Menlo-Regular" font-size="33.0" fill="#373840" transform="matrix(1.00, 0.00, -0.00, -1.00, 119.9, 163.0)"> </text><text xml:space="preserve" font-family="Menlo-Regular" font-size="33.0" fill="#373840" transform="matrix(1.00, 0.00, -0.00, -1.00, 139.7, 163.0)">r</text><text xml:space="preserve" font-family="Menlo-Regular" font-size="33.0" fill="#373840" transform="matrix(1.00, 0.00, -0.00, -1.00, 159.6, 163.0)">e</text><text xml:space="preserve" font-family="Menlo-Regular" font-size="33.0" fill="#373840" transform="matrix(1.00, 0.00, -0.00, -1.00, 179.5, 163.0)">t</text><text xml:space="preserve" font-family="Menlo-Regular" font-size="33.0" fill="#373840" transform="matrix(1.00, 0.00, -0.00, -1.00, 199.4, 163.0)">u</text><text xml:space="preserve" font-family="Menlo-Regular" font-size="33.0" fill="#373840" transform="matrix(1.00, 0.00, -0.00, -1.00, 219.2, 163.0)">r</text><text xml:space="preserve" font-family="Menlo-Regular" font-size="33.0" fill="#373840" transform="matrix(1.00, 0.00, -0.00, -1.00, 239.1, 163.0)">n</text><text xml:space="preserve" font-family="Menlo-Regular" font-size="33.0" fill="#373840" transform="matrix(1.00, 0.00, -0.00, -1.00, 259.0, 163.0)"> </text><text xml:space="preserve" font-family="Menlo-Regular" font-size="33.0" fill="#373840" transform="matrix(1.00, 0.00, -0.00, -1.00, 278.8, 163.0)">{</text><text xml:space="preserve" font-family="Menlo-Regular" font-size="33.0" fill="#373840" transform="matrix(1.00, 0.00, -0.00, -1.00, 298.7, 163.0)"> </text><text xml:space="preserve" font-family="Menlo-Regular" font-size="33.0" fill="#373840" transform="matrix(1.00, 0.00, -0.00, -1.00, 318.6, 163.0)">H</text><text xml:space="preserve" font-family="Menlo-Regular" font-size="33.0" fill="#373840" transform="matrix(1.00, 0.00, -0.00, -1.00, 338.5, 163.0)">T</text><text xml:space="preserve" font-family="Menlo-Regular" font-size="33.0" fill="#373840" transform="matrix(1.00, 0.00, -0.00, -1.00, 358.3, 163.0)">T</text><text xml:space="preserve" font-family="Menlo-Regular" font-size="33.0" fill="#373840" transform="matrix(1.00, 0.00, -0.00, -1.00, 378.2, 163.0)">P</text><text xml:space="preserve" font-family="Menlo-Regular" font-size="33.0" fill="#373840" transform="matrix(1.00, 0.00, -0.00, -1.00, 398.1, 163.0)">:</text><text xml:space="preserve" font-family="Menlo-Regular" font-size="33.0" fill="#373840" transform="matrix(1.00, 0.00, -0.00, -1.00, 417.9, 163.0)"> </text><text xml:space="preserve" font-family="Menlo-Regular" font-size="33.0" fill="#373840" transform="matrix(1.00, 0.00, -0.00, -1.00, 437.8, 163.0)">r</text><text xml:space="preserve" font-family="Menlo-Regular" font-size="33.0" fill="#373840" transform="matrix(1.00, 0.00, -0.00, -1.00, 457.7, 163.0)">e</text><text xml:space="preserve" font-family="Menlo-Regular" font-size="33.0" fill="#373840" transform="matrix(1.00, 0.00, -0.00, -1.00, 477.5, 163.0)">q</text><text xml:space="preserve" font-family="Menlo-Regular" font-size="33.0" fill="#373840" transform="matrix(1.00, 0.00, -0.00, -1.00, 497.4, 163.0)">u</text><text xml:space="preserve" font-family="Menlo-Regular" font-size="33.0" fill="#373840" transform="matrix(1.00, 0.00, -0.00, -1.00, 517.3, 163.0)">e</text><text xml:space="preserve" font-family="Menlo-Regular" font-size="33.0" fill="#373840" transform="matrix(1.00, 0.00, -0.00, -1.00, 537.2, 163.0)">s</text><text xml:space="preserve" font-family="Menlo-Regular" font-size="33.0" fill="#373840" transform="matrix(1.00, 0.00, -0.00, -1.00, 557.0, 163.0)">t</text><text xml:space="preserve" font-family="Menlo-Regular" font-size="33.0" fill="#373840" transform="matrix(1.00, 0.00, -0.00, -1.00, 576.9, 163.0)">$</text><text xml:space="preserve" font-family="Menlo-Regular" font-size="33.0" fill="#373840" transform="matrix(1.00, 0.00, -0.00, -1.00, 596.8, 163.0)"> </text><text xml:space="preserve" font-family="Menlo-Regular" font-size="33.0" fill="#373840" transform="matrix(1.00, 0.00, -0.00, -1.00, 616.6, 163.0)">}</text><text xml:space="preserve" font-family="Menlo-Regular" font-size="33.0" fill="#373840" transform="matrix(1.00, 0.00, -0.00, -1.00, 636.5, 163.0)">;</text><text xml:space="preserve" font-family="Menlo-Regular" font-size="33.0" fill="#373840" transform="matrix(1.00, 0.00, -0.00, -1.00, 656.4, 163.0)"> </text><text xml:space="preserve" font-family="Menlo-Regular" font-size="33.0" fill="#373840" transform="matrix(1.00, 0.00, -0.00, -1.00, 100.0, 112.0)">}</text></g></svg>