<?xml version="1.0" encoding="UTF-8" standalone="no"?><svg xmlns="http://www.w3.org/2000/svg" xmlns:xlink="http://www.w3.org/1999/xlink" clip-rule="evenodd" stroke-miterlimit="4.00" viewBox="0 0 1024 768"><desc>SVG generated by Keynote</desc><defs></defs><g transform="matrix(1.00, 0.00, -0.00, -1.00, 0.0, 768.0)"><path d="M 0.0 768.0 L 1024.0 768.0 L 1024.0 0.0 L 0.0 0.0 Z M 0.0 768.0 " fill="#FAFAFA"></path><text xml:space="preserve" font-family="Menlo-Regular" font-size="40.0" fill="#373840" transform="matrix(1.00, 0.00, -0.00, -1.00, 139.0, 485.0)">N</text><text xml:space="preserve" font-family="Menlo-Regular" font-size="40.0" fill="#373840" transform="matrix(1.00, 0.00, -0.00, -1.00, 163.1, 485.0)">o</text><text xml:space="preserve" font-family="Menlo-Regular" font-size="40.0" fill="#373840" transform="matrix(1.00, 0.00, -0.00, -1.00, 187.2, 485.0)">t</text><text xml:space="preserve" font-family="Menlo-Regular" font-size="40.0" fill="#373840" transform="matrix(1.00, 0.00, -0.00, -1.00, 211.3, 485.0)">i</text><text xml:space="preserve" font-family="Menlo-Regular" font-size="40.0" fill="#373840" transform="matrix(1.00, 0.00, -0.00, -1.00, 235.3, 485.0)">c</text><text xml:space="preserve" font-family="Menlo-Regular" font-size="40.0" fill="#373840" transform="matrix(1.00, 0.00, -0.00, -1.00, 259.4, 485.0)">e</text><text xml:space="preserve" font-family="Menlo-Regular" font-size="40.0" fill="#373840" transform="matrix(1.00, 0.00, -0.00, -1.00, 283.5, 485.0)"> </text><text xml:space="preserve" font-family="Menlo-Regular" font-size="40.0" fill="#373840" transform="matrix(1.00, 0.00, -0.00, -1.00, 307.6, 485.0)">h</text><text xml:space="preserve" font-family="Menlo-Regular" font-size="40.0" fill="#373840" transform="matrix(1.00, 0.00, -0.00, -1.00, 331.7, 485.0)">o</text><text xml:space="preserve" font-family="Menlo-Regular" font-size="40.0" fill="#373840" transform="matrix(1.00, 0.00, -0.00, -1.00, 355.8, 485.0)">w</text><text xml:space="preserve" font-family="Menlo-Regular" font-size="40.0" fill="#373840" transform="matrix(1.00, 0.00, -0.00, -1.00, 379.9, 485.0)"> </text><text xml:space="preserve" font-family="Menlo-Regular" font-size="40.0" fill="#373840" transform="matrix(1.00, 0.00, -0.00, -1.00, 403.9, 485.0)">w</text><text xml:space="preserve" font-family="Menlo-Regular" font-size="40.0" fill="#373840" transform="matrix(1.00, 0.00, -0.00, -1.00, 428.0, 485.0)">e</text><text xml:space="preserve" font-family="Menlo-Regular" font-size="40.0" fill="#373840" transform="matrix(1.00, 0.00, -0.00, -1.00, 452.1, 485.0)"> </text><text xml:space="preserve" font-family="Menlo-Regular" font-size="40.0" fill="#373840" transform="matrix(1.00, 0.00, -0.00, -1.00, 476.2, 485.0)">p</text><text xml:space="preserve" font-family="Menlo-Regular" font-size="40.0" fill="#373840" transform="matrix(1.00, 0.00, -0.00, -1.00, 500.3, 485.0)">e</text><text xml:space="preserve" font-family="Menlo-Regular" font-size="40.0" fill="#373840" transform="matrix(1.00, 0.00, -0.00, -1.00, 524.4, 485.0)">r</text><text xml:space="preserve" font-family="Menlo-Regular" font-size="40.0" fill="#373840" transform="matrix(1.00, 0.00, -0.00, -1.00, 548.5, 485.0)">f</text><text xml:space="preserve" font-family="Menlo-Regular" font-size="40.0" fill="#373840" transform="matrix(1.00, 0.00, -0.00, -1.00, 572.5, 485.0)">o</text><text xml:space="preserve" font-family="Menlo-Regular" font-size="40.0" fill="#373840" transform="matrix(1.00, 0.00, -0.00, -1.00, 596.6, 485.0)">r</text><text xml:space="preserve" font-family="Menlo-Regular" font-size="40.0" fill="#373840" transform="matrix(1.00, 0.00, -0.00, -1.00, 620.7, 485.0)">m</text><text xml:space="preserve" font-family="Menlo-Regular" font-size="40.0" fill="#373840" transform="matrix(1.00, 0.00, -0.00, -1.00, 644.8, 485.0)">e</text><text xml:space="preserve" font-family="Menlo-Regular" font-size="40.0" fill="#373840" transform="matrix(1.00, 0.00, -0.00, -1.00, 668.9, 485.0)">d</text><text xml:space="preserve" font-family="Menlo-Regular" font-size="40.0" fill="#373840" transform="matrix(1.00, 0.00, -0.00, -1.00, 693.0, 485.0)"> </text><text xml:space="preserve" font-family="Menlo-Regular" font-size="40.0" fill="#373840" transform="matrix(1.00, 0.00, -0.00, -1.00, 717.1, 485.0)">a</text><text xml:space="preserve" font-family="Menlo-Regular" font-size="40.0" fill="#373840" transform="matrix(1.00, 0.00, -0.00, -1.00, 741.2, 485.0)">n</text><text xml:space="preserve" font-family="Menlo-Regular" font-size="40.0" fill="#373840" transform="matrix(1.00, 0.00, -0.00, -1.00, 765.2, 485.0)"> </text><text xml:space="preserve" font-family="Menlo-Regular" font-size="40.0" fill="#373840" transform="matrix(1.00, 0.00, -0.00, -1.00, 789.3, 485.0)">H</text><text xml:space="preserve" font-family="Menlo-Regular" font-size="40.0" fill="#373840" transform="matrix(1.00, 0.00, -0.00, -1.00, 813.4, 485.0)">T</text><text xml:space="preserve" font-family="Menlo-Regular" font-size="40.0" fill="#373840" transform="matrix(1.00, 0.00, -0.00, -1.00, 837.5, 485.0)">T</text><text xml:space="preserve" font-family="Menlo-Regular" font-size="40.0" fill="#373840" transform="matrix(1.00, 0.00, -0.00, -1.00, 861.6, 485.0)">P</text><text xml:space="preserve" font-family="Menlo-Regular" font-size="40.0" fill="#373840" transform="matrix(1.00, 0.00, -0.00, -1.00, 885.7, 485.0)"> </text><text xml:space="preserve" font-family="Menlo-Regular" font-size="40.0" fill="#373840" transform="matrix(1.00, 0.00, -0.00, -1.00, 139.0, 439.0)">r</text><text xml:space="preserve" font-family="Menlo-Regular" font-size="40.0" fill="#373840" transform="matrix(1.00, 0.00, -0.00, -1.00, 163.1, 439.0)">e</text><text xml:space="preserve" font-family="Menlo-Regular" font-size="40.0" fill="#373840" transform="matrix(1.00, 0.00, -0.00, -1.00, 187.2, 439.0)">q</text><text xml:space="preserve" font-family="Menlo-Regular" font-size="40.0" fill="#373840" transform="matrix(1.00, 0.00, -0.00, -1.00, 211.3, 439.0)">u</text><text xml:space="preserve" font-family="Menlo-Regular" font-size="40.0" fill="#373840" transform="matrix(1.00, 0.00, -0.00, -1.00, 235.3, 439.0)">e</text><text xml:space="preserve" font-family="Menlo-Regular" font-size="40.0" fill="#373840" transform="matrix(1.00, 0.00, -0.00, -1.00, 259.4, 439.0)">s</text><text xml:space="preserve" font-family="Menlo-Regular" font-size="40.0" fill="#373840" transform="matrix(1.00, 0.00, -0.00, -1.00, 283.5, 439.0)">t</text><text xml:space="preserve" font-family="Menlo-Regular" font-size="40.0" fill="#373840" transform="matrix(1.00, 0.00, -0.00, -1.00, 307.6, 439.0)"> </text><text xml:space="preserve" font-family="Menlo-Regular" font-size="40.0" fill="#373840" transform="matrix(1.00, 0.00, -0.00, -1.00, 331.7, 439.0)">b</text><text xml:space="preserve" font-family="Menlo-Regular" font-size="40.0" fill="#373840" transform="matrix(1.00, 0.00, -0.00, -1.00, 355.8, 439.0)">y</text><text xml:space="preserve" font-family="Menlo-Regular" font-size="40.0" fill="#373840" transform="matrix(1.00, 0.00, -0.00, -1.00, 379.9, 439.0)"> </text><text xml:space="preserve" font-family="Menlo-Regular" font-size="40.0" fill="#373840" transform="matrix(1.00, 0.00, -0.00, -1.00, 403.9, 439.0)">o</text><text xml:space="preserve" font-family="Menlo-Regular" font-size="40.0" fill="#373840" transform="matrix(1.00, 0.00, -0.00, -1.00, 428.0, 439.0)">n</text><text xml:space="preserve" font-family="Menlo-Regular" font-size="40.0" fill="#373840" transform="matrix(1.00, 0.00, -0.00, -1.00, 452.1, 439.0)">l</text><text xml:space="preserve" font-family="Menlo-Regular" font-size="40.0" fill="#373840" transform="matrix(1.00, 0.00, -0.00, -1.00, 476.2, 439.0)">y</text><text xml:space="preserve" font-family="Menlo-Regular" font-size="40.0" fill="#373840" transform="matrix(1.00, 0.00, -0.00, -1.00, 500.3, 439.0)"> </text><text xml:space="preserve" font-family="Menlo-Italic" font-style="italic" font-size="40.0" fill="#373840" transform="matrix(1.00, 0.00, -0.00, -1.00, 524.3, 439.0)">s</text><text xml:space="preserve" font-family="Menlo-Italic" font-style="italic" font-size="40.0" fill="#373840" transform="matrix(1.00, 0.00, -0.00, -1.00, 548.4, 439.0)">p</text><text xml:space="preserve" font-family="Menlo-Italic" font-style="italic" font-size="40.0" fill="#373840" transform="matrix(1.00, 0.00, -0.00, -1.00, 572.5, 439.0)">e</text><text xml:space="preserve" font-family="Menlo-Italic" font-style="italic" font-size="40.0" fill="#373840" transform="matrix(1.00, 0.00, -0.00, -1.00, 596.6, 439.0)">c</text><text xml:space="preserve" font-family="Menlo-Italic" font-style="italic" font-size="40.0" fill="#373840" transform="matrix(1.00, 0.00, -0.00, -1.00, 620.7, 439.0)">i</text><text xml:space="preserve" font-family="Menlo-Italic" font-style="italic" font-size="40.0" fill="#373840" transform="matrix(1.00, 0.00, -0.00, -1.00, 644.7, 439.0)">f</text><text xml:space="preserve" font-family="Menlo-Italic" font-style="italic" font-size="40.0" fill="#373840" transform="matrix(1.00, 0.00, -0.00, -1.00, 668.8, 439.0)">y</text><text xml:space="preserve" font-family="Menlo-Italic" font-style="italic" font-size="40.0" fill="#373840" transform="matrix(1.00, 0.00, -0.00, -1.00, 692.9, 439.0)">i</text><text xml:space="preserve" font-family="Menlo-Italic" font-style="italic" font-size="40.0" fill="#373840" transform="matrix(1.00, 0.00, -0.00, -1.00, 717.0, 439.0)">n</text><text xml:space="preserve" font-family="Menlo-Italic" font-style="italic" font-size="40.0" fill="#373840" transform="matrix(1.00, 0.00, -0.00, -1.00, 741.1, 439.0)">g</text><text xml:space="preserve" font-family="Menlo-Regular" font-size="40.0" fill="#373840" transform="matrix(1.00, 0.00, -0.00, -1.00, 765.1, 439.0)"> </text><text xml:space="preserve" font-family="Menlo-Regular" font-size="40.0" fill="#373840" transform="matrix(1.00, 0.00, -0.00, -1.00, 789.2, 439.0)">w</text><text xml:space="preserve" font-family="Menlo-Regular" font-size="40.0" fill="#373840" transform="matrix(1.00, 0.00, -0.00, -1.00, 813.3, 439.0)">h</text><text xml:space="preserve" font-family="Menlo-Regular" font-size="40.0" fill="#373840" transform="matrix(1.00, 0.00, -0.00, -1.00, 837.4, 439.0)">a</text><text xml:space="preserve" font-family="Menlo-Regular" font-size="40.0" fill="#373840" transform="matrix(1.00, 0.00, -0.00, -1.00, 861.5, 439.0)">t</text><text xml:space="preserve" font-family="Menlo-Regular" font-size="40.0" fill="#373840" transform="matrix(1.00, 0.00, -0.00, -1.00, 885.6, 439.0)"> </text><g><clipPath id="clip-227"><path d="M 523.0 435.0 L 764.9 435.0 L 764.9 438.8 L 523.0 438.8 Z M 523.0 435.0 "></path></clipPath><g clip-path="url(#clip-227)"><path d="M 400.7 89.1 L 641.5 89.1 " fill="none" stroke="#373840" stroke-width="1.76" stroke-miterlimit="0.00" transform="matrix(1.00, 0.00, 0.00, -1.00, 123.3, 526.0)"></path></g></g><text xml:space="preserve" font-family="Menlo-Regular" font-size="40.0" fill="#373840" transform="matrix(1.00, 0.00, -0.00, -1.00, 295.0, 393.0)">w</text><text xml:space="preserve" font-family="Menlo-Regular" font-size="40.0" fill="#373840" transform="matrix(1.00, 0.00, -0.00, -1.00, 319.1, 393.0)">e</text><text xml:space="preserve" font-family="Menlo-Regular" font-size="40.0" fill="#373840" transform="matrix(1.00, 0.00, -0.00, -1.00, 343.2, 393.0)"> </text><text xml:space="preserve" font-family="Menlo-Regular" font-size="40.0" fill="#373840" transform="matrix(1.00, 0.00, -0.00, -1.00, 367.3, 393.0)">i</text><text xml:space="preserve" font-family="Menlo-Regular" font-size="40.0" fill="#373840" transform="matrix(1.00, 0.00, -0.00, -1.00, 391.3, 393.0)">n</text><text xml:space="preserve" font-family="Menlo-Regular" font-size="40.0" fill="#373840" transform="matrix(1.00, 0.00, -0.00, -1.00, 415.4, 393.0)">t</text><text xml:space="preserve" font-family="Menlo-Regular" font-size="40.0" fill="#373840" transform="matrix(1.00, 0.00, -0.00, -1.00, 439.5, 393.0)">e</text><text xml:space="preserve" font-family="Menlo-Regular" font-size="40.0" fill="#373840" transform="matrix(1.00, 0.00, -0.00, -1.00, 463.6, 393.0)">n</text><text xml:space="preserve" font-family="Menlo-Regular" font-size="40.0" fill="#373840" transform="matrix(1.00, 0.00, -0.00, -1.00, 487.7, 393.0)">d</text><text xml:space="preserve" font-family="Menlo-Regular" font-size="40.0" fill="#373840" transform="matrix(1.00, 0.00, -0.00, -1.00, 511.8, 393.0)">e</text><text xml:space="preserve" font-family="Menlo-Regular" font-size="40.0" fill="#373840" transform="matrix(1.00, 0.00, -0.00, -1.00, 535.9, 393.0)">d</text><text xml:space="preserve" font-family="Menlo-Regular" font-size="40.0" fill="#373840" transform="matrix(1.00, 0.00, -0.00, -1.00, 559.9, 393.0)"> </text><text xml:space="preserve" font-family="Menlo-Regular" font-size="40.0" fill="#373840" transform="matrix(1.00, 0.00, -0.00, -1.00, 584.0, 393.0)">t</text><text xml:space="preserve" font-family="Menlo-Regular" font-size="40.0" fill="#373840" transform="matrix(1.00, 0.00, -0.00, -1.00, 608.1, 393.0)">o</text><text xml:space="preserve" font-family="Menlo-Regular" font-size="40.0" fill="#373840" transform="matrix(1.00, 0.00, -0.00, -1.00, 632.2, 393.0)"> </text><text xml:space="preserve" font-family="Menlo-Regular" font-size="40.0" fill="#373840" transform="matrix(1.00, 0.00, -0.00, -1.00, 656.3, 393.0)">d</text><text xml:space="preserve" font-family="Menlo-Regular" font-size="40.0" fill="#373840" transform="matrix(1.00, 0.00, -0.00, -1.00, 680.4, 393.0)">o</text><text xml:space="preserve" font-family="Menlo-Regular" font-size="40.0" fill="#373840" transform="matrix(1.00, 0.00, -0.00, -1.00, 704.5, 393.0)">.</text><text xml:space="preserve" font-family="Menlo-Regular" font-size="40.0" fill="#373840" transform="matrix(1.00, 0.00, -0.00, -1.00, 728.5, 393.0)"> </text><text xml:space="preserve" font-family="Menlo-Regular" font-size="40.0" fill="#373840" transform="matrix(1.00, 0.00, -0.00, -1.00, 139.0, 301.0)">T</text><text xml:space="preserve" font-family="Menlo-Regular" font-size="40.0" fill="#373840" transform="matrix(1.00, 0.00, -0.00, -1.00, 163.1, 301.0)">h</text><text xml:space="preserve" font-family="Menlo-Regular" font-size="40.0" fill="#373840" transform="matrix(1.00, 0.00, -0.00, -1.00, 187.2, 301.0)">e</text><text xml:space="preserve" font-family="Menlo-Regular" font-size="40.0" fill="#373840" transform="matrix(1.00, 0.00, -0.00, -1.00, 211.3, 301.0)">n</text><text xml:space="preserve" font-family="Menlo-Regular" font-size="40.0" fill="#373840" transform="matrix(1.00, 0.00, -0.00, -1.00, 235.3, 301.0)">,</text><text xml:space="preserve" font-family="Menlo-Regular" font-size="40.0" fill="#373840" transform="matrix(1.00, 0.00, -0.00, -1.00, 259.4, 301.0)"> </text><text xml:space="preserve" font-family="Menlo-Regular" font-size="40.0" fill="#373840" transform="matrix(1.00, 0.00, -0.00, -1.00, 283.5, 301.0)">s</text><text xml:space="preserve" font-family="Menlo-Italic" font-style="italic" font-size="40.0" fill="#373840" transform="matrix(1.00, 0.00, -0.00, -1.00, 307.6, 301.0)">i</text><text xml:space="preserve" font-family="Menlo-Italic" font-style="italic" font-size="40.0" fill="#373840" transform="matrix(1.00, 0.00, -0.00, -1.00, 331.7, 301.0)">d</text><text xml:space="preserve" font-family="Menlo-Italic" font-style="italic" font-size="40.0" fill="#373840" transform="matrix(1.00, 0.00, -0.00, -1.00, 355.7, 301.0)">e</text><text xml:space="preserve" font-family="Menlo-Italic" font-style="italic" font-size="40.0" fill="#373840" transform="matrix(1.00, 0.00, -0.00, -1.00, 379.8, 301.0)"> </text><text xml:space="preserve" font-family="Menlo-Italic" font-style="italic" font-size="40.0" fill="#373840" transform="matrix(1.00, 0.00, -0.00, -1.00, 403.9, 301.0)">e</text><text xml:space="preserve" font-family="Menlo-Italic" font-style="italic" font-size="40.0" fill="#373840" transform="matrix(1.00, 0.00, -0.00, -1.00, 428.0, 301.0)">f</text><text xml:space="preserve" font-family="Menlo-Italic" font-style="italic" font-size="40.0" fill="#373840" transform="matrix(1.00, 0.00, -0.00, -1.00, 452.1, 301.0)">f</text><text xml:space="preserve" font-family="Menlo-Italic" font-style="italic" font-size="40.0" fill="#373840" transform="matrix(1.00, 0.00, -0.00, -1.00, 476.2, 301.0)">e</text><text xml:space="preserve" font-family="Menlo-Italic" font-style="italic" font-size="40.0" fill="#373840" transform="matrix(1.00, 0.00, -0.00, -1.00, 500.3, 301.0)">c</text><text xml:space="preserve" font-family="Menlo-Italic" font-style="italic" font-size="40.0" fill="#373840" transform="matrix(1.00, 0.00, -0.00, -1.00, 524.3, 301.0)">t</text><text xml:space="preserve" font-family="Menlo-Italic" font-style="italic" font-size="40.0" fill="#373840" transform="matrix(1.00, 0.00, -0.00, -1.00, 548.4, 301.0)">s</text><text xml:space="preserve" font-family="Menlo-Regular" font-size="40.0" fill="#373840" transform="matrix(1.00, 0.00, -0.00, -1.00, 572.5, 301.0)"> </text><text xml:space="preserve" font-family="Menlo-Regular" font-size="40.0" fill="#373840" transform="matrix(1.00, 0.00, -0.00, -1.00, 596.6, 301.0)">a</text><text xml:space="preserve" font-family="Menlo-Regular" font-size="40.0" fill="#373840" transform="matrix(1.00, 0.00, -0.00, -1.00, 620.6, 301.0)">c</text><text xml:space="preserve" font-family="Menlo-Regular" font-size="40.0" fill="#373840" transform="matrix(1.00, 0.00, -0.00, -1.00, 644.7, 301.0)">t</text><text xml:space="preserve" font-family="Menlo-Regular" font-size="40.0" fill="#373840" transform="matrix(1.00, 0.00, -0.00, -1.00, 668.8, 301.0)">u</text><text xml:space="preserve" font-family="Menlo-Regular" font-size="40.0" fill="#373840" transform="matrix(1.00, 0.00, -0.00, -1.00, 692.9, 301.0)">a</text><text xml:space="preserve" font-family="Menlo-Regular" font-size="40.0" fill="#373840" transform="matrix(1.00, 0.00, -0.00, -1.00, 717.0, 301.0)">l</text><text xml:space="preserve" font-family="Menlo-Regular" font-size="40.0" fill="#373840" transform="matrix(1.00, 0.00, -0.00, -1.00, 741.1, 301.0)">l</text><text xml:space="preserve" font-family="Menlo-Regular" font-size="40.0" fill="#373840" transform="matrix(1.00, 0.00, -0.00, -1.00, 765.2, 301.0)">y</text><text xml:space="preserve" font-family="Menlo-Regular" font-size="40.0" fill="#373840" transform="matrix(1.00, 0.00, -0.00, -1.00, 789.3, 301.0)"> </text><text xml:space="preserve" font-family="Menlo-Regular" font-size="40.0" fill="#373840" transform="matrix(1.00, 0.00, -0.00, -1.00, 813.3, 301.0)">d</text><text xml:space="preserve" font-family="Menlo-Regular" font-size="40.0" fill="#373840" transform="matrix(1.00, 0.00, -0.00, -1.00, 837.4, 301.0)">i</text><text xml:space="preserve" font-family="Menlo-Regular" font-size="40.0" fill="#373840" transform="matrix(1.00, 0.00, -0.00, -1.00, 861.5, 301.0)">d</text><text xml:space="preserve" font-family="Menlo-Regular" font-size="40.0" fill="#373840" transform="matrix(1.00, 0.00, -0.00, -1.00, 885.6, 301.0)"> </text><g><clipPath id="clip-228"><path d="M 282.2 297.0 L 572.2 297.0 L 572.2 300.8 L 282.2 300.8 Z M 282.2 297.0 "></path></clipPath><g clip-path="url(#clip-228)"><path d="M 159.9 227.1 L 448.9 227.1 " fill="none" stroke="#373840" stroke-width="1.76" stroke-miterlimit="0.00" transform="matrix(1.00, 0.00, 0.00, -1.00, 123.3, 526.0)"></path></g></g><text xml:space="preserve" font-family="Menlo-Regular" font-size="40.0" fill="#373840" transform="matrix(1.00, 0.00, -0.00, -1.00, 151.0, 255.0)">t</text><text xml:space="preserve" font-family="Menlo-Regular" font-size="40.0" fill="#373840" transform="matrix(1.00, 0.00, -0.00, -1.00, 175.1, 255.0)">h</text><text xml:space="preserve" font-family="Menlo-Regular" font-size="40.0" fill="#373840" transform="matrix(1.00, 0.00, -0.00, -1.00, 199.2, 255.0)">e</text><text xml:space="preserve" font-family="Menlo-Regular" font-size="40.0" fill="#373840" transform="matrix(1.00, 0.00, -0.00, -1.00, 223.3, 255.0)"> </text><text xml:space="preserve" font-family="Menlo-Regular" font-size="40.0" fill="#373840" transform="matrix(1.00, 0.00, -0.00, -1.00, 247.3, 255.0)">r</text><text xml:space="preserve" font-family="Menlo-Regular" font-size="40.0" fill="#373840" transform="matrix(1.00, 0.00, -0.00, -1.00, 271.4, 255.0)">e</text><text xml:space="preserve" font-family="Menlo-Regular" font-size="40.0" fill="#373840" transform="matrix(1.00, 0.00, -0.00, -1.00, 295.5, 255.0)">q</text><text xml:space="preserve" font-family="Menlo-Regular" font-size="40.0" fill="#373840" transform="matrix(1.00, 0.00, -0.00, -1.00, 319.6, 255.0)">u</text><text xml:space="preserve" font-family="Menlo-Regular" font-size="40.0" fill="#373840" transform="matrix(1.00, 0.00, -0.00, -1.00, 343.7, 255.0)">e</text><text xml:space="preserve" font-family="Menlo-Regular" font-size="40.0" fill="#373840" transform="matrix(1.00, 0.00, -0.00, -1.00, 367.8, 255.0)">s</text><text xml:space="preserve" font-family="Menlo-Regular" font-size="40.0" fill="#373840" transform="matrix(1.00, 0.00, -0.00, -1.00, 391.9, 255.0)">t</text><text xml:space="preserve" font-family="Menlo-Regular" font-size="40.0" fill="#373840" transform="matrix(1.00, 0.00, -0.00, -1.00, 415.9, 255.0)">,</text><text xml:space="preserve" font-family="Menlo-Regular" font-size="40.0" fill="#373840" transform="matrix(1.00, 0.00, -0.00, -1.00, 440.0, 255.0)"> </text><text xml:space="preserve" font-family="Menlo-Regular" font-size="40.0" fill="#373840" transform="matrix(1.00, 0.00, -0.00, -1.00, 464.1, 255.0)">n</text><text xml:space="preserve" font-family="Menlo-Regular" font-size="40.0" fill="#373840" transform="matrix(1.00, 0.00, -0.00, -1.00, 488.2, 255.0)">o</text><text xml:space="preserve" font-family="Menlo-Regular" font-size="40.0" fill="#373840" transform="matrix(1.00, 0.00, -0.00, -1.00, 512.3, 255.0)">t</text><text xml:space="preserve" font-family="Menlo-Regular" font-size="40.0" fill="#373840" transform="matrix(1.00, 0.00, -0.00, -1.00, 536.4, 255.0)"> </text><text xml:space="preserve" font-family="Menlo-Regular" font-size="40.0" fill="#373840" transform="matrix(1.00, 0.00, -0.00, -1.00, 560.5, 255.0)">o</text><text xml:space="preserve" font-family="Menlo-Regular" font-size="40.0" fill="#373840" transform="matrix(1.00, 0.00, -0.00, -1.00, 584.5, 255.0)">u</text><text xml:space="preserve" font-family="Menlo-Regular" font-size="40.0" fill="#373840" transform="matrix(1.00, 0.00, -0.00, -1.00, 608.6, 255.0)">r</text><text xml:space="preserve" font-family="Menlo-Regular" font-size="40.0" fill="#373840" transform="matrix(1.00, 0.00, -0.00, -1.00, 632.7, 255.0)"> </text><text xml:space="preserve" font-family="Menlo-Regular" font-size="40.0" fill="#373840" transform="matrix(1.00, 0.00, -0.00, -1.00, 656.8, 255.0)">a</text><text xml:space="preserve" font-family="Menlo-Regular" font-size="40.0" fill="#373840" transform="matrix(1.00, 0.00, -0.00, -1.00, 680.9, 255.0)">p</text><text xml:space="preserve" font-family="Menlo-Regular" font-size="40.0" fill="#373840" transform="matrix(1.00, 0.00, -0.00, -1.00, 705.0, 255.0)">p</text><text xml:space="preserve" font-family="Menlo-Regular" font-size="40.0" fill="#373840" transform="matrix(1.00, 0.00, -0.00, -1.00, 729.1, 255.0)"> </text><text xml:space="preserve" font-family="Menlo-Regular" font-size="40.0" fill="#373840" transform="matrix(1.00, 0.00, -0.00, -1.00, 753.2, 255.0)">c</text><text xml:space="preserve" font-family="Menlo-Regular" font-size="40.0" fill="#373840" transform="matrix(1.00, 0.00, -0.00, -1.00, 777.2, 255.0)">o</text><text xml:space="preserve" font-family="Menlo-Regular" font-size="40.0" fill="#373840" transform="matrix(1.00, 0.00, -0.00, -1.00, 801.3, 255.0)">d</text><text xml:space="preserve" font-family="Menlo-Regular" font-size="40.0" fill="#373840" transform="matrix(1.00, 0.00, -0.00, -1.00, 825.4, 255.0)">e</text><text xml:space="preserve" font-family="Menlo-Regular" font-size="40.0" fill="#373840" transform="matrix(1.00, 0.00, -0.00, -1.00, 849.5, 255.0)">.</text></g></svg>