<?xml version="1.0" encoding="UTF-8" standalone="no"?><svg xmlns="http://www.w3.org/2000/svg" xmlns:xlink="http://www.w3.org/1999/xlink" clip-rule="evenodd" stroke-miterlimit="4.00" viewBox="0 0 1024 768"><desc>SVG generated by Keynote</desc><defs></defs><g transform="matrix(1.00, 0.00, -0.00, -1.00, 0.0, 768.0)"><path d="M 0.0 768.0 L 1024.0 768.0 L 1024.0 0.0 L 0.0 0.0 Z M 0.0 768.0 " fill="#FAFAFA"></path><text xml:space="preserve" font-family="Menlo-Bold" font-weight="bold" font-size="40.0" fill="#373840" transform="matrix(1.00, 0.00, -0.00, -1.00, 117.0, 589.0)">O</text><text xml:space="preserve" font-family="Menlo-Bold" font-weight="bold" font-size="40.0" fill="#373840" transform="matrix(1.00, 0.00, -0.00, -1.00, 141.1, 589.0)">b</text><text xml:space="preserve" font-family="Menlo-Bold" font-weight="bold" font-size="40.0" fill="#373840" transform="matrix(1.00, 0.00, -0.00, -1.00, 165.2, 589.0)">s</text><text xml:space="preserve" font-family="Menlo-Bold" font-weight="bold" font-size="40.0" fill="#373840" transform="matrix(1.00, 0.00, -0.00, -1.00, 189.3, 589.0)">e</text><text xml:space="preserve" font-family="Menlo-Bold" font-weight="bold" font-size="40.0" fill="#373840" transform="matrix(1.00, 0.00, -0.00, -1.00, 213.3, 589.0)">r</text><text xml:space="preserve" font-family="Menlo-Bold" font-weight="bold" font-size="40.0" fill="#373840" transform="matrix(1.00, 0.00, -0.00, -1.00, 237.4, 589.0)">v</text><text xml:space="preserve" font-family="Menlo-Bold" font-weight="bold" font-size="40.0" fill="#373840" transform="matrix(1.00, 0.00, -0.00, -1.00, 261.5, 589.0)">a</text><text xml:space="preserve" font-family="Menlo-Bold" font-weight="bold" font-size="40.0" fill="#373840" transform="matrix(1.00, 0.00, -0.00, -1.00, 285.6, 589.0)">b</text><text xml:space="preserve" font-family="Menlo-Bold" font-weight="bold" font-size="40.0" fill="#373840" transform="matrix(1.00, 0.00, -0.00, -1.00, 309.7, 589.0)">l</text><text xml:space="preserve" font-family="Menlo-Bold" font-weight="bold" font-size="40.0" fill="#373840" transform="matrix(1.00, 0.00, -0.00, -1.00, 333.8, 589.0)">e</text><text xml:space="preserve" font-family="Menlo-Bold" font-weight="bold" font-size="40.0" fill="#373840" transform="matrix(1.00, 0.00, -0.00, -1.00, 357.9, 589.0)"> </text><text xml:space="preserve" font-family="Menlo-Bold" font-weight="bold" font-size="40.0" fill="#373840" transform="matrix(1.00, 0.00, -0.00, -1.00, 381.9, 589.0)">L</text><text xml:space="preserve" font-family="Menlo-Bold" font-weight="bold" font-size="40.0" fill="#373840" transform="matrix(1.00, 0.00, -0.00, -1.00, 406.0, 589.0)">i</text><text xml:space="preserve" font-family="Menlo-Bold" font-weight="bold" font-size="40.0" fill="#373840" transform="matrix(1.00, 0.00, -0.00, -1.00, 430.1, 589.0)">t</text><text xml:space="preserve" font-family="Menlo-Bold" font-weight="bold" font-size="40.0" fill="#373840" transform="matrix(1.00, 0.00, -0.00, -1.00, 454.2, 589.0)">e</text><text xml:space="preserve" font-family="Menlo-Bold" font-weight="bold" font-size="40.0" fill="#373840" transform="matrix(1.00, 0.00, -0.00, -1.00, 478.3, 589.0)">r</text><text xml:space="preserve" font-family="Menlo-Bold" font-weight="bold" font-size="40.0" fill="#373840" transform="matrix(1.00, 0.00, -0.00, -1.00, 502.4, 589.0)">a</text><text xml:space="preserve" font-family="Menlo-Bold" font-weight="bold" font-size="40.0" fill="#373840" transform="matrix(1.00, 0.00, -0.00, -1.00, 526.5, 589.0)">l</text><text xml:space="preserve" font-family="Menlo-Regular" font-size="30.0" fill="#373840" transform="matrix(1.00, 0.00, -0.00, -1.00, 440.0, 374.0)">[</text><text xml:space="preserve" font-family="Menlo-Regular" font-size="30.0" fill="#373840" transform="matrix(1.00, 0.00, -0.00, -1.00, 458.1, 374.0)">1</text><text xml:space="preserve" font-family="Menlo-Regular" font-size="30.0" fill="#373840" transform="matrix(1.00, 0.00, -0.00, -1.00, 476.1, 374.0)">…</text><text xml:space="preserve" font-family="Menlo-Regular" font-size="30.0" fill="#373840" transform="matrix(1.00, 0.00, -0.00, -1.00, 494.2, 374.0)">2</text><text xml:space="preserve" font-family="Menlo-Regular" font-size="30.0" fill="#373840" transform="matrix(1.00, 0.00, -0.00, -1.00, 512.3, 374.0)">…</text><text xml:space="preserve" font-family="Menlo-Regular" font-size="30.0" fill="#373840" transform="matrix(1.00, 0.00, -0.00, -1.00, 530.3, 374.0)">…</text><text xml:space="preserve" font-family="Menlo-Regular" font-size="30.0" fill="#373840" transform="matrix(1.00, 0.00, -0.00, -1.00, 548.4, 374.0)">3</text><text xml:space="preserve" font-family="Menlo-Regular" font-size="30.0" fill="#373840" transform="matrix(1.00, 0.00, -0.00, -1.00, 566.5, 374.0)">]</text><path d="M 0.0 0.0 L 118.4 0.0 L 119.4 0.0 " fill="none" stroke="#373840" stroke-width="2.00" transform="matrix(1.00, 0.00, 0.00, -1.00, 448.0, 421.0)"></path><path d="M 566.4 416.2 L 576.0 421.0 L 566.4 425.8 Z M 566.4 416.2 " fill="#373840"></path><text xml:space="preserve" font-family="Menlo-Regular" font-size="16.0" fill="#373840" transform="matrix(1.00, 0.00, -0.00, -1.00, 493.0, 433.0)">t</text><text xml:space="preserve" font-family="Menlo-Regular" font-size="16.0" fill="#373840" transform="matrix(1.00, 0.00, -0.00, -1.00, 502.6, 433.0)">i</text><text xml:space="preserve" font-family="Menlo-Regular" font-size="16.0" fill="#373840" transform="matrix(1.00, 0.00, -0.00, -1.00, 512.3, 433.0)">m</text><text xml:space="preserve" font-family="Menlo-Regular" font-size="16.0" fill="#373840" transform="matrix(1.00, 0.00, -0.00, -1.00, 521.9, 433.0)">e</text></g></svg>