<?xml version="1.0" encoding="UTF-8" standalone="no"?><svg xmlns="http://www.w3.org/2000/svg" xmlns:xlink="http://www.w3.org/1999/xlink" clip-rule="evenodd" stroke-miterlimit="4.00" viewBox="0 0 309 24"><desc>SVG generated by Keynote</desc><defs></defs><g transform="matrix(1.00, 0.00, -0.00, -1.00, 0.0, 24.0)"><text xml:space="preserve" font-family="Menlo-Regular" font-size="20.0" fill="#373840" transform="matrix(1.00, 0.00, -0.00, -1.00, -2.0, 7.0)">.</text><text xml:space="preserve" font-family="Menlo-Regular" font-size="20.0" fill="#373840" transform="matrix(1.00, 0.00, -0.00, -1.00, 10.0, 7.0)">m</text><text xml:space="preserve" font-family="Menlo-Regular" font-size="20.0" fill="#373840" transform="matrix(1.00, 0.00, -0.00, -1.00, 22.1, 7.0)">a</text><text xml:space="preserve" font-family="Menlo-Regular" font-size="20.0" fill="#373840" transform="matrix(1.00, 0.00, -0.00, -1.00, 34.1, 7.0)">p</text><text xml:space="preserve" font-family="Menlo-Regular" font-size="20.0" fill="#373840" transform="matrix(1.00, 0.00, -0.00, -1.00, 46.2, 7.0)">(</text><text xml:space="preserve" font-family="Menlo-Regular" font-size="20.0" fill="#373840" transform="matrix(1.00, 0.00, -0.00, -1.00, 58.2, 7.0)">e</text><text xml:space="preserve" font-family="Menlo-Regular" font-size="20.0" fill="#373840" transform="matrix(1.00, 0.00, -0.00, -1.00, 70.3, 7.0)">v</text><text xml:space="preserve" font-family="Menlo-Regular" font-size="20.0" fill="#373840" transform="matrix(1.00, 0.00, -0.00, -1.00, 82.3, 7.0)"> </text><text xml:space="preserve" font-family="Menlo-Regular" font-size="20.0" fill="#373840" transform="matrix(1.00, 0.00, -0.00, -1.00, 94.3, 7.0)">=</text><text xml:space="preserve" font-family="Menlo-Regular" font-size="20.0" fill="#373840" transform="matrix(1.00, 0.00, -0.00, -1.00, 106.4, 7.0)">&gt;</text><text xml:space="preserve" font-family="Menlo-Regular" font-size="20.0" fill="#373840" transform="matrix(1.00, 0.00, -0.00, -1.00, 118.4, 7.0)"> </text><text xml:space="preserve" font-family="Menlo-Regular" font-size="20.0" fill="#9848A3" transform="matrix(1.00, 0.00, -0.00, -1.00, 130.5, 7.0)">&lt;</text><text xml:space="preserve" font-family="Menlo-Regular" font-size="20.0" fill="#9848A3" transform="matrix(1.00, 0.00, -0.00, -1.00, 142.5, 7.0)">d</text><text xml:space="preserve" font-family="Menlo-Regular" font-size="20.0" fill="#9848A3" transform="matrix(1.00, 0.00, -0.00, -1.00, 154.5, 7.0)">i</text><text xml:space="preserve" font-family="Menlo-Regular" font-size="20.0" fill="#9848A3" transform="matrix(1.00, 0.00, -0.00, -1.00, 166.6, 7.0)">v</text><text xml:space="preserve" font-family="Menlo-Regular" font-size="20.0" fill="#9848A3" transform="matrix(1.00, 0.00, -0.00, -1.00, 178.6, 7.0)">&gt;</text><text xml:space="preserve" font-family="Menlo-Regular" font-size="20.0" fill="#9848A3" transform="matrix(1.00, 0.00, -0.00, -1.00, 190.7, 7.0)">f</text><text xml:space="preserve" font-family="Menlo-Regular" font-size="20.0" fill="#9848A3" transform="matrix(1.00, 0.00, -0.00, -1.00, 202.7, 7.0)">o</text><text xml:space="preserve" font-family="Menlo-Regular" font-size="20.0" fill="#9848A3" transform="matrix(1.00, 0.00, -0.00, -1.00, 214.8, 7.0)">o</text><text xml:space="preserve" font-family="Menlo-Regular" font-size="20.0" fill="#9848A3" transform="matrix(1.00, 0.00, -0.00, -1.00, 226.8, 7.0)">&lt;</text><text xml:space="preserve" font-family="Menlo-Regular" font-size="20.0" fill="#9848A3" transform="matrix(1.00, 0.00, -0.00, -1.00, 238.8, 7.0)">/</text><text xml:space="preserve" font-family="Menlo-Regular" font-size="20.0" fill="#9848A3" transform="matrix(1.00, 0.00, -0.00, -1.00, 250.9, 7.0)">d</text><text xml:space="preserve" font-family="Menlo-Regular" font-size="20.0" fill="#9848A3" transform="matrix(1.00, 0.00, -0.00, -1.00, 262.9, 7.0)">i</text><text xml:space="preserve" font-family="Menlo-Regular" font-size="20.0" fill="#9848A3" transform="matrix(1.00, 0.00, -0.00, -1.00, 275.0, 7.0)">v</text><text xml:space="preserve" font-family="Menlo-Regular" font-size="20.0" fill="#9848A3" transform="matrix(1.00, 0.00, -0.00, -1.00, 287.0, 7.0)">&gt;</text><text xml:space="preserve" font-family="Menlo-Regular" font-size="20.0" fill="#373840" transform="matrix(1.00, 0.00, -0.00, -1.00, 299.0, 7.0)">)</text></g></svg>