<?xml version="1.0" encoding="UTF-8" standalone="no"?><svg xmlns="http://www.w3.org/2000/svg" xmlns:xlink="http://www.w3.org/1999/xlink" clip-rule="evenodd" stroke-miterlimit="4.00" viewBox="0 0 136 135"><desc>SVG generated by Keynote</desc><defs></defs><g transform="matrix(1.00, 0.00, -0.00, -1.00, 0.0, 135.0)"><path d="M 114.8 114.0 C 140.6 88.2 140.6 46.3 114.8 20.5 C 88.9 -5.4 47.1 -5.4 21.2 20.5 C -4.6 46.3 -4.6 88.2 21.2 114.0 C 47.1 139.8 88.9 139.8 114.8 114.0 Z M 114.8 114.0 " fill="#000000"></path><g><clipPath id="clip-91"><path d="M 1.9 1.1 L 134.1 1.1 L 134.1 133.4 L 1.9 133.4 Z M 1.9 1.1 "></path></clipPath><g clip-path="url(#clip-91)"><text xml:space="preserve" font-family="Menlo-Regular" font-size="24.0" fill="#F8F8F0" transform="matrix(1.00, 0.00, -0.00, -1.00, 39.0, 73.0)">s</text><text xml:space="preserve" font-family="Menlo-Regular" font-size="24.0" fill="#F8F8F0" transform="matrix(1.00, 0.00, -0.00, -1.00, 53.5, 73.0)">i</text><text xml:space="preserve" font-family="Menlo-Regular" font-size="24.0" fill="#F8F8F0" transform="matrix(1.00, 0.00, -0.00, -1.00, 67.9, 73.0)">d</text><text xml:space="preserve" font-family="Menlo-Regular" font-size="24.0" fill="#F8F8F0" transform="matrix(1.00, 0.00, -0.00, -1.00, 82.4, 73.0)">e</text><text xml:space="preserve" font-family="Menlo-Regular" font-size="24.0" fill="#F8F8F0" transform="matrix(1.00, 0.00, -0.00, -1.00, 96.8, 73.0)"> </text><text xml:space="preserve" font-family="Menlo-Regular" font-size="24.0" fill="#F8F8F0" transform="matrix(1.00, 0.00, -0.00, -1.00, 17.0, 45.0)">e</text><text xml:space="preserve" font-family="Menlo-Regular" font-size="24.0" fill="#F8F8F0" transform="matrix(1.00, 0.00, -0.00, -1.00, 31.5, 45.0)">f</text><text xml:space="preserve" font-family="Menlo-Regular" font-size="24.0" fill="#F8F8F0" transform="matrix(1.00, 0.00, -0.00, -1.00, 45.9, 45.0)">f</text><text xml:space="preserve" font-family="Menlo-Regular" font-size="24.0" fill="#F8F8F0" transform="matrix(1.00, 0.00, -0.00, -1.00, 60.4, 45.0)">e</text><text xml:space="preserve" font-family="Menlo-Regular" font-size="24.0" fill="#F8F8F0" transform="matrix(1.00, 0.00, -0.00, -1.00, 74.8, 45.0)">c</text><text xml:space="preserve" font-family="Menlo-Regular" font-size="24.0" fill="#F8F8F0" transform="matrix(1.00, 0.00, -0.00, -1.00, 89.3, 45.0)">t</text><text xml:space="preserve" font-family="Menlo-Regular" font-size="24.0" fill="#F8F8F0" transform="matrix(1.00, 0.00, -0.00, -1.00, 103.7, 45.0)">s</text></g></g></g></svg>