<?xml version="1.0" encoding="UTF-8" standalone="no"?><svg xmlns="http://www.w3.org/2000/svg" xmlns:xlink="http://www.w3.org/1999/xlink" clip-rule="evenodd" stroke-miterlimit="4.00" viewBox="0 0 184 50"><desc>SVG generated by Keynote</desc><defs></defs><g transform="matrix(1.00, 0.00, -0.00, -1.00, 0.0, 50.0)"><text xml:space="preserve" font-family="Menlo-Regular" font-size="18.0" fill="#373840" transform="matrix(1.00, 0.00, -0.00, -1.00, 1.0, 35.0)">O</text><text xml:space="preserve" font-family="Menlo-Regular" font-size="18.0" fill="#373840" transform="matrix(1.00, 0.00, -0.00, -1.00, 11.8, 35.0)">b</text><text xml:space="preserve" font-family="Menlo-Regular" font-size="18.0" fill="#373840" transform="matrix(1.00, 0.00, -0.00, -1.00, 22.7, 35.0)">s</text><text xml:space="preserve" font-family="Menlo-Regular" font-size="18.0" fill="#373840" transform="matrix(1.00, 0.00, -0.00, -1.00, 33.5, 35.0)">e</text><text xml:space="preserve" font-family="Menlo-Regular" font-size="18.0" fill="#373840" transform="matrix(1.00, 0.00, -0.00, -1.00, 44.4, 35.0)">r</text><text xml:space="preserve" font-family="Menlo-Regular" font-size="18.0" fill="#373840" transform="matrix(1.00, 0.00, -0.00, -1.00, 55.2, 35.0)">v</text><text xml:space="preserve" font-family="Menlo-Regular" font-size="18.0" fill="#373840" transform="matrix(1.00, 0.00, -0.00, -1.00, 66.0, 35.0)">a</text><text xml:space="preserve" font-family="Menlo-Regular" font-size="18.0" fill="#373840" transform="matrix(1.00, 0.00, -0.00, -1.00, 76.9, 35.0)">b</text><text xml:space="preserve" font-family="Menlo-Regular" font-size="18.0" fill="#373840" transform="matrix(1.00, 0.00, -0.00, -1.00, 87.7, 35.0)">l</text><text xml:space="preserve" font-family="Menlo-Regular" font-size="18.0" fill="#373840" transform="matrix(1.00, 0.00, -0.00, -1.00, 98.5, 35.0)">e</text><text xml:space="preserve" font-family="Menlo-Regular" font-size="18.0" fill="#373840" transform="matrix(1.00, 0.00, -0.00, -1.00, 109.4, 35.0)"> </text><text xml:space="preserve" font-family="Menlo-Regular" font-size="18.0" fill="#373840" transform="matrix(1.00, 0.00, -0.00, -1.00, 1.0, 3.0)"> </text><text xml:space="preserve" font-family="Menlo-Regular" font-size="18.0" fill="#373840" transform="matrix(1.00, 0.00, -0.00, -1.00, 11.8, 3.0)"> </text><text xml:space="preserve" font-family="Menlo-Regular" font-size="18.0" fill="#373840" transform="matrix(1.00, 0.00, -0.00, -1.00, 22.7, 3.0)">.</text><text xml:space="preserve" font-family="Menlo-Regular" font-size="18.0" fill="#373840" transform="matrix(1.00, 0.00, -0.00, -1.00, 33.5, 3.0)">o</text><text xml:space="preserve" font-family="Menlo-Regular" font-size="18.0" fill="#373840" transform="matrix(1.00, 0.00, -0.00, -1.00, 44.4, 3.0)">f</text><text xml:space="preserve" font-family="Menlo-Regular" font-size="18.0" fill="#373840" transform="matrix(1.00, 0.00, -0.00, -1.00, 55.2, 3.0)">(</text><text xml:space="preserve" font-family="Menlo-Regular" font-size="18.0" fill="#3F82EE" transform="matrix(1.00, 0.00, -0.00, -1.00, 66.0, 3.0)">&lt;</text><text xml:space="preserve" font-family="Menlo-Regular" font-size="18.0" fill="#3F82EE" transform="matrix(1.00, 0.00, -0.00, -1.00, 76.9, 3.0)">b</text><text xml:space="preserve" font-family="Menlo-Regular" font-size="18.0" fill="#3F82EE" transform="matrix(1.00, 0.00, -0.00, -1.00, 87.7, 3.0)">u</text><text xml:space="preserve" font-family="Menlo-Regular" font-size="18.0" fill="#3F82EE" transform="matrix(1.00, 0.00, -0.00, -1.00, 98.5, 3.0)">t</text><text xml:space="preserve" font-family="Menlo-Regular" font-size="18.0" fill="#3F82EE" transform="matrix(1.00, 0.00, -0.00, -1.00, 109.4, 3.0)">t</text><text xml:space="preserve" font-family="Menlo-Regular" font-size="18.0" fill="#3F82EE" transform="matrix(1.00, 0.00, -0.00, -1.00, 120.2, 3.0)">o</text><text xml:space="preserve" font-family="Menlo-Regular" font-size="18.0" fill="#3F82EE" transform="matrix(1.00, 0.00, -0.00, -1.00, 131.1, 3.0)">n</text><text xml:space="preserve" font-family="Menlo-Regular" font-size="18.0" fill="#3F82EE" transform="matrix(1.00, 0.00, -0.00, -1.00, 141.9, 3.0)"> </text><text xml:space="preserve" font-family="Menlo-Regular" font-size="18.0" fill="#3F82EE" transform="matrix(1.00, 0.00, -0.00, -1.00, 152.7, 3.0)">/</text><text xml:space="preserve" font-family="Menlo-Regular" font-size="18.0" fill="#3F82EE" transform="matrix(1.00, 0.00, -0.00, -1.00, 163.6, 3.0)">&gt;</text><text xml:space="preserve" font-family="Menlo-Regular" font-size="18.0" fill="#373840" transform="matrix(1.00, 0.00, -0.00, -1.00, 174.4, 3.0)">)</text></g></svg>