<?xml version="1.0" encoding="UTF-8" standalone="no"?><svg xmlns="http://www.w3.org/2000/svg" xmlns:xlink="http://www.w3.org/1999/xlink" clip-rule="evenodd" stroke-miterlimit="4.00" viewBox="0 0 210 320"><desc>SVG generated by Keynote</desc><defs></defs><g transform="matrix(1.00, 0.00, -0.00, -1.00, 0.0, 320.0)"><image xlink:href="../../79450EBB-54E6-418C-82D0-35C6ABD7620D/assets/0D65F2767C25ABA2F9E4A058FFD56304.png" width="208.00" height="313.00" transform="matrix(1.00, 0.00, -0.00, -1.00, 1.3, 314.7)" opacity="0.50"></image><path d="M 29.2 311.7 L 181.0 311.7 C 187.6 311.7 190.9 311.7 194.5 310.6 C 198.3 309.2 201.4 306.1 202.8 302.2 C 203.9 298.7 203.9 295.3 203.9 288.7 L 203.9 31.5 C 203.9 24.9 203.9 21.6 202.8 18.1 C 201.4 14.2 198.3 11.1 194.5 9.7 C 190.9 8.6 187.6 8.6 180.9 8.6 L 29.2 8.6 C 22.6 8.6 19.3 8.6 15.7 9.7 C 11.9 11.1 8.8 14.2 7.4 18.1 C 6.3 21.6 6.3 24.9 6.3 31.6 L 6.3 288.8 C 6.3 295.3 6.3 298.7 7.4 302.2 C 8.8 306.1 11.9 309.2 15.7 310.6 C 19.3 311.7 22.6 311.7 29.3 311.7 Z M 29.2 311.7 " fill="#FEFFFF"></path></g></svg>