<?xml version="1.0" encoding="UTF-8" standalone="no"?><svg xmlns="http://www.w3.org/2000/svg" xmlns:xlink="http://www.w3.org/1999/xlink" clip-rule="evenodd" stroke-miterlimit="4.00" viewBox="0 0 333 96"><desc>SVG generated by Keynote</desc><defs></defs><g transform="matrix(1.00, 0.00, -0.00, -1.00, 0.0, 96.0)"><text xml:space="preserve" font-family="Menlo-Regular" font-size="20.0" fill="#373840" transform="matrix(1.00, 0.00, -0.00, -1.00, -1.0, 78.0)">.</text><text xml:space="preserve" font-family="Menlo-Regular" font-size="20.0" fill="#373840" transform="matrix(1.00, 0.00, -0.00, -1.00, 11.0, 78.0)">m</text><text xml:space="preserve" font-family="Menlo-Regular" font-size="20.0" fill="#373840" transform="matrix(1.00, 0.00, -0.00, -1.00, 23.1, 78.0)">a</text><text xml:space="preserve" font-family="Menlo-Regular" font-size="20.0" fill="#373840" transform="matrix(1.00, 0.00, -0.00, -1.00, 35.1, 78.0)">p</text><text xml:space="preserve" font-family="Menlo-Regular" font-size="20.0" fill="#373840" transform="matrix(1.00, 0.00, -0.00, -1.00, 47.2, 78.0)">(</text><text xml:space="preserve" font-family="Menlo-Regular" font-size="20.0" fill="#373840" transform="matrix(1.00, 0.00, -0.00, -1.00, 59.2, 78.0)">e</text><text xml:space="preserve" font-family="Menlo-Regular" font-size="20.0" fill="#373840" transform="matrix(1.00, 0.00, -0.00, -1.00, 71.3, 78.0)">v</text><text xml:space="preserve" font-family="Menlo-Regular" font-size="20.0" fill="#373840" transform="matrix(1.00, 0.00, -0.00, -1.00, 83.3, 78.0)"> </text><text xml:space="preserve" font-family="Menlo-Regular" font-size="20.0" fill="#373840" transform="matrix(1.00, 0.00, -0.00, -1.00, 95.3, 78.0)">=</text><text xml:space="preserve" font-family="Menlo-Regular" font-size="20.0" fill="#373840" transform="matrix(1.00, 0.00, -0.00, -1.00, 107.4, 78.0)">&gt;</text><text xml:space="preserve" font-family="Menlo-Regular" font-size="20.0" fill="#373840" transform="matrix(1.00, 0.00, -0.00, -1.00, 119.4, 78.0)"> </text><text xml:space="preserve" font-family="Menlo-Regular" font-size="20.0" fill="#9848A3" transform="matrix(1.00, 0.00, -0.00, -1.00, 131.5, 78.0)">1</text><text xml:space="preserve" font-family="Menlo-Regular" font-size="20.0" fill="#373840" transform="matrix(1.00, 0.00, -0.00, -1.00, 143.5, 78.0)">)</text><text xml:space="preserve" font-family="Menlo-Regular" font-size="20.0" fill="#373840" transform="matrix(1.00, 0.00, -0.00, -1.00, 155.5, 78.0)"> </text><text xml:space="preserve" font-family="Menlo-Regular" font-size="20.0" fill="#373840" transform="matrix(1.00, 0.00, -0.00, -1.00, -1.0, 42.0)">.</text><text xml:space="preserve" font-family="Menlo-Regular" font-size="20.0" fill="#373840" transform="matrix(1.00, 0.00, -0.00, -1.00, 11.0, 42.0)">s</text><text xml:space="preserve" font-family="Menlo-Regular" font-size="20.0" fill="#373840" transform="matrix(1.00, 0.00, -0.00, -1.00, 23.1, 42.0)">c</text><text xml:space="preserve" font-family="Menlo-Regular" font-size="20.0" fill="#373840" transform="matrix(1.00, 0.00, -0.00, -1.00, 35.1, 42.0)">a</text><text xml:space="preserve" font-family="Menlo-Regular" font-size="20.0" fill="#373840" transform="matrix(1.00, 0.00, -0.00, -1.00, 47.2, 42.0)">n</text><text xml:space="preserve" font-family="Menlo-Regular" font-size="20.0" fill="#373840" transform="matrix(1.00, 0.00, -0.00, -1.00, 59.2, 42.0)">(</text><text xml:space="preserve" font-family="Menlo-Regular" font-size="20.0" fill="#373840" transform="matrix(1.00, 0.00, -0.00, -1.00, 71.3, 42.0)">(</text><text xml:space="preserve" font-family="Menlo-Regular" font-size="20.0" fill="#373840" transform="matrix(1.00, 0.00, -0.00, -1.00, 83.3, 42.0)">x</text><text xml:space="preserve" font-family="Menlo-Regular" font-size="20.0" fill="#373840" transform="matrix(1.00, 0.00, -0.00, -1.00, 95.3, 42.0)">,</text><text xml:space="preserve" font-family="Menlo-Regular" font-size="20.0" fill="#373840" transform="matrix(1.00, 0.00, -0.00, -1.00, 107.4, 42.0)">y</text><text xml:space="preserve" font-family="Menlo-Regular" font-size="20.0" fill="#373840" transform="matrix(1.00, 0.00, -0.00, -1.00, 119.4, 42.0)">)</text><text xml:space="preserve" font-family="Menlo-Regular" font-size="20.0" fill="#373840" transform="matrix(1.00, 0.00, -0.00, -1.00, 131.5, 42.0)"> </text><text xml:space="preserve" font-family="Menlo-Regular" font-size="20.0" fill="#373840" transform="matrix(1.00, 0.00, -0.00, -1.00, 143.5, 42.0)">=</text><text xml:space="preserve" font-family="Menlo-Regular" font-size="20.0" fill="#373840" transform="matrix(1.00, 0.00, -0.00, -1.00, 155.6, 42.0)">&gt;</text><text xml:space="preserve" font-family="Menlo-Regular" font-size="20.0" fill="#373840" transform="matrix(1.00, 0.00, -0.00, -1.00, 167.6, 42.0)"> </text><text xml:space="preserve" font-family="Menlo-Regular" font-size="20.0" fill="#373840" transform="matrix(1.00, 0.00, -0.00, -1.00, 179.6, 42.0)">x</text><text xml:space="preserve" font-family="Menlo-Regular" font-size="20.0" fill="#373840" transform="matrix(1.00, 0.00, -0.00, -1.00, 191.7, 42.0)">+</text><text xml:space="preserve" font-family="Menlo-Regular" font-size="20.0" fill="#373840" transform="matrix(1.00, 0.00, -0.00, -1.00, 203.7, 42.0)">y</text><text xml:space="preserve" font-family="Menlo-Regular" font-size="20.0" fill="#373840" transform="matrix(1.00, 0.00, -0.00, -1.00, 215.8, 42.0)">)</text><text xml:space="preserve" font-family="Menlo-Regular" font-size="20.0" fill="#373840" transform="matrix(1.00, 0.00, -0.00, -1.00, 227.8, 42.0)"> </text><text xml:space="preserve" font-family="Menlo-Regular" font-size="20.0" fill="#373840" transform="matrix(1.00, 0.00, -0.00, -1.00, -1.0, 6.0)">.</text><text xml:space="preserve" font-family="Menlo-Regular" font-size="20.0" fill="#373840" transform="matrix(1.00, 0.00, -0.00, -1.00, 11.0, 6.0)">m</text><text xml:space="preserve" font-family="Menlo-Regular" font-size="20.0" fill="#373840" transform="matrix(1.00, 0.00, -0.00, -1.00, 23.1, 6.0)">a</text><text xml:space="preserve" font-family="Menlo-Regular" font-size="20.0" fill="#373840" transform="matrix(1.00, 0.00, -0.00, -1.00, 35.1, 6.0)">p</text><text xml:space="preserve" font-family="Menlo-Regular" font-size="20.0" fill="#373840" transform="matrix(1.00, 0.00, -0.00, -1.00, 47.2, 6.0)">(</text><text xml:space="preserve" font-family="Menlo-Regular" font-size="20.0" fill="#373840" transform="matrix(1.00, 0.00, -0.00, -1.00, 59.2, 6.0)">c</text><text xml:space="preserve" font-family="Menlo-Regular" font-size="20.0" fill="#373840" transform="matrix(1.00, 0.00, -0.00, -1.00, 71.3, 6.0)"> </text><text xml:space="preserve" font-family="Menlo-Regular" font-size="20.0" fill="#373840" transform="matrix(1.00, 0.00, -0.00, -1.00, 83.3, 6.0)">=</text><text xml:space="preserve" font-family="Menlo-Regular" font-size="20.0" fill="#373840" transform="matrix(1.00, 0.00, -0.00, -1.00, 95.3, 6.0)">&gt;</text><text xml:space="preserve" font-family="Menlo-Regular" font-size="20.0" fill="#373840" transform="matrix(1.00, 0.00, -0.00, -1.00, 107.4, 6.0)"> </text><text xml:space="preserve" font-family="Menlo-Regular" font-size="20.0" fill="#F6931E" transform="matrix(1.00, 0.00, -0.00, -1.00, 119.4, 6.0)">&lt;</text><text xml:space="preserve" font-family="Menlo-Regular" font-size="20.0" fill="#F6931E" transform="matrix(1.00, 0.00, -0.00, -1.00, 131.5, 6.0)">b</text><text xml:space="preserve" font-family="Menlo-Regular" font-size="20.0" fill="#F6931E" transform="matrix(1.00, 0.00, -0.00, -1.00, 143.5, 6.0)">&gt;</text><text xml:space="preserve" font-family="Menlo-Regular" font-size="20.0" fill="#F6931E" transform="matrix(1.00, 0.00, -0.00, -1.00, 155.5, 6.0)">c</text><text xml:space="preserve" font-family="Menlo-Regular" font-size="20.0" fill="#F6931E" transform="matrix(1.00, 0.00, -0.00, -1.00, 167.6, 6.0)">o</text><text xml:space="preserve" font-family="Menlo-Regular" font-size="20.0" fill="#F6931E" transform="matrix(1.00, 0.00, -0.00, -1.00, 179.6, 6.0)">u</text><text xml:space="preserve" font-family="Menlo-Regular" font-size="20.0" fill="#F6931E" transform="matrix(1.00, 0.00, -0.00, -1.00, 191.7, 6.0)">n</text><text xml:space="preserve" font-family="Menlo-Regular" font-size="20.0" fill="#F6931E" transform="matrix(1.00, 0.00, -0.00, -1.00, 203.7, 6.0)">t</text><text xml:space="preserve" font-family="Menlo-Regular" font-size="20.0" fill="#F6931E" transform="matrix(1.00, 0.00, -0.00, -1.00, 215.8, 6.0)">:</text><text xml:space="preserve" font-family="Menlo-Regular" font-size="20.0" fill="#F6931E" transform="matrix(1.00, 0.00, -0.00, -1.00, 227.8, 6.0)"> </text><text xml:space="preserve" font-family="Menlo-Regular" font-size="20.0" fill="#F6931E" transform="matrix(1.00, 0.00, -0.00, -1.00, 239.8, 6.0)">{</text><text xml:space="preserve" font-family="Menlo-Regular" font-size="20.0" fill="#F6931E" transform="matrix(1.00, 0.00, -0.00, -1.00, 251.9, 6.0)">c</text><text xml:space="preserve" font-family="Menlo-Regular" font-size="20.0" fill="#F6931E" transform="matrix(1.00, 0.00, -0.00, -1.00, 263.9, 6.0)">}</text><text xml:space="preserve" font-family="Menlo-Regular" font-size="20.0" fill="#F6931E" transform="matrix(1.00, 0.00, -0.00, -1.00, 276.0, 6.0)">&lt;</text><text xml:space="preserve" font-family="Menlo-Regular" font-size="20.0" fill="#F6931E" transform="matrix(1.00, 0.00, -0.00, -1.00, 288.0, 6.0)">/</text><text xml:space="preserve" font-family="Menlo-Regular" font-size="20.0" fill="#F6931E" transform="matrix(1.00, 0.00, -0.00, -1.00, 300.1, 6.0)">b</text><text xml:space="preserve" font-family="Menlo-Regular" font-size="20.0" fill="#F6931E" transform="matrix(1.00, 0.00, -0.00, -1.00, 312.1, 6.0)">&gt;</text><text xml:space="preserve" font-family="Menlo-Regular" font-size="20.0" fill="#373840" transform="matrix(1.00, 0.00, -0.00, -1.00, 324.1, 6.0)">)</text></g></svg>