<?xml version="1.0" encoding="UTF-8" standalone="no"?><svg xmlns="http://www.w3.org/2000/svg" xmlns:xlink="http://www.w3.org/1999/xlink" clip-rule="evenodd" stroke-miterlimit="4.00" viewBox="0 0 109 35"><desc>SVG generated by Keynote</desc><defs></defs><g transform="matrix(1.00, 0.00, -0.00, -1.00, 0.0, 35.0)"><path d="M 1.9 33.7 L 107.2 33.7 L 107.2 1.7 L 1.9 1.7 Z M 1.9 33.7 " fill="#FEFFFF"></path><g><clipPath id="clip-214"><path d="M 0.1 -12.1 L 109.1 -12.1 L 109.1 35.6 L 0.1 35.6 Z M 0.1 -12.1 "></path></clipPath><g clip-path="url(#clip-214)"><text xml:space="preserve" font-family="Menlo-Bold" font-weight="bold" font-size="20.0" fill="#F6931E" transform="matrix(1.00, 0.00, -0.00, -1.00, 6.0, 10.0)">c</text><text xml:space="preserve" font-family="Menlo-Bold" font-weight="bold" font-size="20.0" fill="#F6931E" transform="matrix(1.00, 0.00, -0.00, -1.00, 18.0, 10.0)">o</text><text xml:space="preserve" font-family="Menlo-Bold" font-weight="bold" font-size="20.0" fill="#F6931E" transform="matrix(1.00, 0.00, -0.00, -1.00, 30.1, 10.0)">u</text><text xml:space="preserve" font-family="Menlo-Bold" font-weight="bold" font-size="20.0" fill="#F6931E" transform="matrix(1.00, 0.00, -0.00, -1.00, 42.1, 10.0)">n</text><text xml:space="preserve" font-family="Menlo-Bold" font-weight="bold" font-size="20.0" fill="#F6931E" transform="matrix(1.00, 0.00, -0.00, -1.00, 54.2, 10.0)">t</text><text xml:space="preserve" font-family="Menlo-Bold" font-weight="bold" font-size="20.0" fill="#F6931E" transform="matrix(1.00, 0.00, -0.00, -1.00, 66.2, 10.0)">:</text><text xml:space="preserve" font-family="Menlo-Bold" font-weight="bold" font-size="20.0" fill="#F6931E" transform="matrix(1.00, 0.00, -0.00, -1.00, 78.3, 10.0)"> </text><text xml:space="preserve" font-family="Menlo-Bold" font-weight="bold" font-size="20.0" fill="#F6931E" transform="matrix(1.00, 0.00, -0.00, -1.00, 90.3, 10.0)">2</text></g></g></g></svg>