<?xml version="1.0" encoding="UTF-8" standalone="no"?><svg xmlns="http://www.w3.org/2000/svg" xmlns:xlink="http://www.w3.org/1999/xlink" clip-rule="evenodd" stroke-miterlimit="4.00" viewBox="0 0 1024 768"><desc>SVG generated by Keynote</desc><defs></defs><g transform="matrix(1.00, 0.00, -0.00, -1.00, 0.0, 768.0)"><path d="M 0.0 768.0 L 1024.0 768.0 L 1024.0 0.0 L 0.0 0.0 Z M 0.0 768.0 " fill="#FAFAFA"></path><text xml:space="preserve" font-family="Menlo-Regular" font-size="30.0" fill="#373840" transform="matrix(1.00, 0.00, -0.00, -1.00, 232.0, 374.0)">O</text><text xml:space="preserve" font-family="Menlo-Regular" font-size="30.0" fill="#373840" transform="matrix(1.00, 0.00, -0.00, -1.00, 250.1, 374.0)">b</text><text xml:space="preserve" font-family="Menlo-Regular" font-size="30.0" fill="#373840" transform="matrix(1.00, 0.00, -0.00, -1.00, 268.1, 374.0)">s</text><text xml:space="preserve" font-family="Menlo-Regular" font-size="30.0" fill="#373840" transform="matrix(1.00, 0.00, -0.00, -1.00, 286.2, 374.0)">e</text><text xml:space="preserve" font-family="Menlo-Regular" font-size="30.0" fill="#373840" transform="matrix(1.00, 0.00, -0.00, -1.00, 304.3, 374.0)">r</text><text xml:space="preserve" font-family="Menlo-Regular" font-size="30.0" fill="#373840" transform="matrix(1.00, 0.00, -0.00, -1.00, 322.3, 374.0)">v</text><text xml:space="preserve" font-family="Menlo-Regular" font-size="30.0" fill="#373840" transform="matrix(1.00, 0.00, -0.00, -1.00, 340.4, 374.0)">a</text><text xml:space="preserve" font-family="Menlo-Regular" font-size="30.0" fill="#373840" transform="matrix(1.00, 0.00, -0.00, -1.00, 358.5, 374.0)">b</text><text xml:space="preserve" font-family="Menlo-Regular" font-size="30.0" fill="#373840" transform="matrix(1.00, 0.00, -0.00, -1.00, 376.5, 374.0)">l</text><text xml:space="preserve" font-family="Menlo-Regular" font-size="30.0" fill="#373840" transform="matrix(1.00, 0.00, -0.00, -1.00, 394.6, 374.0)">e</text><text xml:space="preserve" font-family="Menlo-Regular" font-size="30.0" fill="#373840" transform="matrix(1.00, 0.00, -0.00, -1.00, 412.6, 374.0)"> </text><text xml:space="preserve" font-family="Menlo-Regular" font-size="30.0" fill="#373840" transform="matrix(1.00, 0.00, -0.00, -1.00, 430.7, 374.0)">=</text><text xml:space="preserve" font-family="Menlo-Regular" font-size="30.0" fill="#373840" transform="matrix(1.00, 0.00, -0.00, -1.00, 448.8, 374.0)"> </text><text xml:space="preserve" font-family="Menlo-Regular" font-size="30.0" fill="#373840" transform="matrix(1.00, 0.00, -0.00, -1.00, 466.8, 374.0)">C</text><text xml:space="preserve" font-family="Menlo-Regular" font-size="30.0" fill="#373840" transform="matrix(1.00, 0.00, -0.00, -1.00, 484.9, 374.0)">o</text><text xml:space="preserve" font-family="Menlo-Regular" font-size="30.0" fill="#373840" transform="matrix(1.00, 0.00, -0.00, -1.00, 503.0, 374.0)">l</text><text xml:space="preserve" font-family="Menlo-Regular" font-size="30.0" fill="#373840" transform="matrix(1.00, 0.00, -0.00, -1.00, 521.0, 374.0)">l</text><text xml:space="preserve" font-family="Menlo-Regular" font-size="30.0" fill="#373840" transform="matrix(1.00, 0.00, -0.00, -1.00, 539.1, 374.0)">e</text><text xml:space="preserve" font-family="Menlo-Regular" font-size="30.0" fill="#373840" transform="matrix(1.00, 0.00, -0.00, -1.00, 557.2, 374.0)">c</text><text xml:space="preserve" font-family="Menlo-Regular" font-size="30.0" fill="#373840" transform="matrix(1.00, 0.00, -0.00, -1.00, 575.2, 374.0)">t</text><text xml:space="preserve" font-family="Menlo-Regular" font-size="30.0" fill="#373840" transform="matrix(1.00, 0.00, -0.00, -1.00, 593.3, 374.0)">i</text><text xml:space="preserve" font-family="Menlo-Regular" font-size="30.0" fill="#373840" transform="matrix(1.00, 0.00, -0.00, -1.00, 611.4, 374.0)">o</text><text xml:space="preserve" font-family="Menlo-Regular" font-size="30.0" fill="#373840" transform="matrix(1.00, 0.00, -0.00, -1.00, 629.4, 374.0)">n</text><text xml:space="preserve" font-family="Menlo-Regular" font-size="30.0" fill="#373840" transform="matrix(1.00, 0.00, -0.00, -1.00, 647.5, 374.0)">s</text><text xml:space="preserve" font-family="Menlo-Regular" font-size="30.0" fill="#373840" transform="matrix(1.00, 0.00, -0.00, -1.00, 665.5, 374.0)"> </text><text xml:space="preserve" font-family="Menlo-Regular" font-size="30.0" fill="#373840" transform="matrix(1.00, 0.00, -0.00, -1.00, 683.6, 374.0)">+</text><text xml:space="preserve" font-family="Menlo-Regular" font-size="30.0" fill="#373840" transform="matrix(1.00, 0.00, -0.00, -1.00, 701.7, 374.0)"> </text><text xml:space="preserve" font-family="Menlo-Regular" font-size="30.0" fill="#373840" transform="matrix(1.00, 0.00, -0.00, -1.00, 719.7, 374.0)">T</text><text xml:space="preserve" font-family="Menlo-Regular" font-size="30.0" fill="#373840" transform="matrix(1.00, 0.00, -0.00, -1.00, 737.8, 374.0)">i</text><text xml:space="preserve" font-family="Menlo-Regular" font-size="30.0" fill="#373840" transform="matrix(1.00, 0.00, -0.00, -1.00, 755.9, 374.0)">m</text><text xml:space="preserve" font-family="Menlo-Regular" font-size="30.0" fill="#373840" transform="matrix(1.00, 0.00, -0.00, -1.00, 773.9, 374.0)">e</text></g></svg>