<?xml version="1.0" encoding="UTF-8" standalone="no"?><svg xmlns="http://www.w3.org/2000/svg" xmlns:xlink="http://www.w3.org/1999/xlink" clip-rule="evenodd" stroke-miterlimit="4.00" viewBox="0 0 1024 768"><desc>SVG generated by Keynote</desc><defs></defs><g transform="matrix(1.00, 0.00, -0.00, -1.00, 0.0, 768.0)"><path d="M 0.0 768.0 L 1024.0 768.0 L 1024.0 0.0 L 0.0 0.0 Z M 0.0 768.0 " fill="#FAFAFA"></path><g><clipPath id="clip-196"><path d="M 59.0 729.0 L 965.0 729.0 L 965.0 39.0 L 59.0 39.0 Z M 59.0 729.0 "></path></clipPath><g clip-path="url(#clip-196)"><image xlink:href="../../C7F88AF0-C307-4F50-8FAC-E0F316F14DA6/assets/0DB52124B79C2337632AEB1D5208D8A6.png" width="710.00" height="540.00" transform="matrix(1.28, 0.00, -0.00, -1.28, 59.0, 729.0)"></image></g></g><path d="M 35.0 761.0 L 968.4 761.0 L 968.4 568.9 L 35.0 568.9 Z M 35.0 761.0 " fill="#FAFAFA" fill-opacity="0.78"></path><path d="M 45.3 204.0 L 978.7 204.0 L 978.7 11.9 L 45.3 11.9 Z M 45.3 204.0 " fill="#FAFAFA" fill-opacity="0.78"></path><path d="M 0.0 0.0 L 177.2 0.0 L 179.7 0.0 " fill="none" stroke="#373840" stroke-width="5.00" transform="matrix(1.00, 0.00, 0.00, -1.00, 809.3, 552.7)"></path><path d="M 986.5 542.5 L 1006.9 552.7 L 986.5 562.9 Z M 986.5 542.5 " fill="#373840"></path><path d="M 0.0 0.0 L 177.2 0.0 L 179.7 0.0 " fill="none" stroke="#373840" stroke-width="5.00" transform="matrix(1.00, 0.00, 0.00, -1.00, 809.3, 518.3)"></path><path d="M 986.5 508.1 L 1006.9 518.3 L 986.5 528.5 Z M 986.5 508.1 " fill="#373840"></path><path d="M 0.0 0.0 L 177.2 0.0 L 179.7 0.0 " fill="none" stroke="#373840" stroke-width="5.00" transform="matrix(1.00, 0.00, 0.00, -1.00, 809.3, 485.9)"></path><path d="M 986.5 475.7 L 1006.9 485.9 L 986.5 496.1 Z M 986.5 475.7 " fill="#373840"></path><path d="M 0.0 0.0 L 177.2 0.0 L 179.7 0.0 " fill="none" stroke="#373840" stroke-width="5.00" transform="matrix(1.00, 0.00, 0.00, -1.00, 809.3, 221.4)"></path><path d="M 986.5 211.2 L 1006.9 221.4 L 986.5 231.6 Z M 986.5 211.2 " fill="#373840"></path><path d="M 0.0 0.0 L 295.2 0.0 " fill="none" stroke="#000000" stroke-width="2.00" stroke-dasharray="2.0, 2.0" transform="matrix(1.00, 0.00, 0.00, -1.00, 513.3, 518.3)"></path><path d="M 0.0 0.0 L 40.4 0.0 " fill="none" stroke="#000000" stroke-width="2.00" stroke-dasharray="2.0, 2.0" transform="matrix(1.00, 0.00, 0.00, -1.00, 772.1, 552.7)"></path><path d="M 0.0 0.0 L 471.2 0.0 " fill="none" stroke="#000000" stroke-width="2.00" stroke-dasharray="2.0, 2.0" transform="matrix(1.00, 0.00, 0.00, -1.00, 337.3, 484.7)"></path><path d="M 0.0 0.0 L 651.6 0.0 " fill="none" stroke="#000000" stroke-width="2.00" stroke-dasharray="2.0, 2.0" transform="matrix(1.00, 0.00, 0.00, -1.00, 159.3, 221.4)"></path><text xml:space="preserve" font-family="Menlo-Regular" font-size="30.0" fill="#373840" transform="matrix(1.00, 0.00, -0.00, -1.00, 929.0, 588.0)">t</text><text xml:space="preserve" font-family="Menlo-Regular" font-size="30.0" fill="#373840" transform="matrix(1.00, 0.00, -0.00, -1.00, 947.1, 588.0)">i</text><text xml:space="preserve" font-family="Menlo-Regular" font-size="30.0" fill="#373840" transform="matrix(1.00, 0.00, -0.00, -1.00, 965.1, 588.0)">m</text><text xml:space="preserve" font-family="Menlo-Regular" font-size="30.0" fill="#373840" transform="matrix(1.00, 0.00, -0.00, -1.00, 983.2, 588.0)">e</text></g></svg>