<?xml version="1.0" encoding="UTF-8" standalone="no"?><svg xmlns="http://www.w3.org/2000/svg" xmlns:xlink="http://www.w3.org/1999/xlink" clip-rule="evenodd" stroke-miterlimit="4.00" viewBox="0 0 1024 768"><desc>SVG generated by Keynote</desc><defs></defs><g transform="matrix(1.00, 0.00, -0.00, -1.00, 0.0, 768.0)"><path d="M 0.0 768.0 L 1024.0 768.0 L 1024.0 0.0 L 0.0 0.0 Z M 0.0 768.0 " fill="#FAFAFA"></path><text xml:space="preserve" font-family="Menlo-Bold" font-weight="bold" font-size="40.0" fill="#373840" transform="matrix(1.00, 0.00, -0.00, -1.00, 211.0, 584.0)">M</text><text xml:space="preserve" font-family="Menlo-Bold" font-weight="bold" font-size="40.0" fill="#373840" transform="matrix(1.00, 0.00, -0.00, -1.00, 235.1, 584.0)">a</text><text xml:space="preserve" font-family="Menlo-Bold" font-weight="bold" font-size="40.0" fill="#373840" transform="matrix(1.00, 0.00, -0.00, -1.00, 259.2, 584.0)">p</text><text xml:space="preserve" font-family="Menlo-Regular" font-size="33.0" fill="#373840" transform="matrix(1.00, 0.00, -0.00, -1.00, 199.0, 449.0)">&gt;</text><text xml:space="preserve" font-family="Menlo-Regular" font-size="33.0" fill="#373840" transform="matrix(1.00, 0.00, -0.00, -1.00, 218.9, 449.0)"> </text><text xml:space="preserve" font-family="Menlo-Regular" font-size="33.0" fill="#373840" transform="matrix(1.00, 0.00, -0.00, -1.00, 238.7, 449.0)">[</text><text xml:space="preserve" font-family="Menlo-Regular" font-size="33.0" fill="#373840" transform="matrix(1.00, 0.00, -0.00, -1.00, 258.6, 449.0)">1</text><text xml:space="preserve" font-family="Menlo-Regular" font-size="33.0" fill="#373840" transform="matrix(1.00, 0.00, -0.00, -1.00, 278.5, 449.0)">…</text><text xml:space="preserve" font-family="Menlo-Regular" font-size="33.0" fill="#373840" transform="matrix(1.00, 0.00, -0.00, -1.00, 298.4, 449.0)">2</text><text xml:space="preserve" font-family="Menlo-Regular" font-size="33.0" fill="#373840" transform="matrix(1.00, 0.00, -0.00, -1.00, 318.2, 449.0)">…</text><text xml:space="preserve" font-family="Menlo-Regular" font-size="33.0" fill="#373840" transform="matrix(1.00, 0.00, -0.00, -1.00, 338.1, 449.0)">…</text><text xml:space="preserve" font-family="Menlo-Regular" font-size="33.0" fill="#373840" transform="matrix(1.00, 0.00, -0.00, -1.00, 358.0, 449.0)">3</text><text xml:space="preserve" font-family="Menlo-Regular" font-size="33.0" fill="#373840" transform="matrix(1.00, 0.00, -0.00, -1.00, 377.8, 449.0)">]</text><text xml:space="preserve" font-family="Menlo-Regular" font-size="33.0" fill="#373840" transform="matrix(1.00, 0.00, -0.00, -1.00, 397.7, 449.0)">.</text><text xml:space="preserve" font-family="Menlo-Regular" font-size="33.0" fill="#3F82EE" transform="matrix(1.00, 0.00, -0.00, -1.00, 417.5, 449.0)">m</text><text xml:space="preserve" font-family="Menlo-Regular" font-size="33.0" fill="#3F82EE" transform="matrix(1.00, 0.00, -0.00, -1.00, 437.4, 449.0)">a</text><text xml:space="preserve" font-family="Menlo-Regular" font-size="33.0" fill="#3F82EE" transform="matrix(1.00, 0.00, -0.00, -1.00, 457.3, 449.0)">p</text><text xml:space="preserve" font-family="Menlo-Regular" font-size="33.0" fill="#373840" transform="matrix(1.00, 0.00, -0.00, -1.00, 477.1, 449.0)">(</text><text xml:space="preserve" font-family="Menlo-Regular" font-size="33.0" fill="#373840" transform="matrix(1.00, 0.00, -0.00, -1.00, 497.0, 449.0)">x</text><text xml:space="preserve" font-family="Menlo-Regular" font-size="33.0" fill="#373840" transform="matrix(1.00, 0.00, -0.00, -1.00, 516.9, 449.0)"> </text><text xml:space="preserve" font-family="Menlo-Regular" font-size="33.0" fill="#373840" transform="matrix(1.00, 0.00, -0.00, -1.00, 536.8, 449.0)">=</text><text xml:space="preserve" font-family="Menlo-Regular" font-size="33.0" fill="#373840" transform="matrix(1.00, 0.00, -0.00, -1.00, 556.6, 449.0)">&gt;</text><text xml:space="preserve" font-family="Menlo-Regular" font-size="33.0" fill="#373840" transform="matrix(1.00, 0.00, -0.00, -1.00, 576.5, 449.0)"> </text><text xml:space="preserve" font-family="Menlo-Regular" font-size="33.0" fill="#373840" transform="matrix(1.00, 0.00, -0.00, -1.00, 596.4, 449.0)">x</text><text xml:space="preserve" font-family="Menlo-Regular" font-size="33.0" fill="#373840" transform="matrix(1.00, 0.00, -0.00, -1.00, 616.2, 449.0)"> </text><text xml:space="preserve" font-family="Menlo-Regular" font-size="33.0" fill="#373840" transform="matrix(1.00, 0.00, -0.00, -1.00, 636.1, 449.0)">+</text><text xml:space="preserve" font-family="Menlo-Regular" font-size="33.0" fill="#373840" transform="matrix(1.00, 0.00, -0.00, -1.00, 656.0, 449.0)"> </text><text xml:space="preserve" font-family="Menlo-Regular" font-size="33.0" fill="#373840" transform="matrix(1.00, 0.00, -0.00, -1.00, 675.9, 449.0)">1</text><text xml:space="preserve" font-family="Menlo-Regular" font-size="33.0" fill="#373840" transform="matrix(1.00, 0.00, -0.00, -1.00, 695.7, 449.0)">)</text><path d="M 0.0 0.0 L 118.4 0.0 L 119.4 0.0 " fill="none" stroke="#373840" stroke-width="2.00" transform="matrix(1.00, 0.00, 0.00, -1.00, 249.0, 495.7)"></path><path d="M 367.4 490.9 L 377.0 495.7 L 367.4 500.4 Z M 367.4 490.9 " fill="#373840"></path><text xml:space="preserve" font-family="Menlo-Regular" font-size="16.0" fill="#373840" transform="matrix(1.00, 0.00, -0.00, -1.00, 294.0, 508.0)">t</text><text xml:space="preserve" font-family="Menlo-Regular" font-size="16.0" fill="#373840" transform="matrix(1.00, 0.00, -0.00, -1.00, 303.6, 508.0)">i</text><text xml:space="preserve" font-family="Menlo-Regular" font-size="16.0" fill="#373840" transform="matrix(1.00, 0.00, -0.00, -1.00, 313.3, 508.0)">m</text><text xml:space="preserve" font-family="Menlo-Regular" font-size="16.0" fill="#373840" transform="matrix(1.00, 0.00, -0.00, -1.00, 322.9, 508.0)">e</text><image xlink:href="../../0E7F6F27-9112-4AE8-B148-809AB43CD4F2/assets/918559E955E2F5CC7334F499AD9929EC.png" width="12.00" height="24.00" transform="matrix(1.58, 0.00, -0.00, -1.58, 721.0, 480.0)"></image></g></svg>