<?xml version="1.0" encoding="UTF-8" standalone="no"?><svg xmlns="http://www.w3.org/2000/svg" xmlns:xlink="http://www.w3.org/1999/xlink" clip-rule="evenodd" stroke-miterlimit="4.00" viewBox="0 0 673 103"><desc>SVG generated by Keynote</desc><defs></defs><g transform="matrix(1.00, 0.00, -0.00, -1.00, 0.0, 103.0)"><text xml:space="preserve" font-family="Menlo-Regular" font-size="30.0" fill="#3F82EE" transform="matrix(1.00, 0.00, -0.00, -1.00, 2.0, 79.0)">A</text><text xml:space="preserve" font-family="Menlo-Regular" font-size="30.0" fill="#3F82EE" transform="matrix(1.00, 0.00, -0.00, -1.00, 20.1, 79.0)">n</text><text xml:space="preserve" font-family="Menlo-Regular" font-size="30.0" fill="#3F82EE" transform="matrix(1.00, 0.00, -0.00, -1.00, 38.1, 79.0)">y</text><text xml:space="preserve" font-family="Menlo-Regular" font-size="30.0" fill="#3F82EE" transform="matrix(1.00, 0.00, -0.00, -1.00, 56.2, 79.0)"> </text><text xml:space="preserve" font-family="Menlo-Regular" font-size="30.0" fill="#3F82EE" transform="matrix(1.00, 0.00, -0.00, -1.00, 74.3, 79.0)">s</text><text xml:space="preserve" font-family="Menlo-Regular" font-size="30.0" fill="#3F82EE" transform="matrix(1.00, 0.00, -0.00, -1.00, 92.3, 79.0)">i</text><text xml:space="preserve" font-family="Menlo-Regular" font-size="30.0" fill="#3F82EE" transform="matrix(1.00, 0.00, -0.00, -1.00, 110.4, 79.0)">d</text><text xml:space="preserve" font-family="Menlo-Regular" font-size="30.0" fill="#3F82EE" transform="matrix(1.00, 0.00, -0.00, -1.00, 128.5, 79.0)">e</text><text xml:space="preserve" font-family="Menlo-Regular" font-size="30.0" fill="#3F82EE" transform="matrix(1.00, 0.00, -0.00, -1.00, 146.5, 79.0)">-</text><text xml:space="preserve" font-family="Menlo-Regular" font-size="30.0" fill="#3F82EE" transform="matrix(1.00, 0.00, -0.00, -1.00, 164.6, 79.0)">e</text><text xml:space="preserve" font-family="Menlo-Regular" font-size="30.0" fill="#3F82EE" transform="matrix(1.00, 0.00, -0.00, -1.00, 182.6, 79.0)">f</text><text xml:space="preserve" font-family="Menlo-Regular" font-size="30.0" fill="#3F82EE" transform="matrix(1.00, 0.00, -0.00, -1.00, 200.7, 79.0)">f</text><text xml:space="preserve" font-family="Menlo-Regular" font-size="30.0" fill="#3F82EE" transform="matrix(1.00, 0.00, -0.00, -1.00, 218.8, 79.0)">e</text><text xml:space="preserve" font-family="Menlo-Regular" font-size="30.0" fill="#3F82EE" transform="matrix(1.00, 0.00, -0.00, -1.00, 236.8, 79.0)">c</text><text xml:space="preserve" font-family="Menlo-Regular" font-size="30.0" fill="#3F82EE" transform="matrix(1.00, 0.00, -0.00, -1.00, 254.9, 79.0)">t</text><text xml:space="preserve" font-family="Menlo-Regular" font-size="30.0" fill="#3F82EE" transform="matrix(1.00, 0.00, -0.00, -1.00, 273.0, 79.0)"> </text><text xml:space="preserve" font-family="Menlo-Regular" font-size="30.0" fill="#3F82EE" transform="matrix(1.00, 0.00, -0.00, -1.00, 291.0, 79.0)">i</text><text xml:space="preserve" font-family="Menlo-Regular" font-size="30.0" fill="#3F82EE" transform="matrix(1.00, 0.00, -0.00, -1.00, 309.1, 79.0)">n</text><text xml:space="preserve" font-family="Menlo-Regular" font-size="30.0" fill="#3F82EE" transform="matrix(1.00, 0.00, -0.00, -1.00, 327.2, 79.0)">t</text><text xml:space="preserve" font-family="Menlo-Regular" font-size="30.0" fill="#3F82EE" transform="matrix(1.00, 0.00, -0.00, -1.00, 345.2, 79.0)">r</text><text xml:space="preserve" font-family="Menlo-Regular" font-size="30.0" fill="#3F82EE" transform="matrix(1.00, 0.00, -0.00, -1.00, 363.3, 79.0)">o</text><text xml:space="preserve" font-family="Menlo-Regular" font-size="30.0" fill="#3F82EE" transform="matrix(1.00, 0.00, -0.00, -1.00, 381.4, 79.0)">d</text><text xml:space="preserve" font-family="Menlo-Regular" font-size="30.0" fill="#3F82EE" transform="matrix(1.00, 0.00, -0.00, -1.00, 399.4, 79.0)">u</text><text xml:space="preserve" font-family="Menlo-Regular" font-size="30.0" fill="#3F82EE" transform="matrix(1.00, 0.00, -0.00, -1.00, 417.5, 79.0)">c</text><text xml:space="preserve" font-family="Menlo-Regular" font-size="30.0" fill="#3F82EE" transform="matrix(1.00, 0.00, -0.00, -1.00, 435.5, 79.0)">e</text><text xml:space="preserve" font-family="Menlo-Regular" font-size="30.0" fill="#3F82EE" transform="matrix(1.00, 0.00, -0.00, -1.00, 453.6, 79.0)">s</text><text xml:space="preserve" font-family="Menlo-Regular" font-size="30.0" fill="#3F82EE" transform="matrix(1.00, 0.00, -0.00, -1.00, 471.7, 79.0)"> </text><text xml:space="preserve" font-family="Menlo-Regular" font-size="30.0" fill="#3F82EE" transform="matrix(1.00, 0.00, -0.00, -1.00, 489.7, 79.0)">e</text><text xml:space="preserve" font-family="Menlo-Regular" font-size="30.0" fill="#3F82EE" transform="matrix(1.00, 0.00, -0.00, -1.00, 507.8, 79.0)">x</text><text xml:space="preserve" font-family="Menlo-Regular" font-size="30.0" fill="#3F82EE" transform="matrix(1.00, 0.00, -0.00, -1.00, 525.9, 79.0)">t</text><text xml:space="preserve" font-family="Menlo-Regular" font-size="30.0" fill="#3F82EE" transform="matrix(1.00, 0.00, -0.00, -1.00, 543.9, 79.0)">r</text><text xml:space="preserve" font-family="Menlo-Regular" font-size="30.0" fill="#3F82EE" transform="matrix(1.00, 0.00, -0.00, -1.00, 562.0, 79.0)">a</text><text xml:space="preserve" font-family="Menlo-Regular" font-size="30.0" fill="#3F82EE" transform="matrix(1.00, 0.00, -0.00, -1.00, 580.1, 79.0)"> </text><text xml:space="preserve" font-family="Menlo-Regular" font-size="30.0" fill="#3F82EE" transform="matrix(1.00, 0.00, -0.00, -1.00, 2.0, 44.0)">i</text><text xml:space="preserve" font-family="Menlo-Regular" font-size="30.0" fill="#3F82EE" transform="matrix(1.00, 0.00, -0.00, -1.00, 20.1, 44.0)">n</text><text xml:space="preserve" font-family="Menlo-Regular" font-size="30.0" fill="#3F82EE" transform="matrix(1.00, 0.00, -0.00, -1.00, 38.1, 44.0)">p</text><text xml:space="preserve" font-family="Menlo-Regular" font-size="30.0" fill="#3F82EE" transform="matrix(1.00, 0.00, -0.00, -1.00, 56.2, 44.0)">u</text><text xml:space="preserve" font-family="Menlo-Regular" font-size="30.0" fill="#3F82EE" transform="matrix(1.00, 0.00, -0.00, -1.00, 74.3, 44.0)">t</text><text xml:space="preserve" font-family="Menlo-Regular" font-size="30.0" fill="#3F82EE" transform="matrix(1.00, 0.00, -0.00, -1.00, 92.3, 44.0)">/</text><text xml:space="preserve" font-family="Menlo-Regular" font-size="30.0" fill="#3F82EE" transform="matrix(1.00, 0.00, -0.00, -1.00, 110.4, 44.0)">o</text><text xml:space="preserve" font-family="Menlo-Regular" font-size="30.0" fill="#3F82EE" transform="matrix(1.00, 0.00, -0.00, -1.00, 128.5, 44.0)">u</text><text xml:space="preserve" font-family="Menlo-Regular" font-size="30.0" fill="#3F82EE" transform="matrix(1.00, 0.00, -0.00, -1.00, 146.5, 44.0)">t</text><text xml:space="preserve" font-family="Menlo-Regular" font-size="30.0" fill="#3F82EE" transform="matrix(1.00, 0.00, -0.00, -1.00, 164.6, 44.0)">p</text><text xml:space="preserve" font-family="Menlo-Regular" font-size="30.0" fill="#3F82EE" transform="matrix(1.00, 0.00, -0.00, -1.00, 182.6, 44.0)">u</text><text xml:space="preserve" font-family="Menlo-Regular" font-size="30.0" fill="#3F82EE" transform="matrix(1.00, 0.00, -0.00, -1.00, 200.7, 44.0)">t</text><text xml:space="preserve" font-family="Menlo-Regular" font-size="30.0" fill="#3F82EE" transform="matrix(1.00, 0.00, -0.00, -1.00, 218.8, 44.0)"> </text><text xml:space="preserve" font-family="Menlo-Regular" font-size="30.0" fill="#3F82EE" transform="matrix(1.00, 0.00, -0.00, -1.00, 236.8, 44.0)">p</text><text xml:space="preserve" font-family="Menlo-Regular" font-size="30.0" fill="#3F82EE" transform="matrix(1.00, 0.00, -0.00, -1.00, 254.9, 44.0)">a</text><text xml:space="preserve" font-family="Menlo-Regular" font-size="30.0" fill="#3F82EE" transform="matrix(1.00, 0.00, -0.00, -1.00, 273.0, 44.0)">r</text><text xml:space="preserve" font-family="Menlo-Regular" font-size="30.0" fill="#3F82EE" transform="matrix(1.00, 0.00, -0.00, -1.00, 291.0, 44.0)">a</text><text xml:space="preserve" font-family="Menlo-Regular" font-size="30.0" fill="#3F82EE" transform="matrix(1.00, 0.00, -0.00, -1.00, 309.1, 44.0)">m</text><text xml:space="preserve" font-family="Menlo-Regular" font-size="30.0" fill="#3F82EE" transform="matrix(1.00, 0.00, -0.00, -1.00, 327.2, 44.0)">e</text><text xml:space="preserve" font-family="Menlo-Regular" font-size="30.0" fill="#3F82EE" transform="matrix(1.00, 0.00, -0.00, -1.00, 345.2, 44.0)">t</text><text xml:space="preserve" font-family="Menlo-Regular" font-size="30.0" fill="#3F82EE" transform="matrix(1.00, 0.00, -0.00, -1.00, 363.3, 44.0)">e</text><text xml:space="preserve" font-family="Menlo-Regular" font-size="30.0" fill="#3F82EE" transform="matrix(1.00, 0.00, -0.00, -1.00, 381.4, 44.0)">r</text><text xml:space="preserve" font-family="Menlo-Regular" font-size="30.0" fill="#3F82EE" transform="matrix(1.00, 0.00, -0.00, -1.00, 399.4, 44.0)">s</text><text xml:space="preserve" font-family="Menlo-Regular" font-size="30.0" fill="#3F82EE" transform="matrix(1.00, 0.00, -0.00, -1.00, 417.5, 44.0)"> </text><text xml:space="preserve" font-family="Menlo-Regular" font-size="30.0" fill="#3F82EE" transform="matrix(1.00, 0.00, -0.00, -1.00, 435.5, 44.0)">w</text><text xml:space="preserve" font-family="Menlo-Regular" font-size="30.0" fill="#3F82EE" transform="matrix(1.00, 0.00, -0.00, -1.00, 453.6, 44.0)">h</text><text xml:space="preserve" font-family="Menlo-Regular" font-size="30.0" fill="#3F82EE" transform="matrix(1.00, 0.00, -0.00, -1.00, 471.7, 44.0)">i</text><text xml:space="preserve" font-family="Menlo-Regular" font-size="30.0" fill="#3F82EE" transform="matrix(1.00, 0.00, -0.00, -1.00, 489.7, 44.0)">c</text><text xml:space="preserve" font-family="Menlo-Regular" font-size="30.0" fill="#3F82EE" transform="matrix(1.00, 0.00, -0.00, -1.00, 507.8, 44.0)">h</text><text xml:space="preserve" font-family="Menlo-Regular" font-size="30.0" fill="#3F82EE" transform="matrix(1.00, 0.00, -0.00, -1.00, 525.9, 44.0)"> </text><text xml:space="preserve" font-family="Menlo-Regular" font-size="30.0" fill="#3F82EE" transform="matrix(1.00, 0.00, -0.00, -1.00, 543.9, 44.0)">m</text><text xml:space="preserve" font-family="Menlo-Regular" font-size="30.0" fill="#3F82EE" transform="matrix(1.00, 0.00, -0.00, -1.00, 562.0, 44.0)">u</text><text xml:space="preserve" font-family="Menlo-Regular" font-size="30.0" fill="#3F82EE" transform="matrix(1.00, 0.00, -0.00, -1.00, 580.1, 44.0)">s</text><text xml:space="preserve" font-family="Menlo-Regular" font-size="30.0" fill="#3F82EE" transform="matrix(1.00, 0.00, -0.00, -1.00, 598.1, 44.0)">t</text><text xml:space="preserve" font-family="Menlo-Regular" font-size="30.0" fill="#3F82EE" transform="matrix(1.00, 0.00, -0.00, -1.00, 616.2, 44.0)"> </text><text xml:space="preserve" font-family="Menlo-Regular" font-size="30.0" fill="#3F82EE" transform="matrix(1.00, 0.00, -0.00, -1.00, 634.3, 44.0)">b</text><text xml:space="preserve" font-family="Menlo-Regular" font-size="30.0" fill="#3F82EE" transform="matrix(1.00, 0.00, -0.00, -1.00, 652.3, 44.0)">e</text><text xml:space="preserve" font-family="Menlo-Regular" font-size="30.0" fill="#3F82EE" transform="matrix(1.00, 0.00, -0.00, -1.00, 670.4, 44.0)"> </text><text xml:space="preserve" font-family="Menlo-Regular" font-size="30.0" fill="#3F82EE" transform="matrix(1.00, 0.00, -0.00, -1.00, 2.0, 9.0)">t</text><text xml:space="preserve" font-family="Menlo-Regular" font-size="30.0" fill="#3F82EE" transform="matrix(1.00, 0.00, -0.00, -1.00, 20.1, 9.0)">a</text><text xml:space="preserve" font-family="Menlo-Regular" font-size="30.0" fill="#3F82EE" transform="matrix(1.00, 0.00, -0.00, -1.00, 38.1, 9.0)">k</text><text xml:space="preserve" font-family="Menlo-Regular" font-size="30.0" fill="#3F82EE" transform="matrix(1.00, 0.00, -0.00, -1.00, 56.2, 9.0)">e</text><text xml:space="preserve" font-family="Menlo-Regular" font-size="30.0" fill="#3F82EE" transform="matrix(1.00, 0.00, -0.00, -1.00, 74.3, 9.0)">n</text><text xml:space="preserve" font-family="Menlo-Regular" font-size="30.0" fill="#3F82EE" transform="matrix(1.00, 0.00, -0.00, -1.00, 92.3, 9.0)"> </text><text xml:space="preserve" font-family="Menlo-Regular" font-size="30.0" fill="#3F82EE" transform="matrix(1.00, 0.00, -0.00, -1.00, 110.4, 9.0)">i</text><text xml:space="preserve" font-family="Menlo-Regular" font-size="30.0" fill="#3F82EE" transform="matrix(1.00, 0.00, -0.00, -1.00, 128.5, 9.0)">n</text><text xml:space="preserve" font-family="Menlo-Regular" font-size="30.0" fill="#3F82EE" transform="matrix(1.00, 0.00, -0.00, -1.00, 146.5, 9.0)"> </text><text xml:space="preserve" font-family="Menlo-Regular" font-size="30.0" fill="#3F82EE" transform="matrix(1.00, 0.00, -0.00, -1.00, 164.6, 9.0)">a</text><text xml:space="preserve" font-family="Menlo-Regular" font-size="30.0" fill="#3F82EE" transform="matrix(1.00, 0.00, -0.00, -1.00, 182.6, 9.0)">c</text><text xml:space="preserve" font-family="Menlo-Regular" font-size="30.0" fill="#3F82EE" transform="matrix(1.00, 0.00, -0.00, -1.00, 200.7, 9.0)">c</text><text xml:space="preserve" font-family="Menlo-Regular" font-size="30.0" fill="#3F82EE" transform="matrix(1.00, 0.00, -0.00, -1.00, 218.8, 9.0)">o</text><text xml:space="preserve" font-family="Menlo-Regular" font-size="30.0" fill="#3F82EE" transform="matrix(1.00, 0.00, -0.00, -1.00, 236.8, 9.0)">u</text><text xml:space="preserve" font-family="Menlo-Regular" font-size="30.0" fill="#3F82EE" transform="matrix(1.00, 0.00, -0.00, -1.00, 254.9, 9.0)">n</text><text xml:space="preserve" font-family="Menlo-Regular" font-size="30.0" fill="#3F82EE" transform="matrix(1.00, 0.00, -0.00, -1.00, 273.0, 9.0)">t</text><text xml:space="preserve" font-family="Menlo-Regular" font-size="30.0" fill="#3F82EE" transform="matrix(1.00, 0.00, -0.00, -1.00, 291.0, 9.0)"> </text><text xml:space="preserve" font-family="Menlo-Regular" font-size="30.0" fill="#3F82EE" transform="matrix(1.00, 0.00, -0.00, -1.00, 309.1, 9.0)">w</text><text xml:space="preserve" font-family="Menlo-Regular" font-size="30.0" fill="#3F82EE" transform="matrix(1.00, 0.00, -0.00, -1.00, 327.2, 9.0)">h</text><text xml:space="preserve" font-family="Menlo-Regular" font-size="30.0" fill="#3F82EE" transform="matrix(1.00, 0.00, -0.00, -1.00, 345.2, 9.0)">e</text><text xml:space="preserve" font-family="Menlo-Regular" font-size="30.0" fill="#3F82EE" transform="matrix(1.00, 0.00, -0.00, -1.00, 363.3, 9.0)">n</text><text xml:space="preserve" font-family="Menlo-Regular" font-size="30.0" fill="#3F82EE" transform="matrix(1.00, 0.00, -0.00, -1.00, 381.4, 9.0)"> </text><text xml:space="preserve" font-family="Menlo-Regular" font-size="30.0" fill="#3F82EE" transform="matrix(1.00, 0.00, -0.00, -1.00, 399.4, 9.0)">t</text><text xml:space="preserve" font-family="Menlo-Regular" font-size="30.0" fill="#3F82EE" transform="matrix(1.00, 0.00, -0.00, -1.00, 417.5, 9.0)">e</text><text xml:space="preserve" font-family="Menlo-Regular" font-size="30.0" fill="#3F82EE" transform="matrix(1.00, 0.00, -0.00, -1.00, 435.5, 9.0)">s</text><text xml:space="preserve" font-family="Menlo-Regular" font-size="30.0" fill="#3F82EE" transform="matrix(1.00, 0.00, -0.00, -1.00, 453.6, 9.0)">t</text><text xml:space="preserve" font-family="Menlo-Regular" font-size="30.0" fill="#3F82EE" transform="matrix(1.00, 0.00, -0.00, -1.00, 471.7, 9.0)">i</text><text xml:space="preserve" font-family="Menlo-Regular" font-size="30.0" fill="#3F82EE" transform="matrix(1.00, 0.00, -0.00, -1.00, 489.7, 9.0)">n</text><text xml:space="preserve" font-family="Menlo-Regular" font-size="30.0" fill="#3F82EE" transform="matrix(1.00, 0.00, -0.00, -1.00, 507.8, 9.0)">g</text><text xml:space="preserve" font-family="Menlo-Regular" font-size="30.0" fill="#3F82EE" transform="matrix(1.00, 0.00, -0.00, -1.00, 525.9, 9.0)">.</text></g></svg>