<?xml version="1.0" encoding="UTF-8" standalone="no"?><svg xmlns="http://www.w3.org/2000/svg" xmlns:xlink="http://www.w3.org/1999/xlink" clip-rule="evenodd" stroke-miterlimit="4.00" viewBox="0 0 1024 768"><desc>SVG generated by Keynote</desc><defs></defs><g transform="matrix(1.00, 0.00, -0.00, -1.00, 0.0, 768.0)"><path d="M 0.0 768.0 L 1024.0 768.0 L 1024.0 0.0 L 0.0 0.0 Z M 0.0 768.0 " fill="#FAFAFA"></path><g opacity="0.30"><g><clipPath id="clip-122"><path d="M 0.0 0.0 L 1024.0 0.0 L 1024.0 768.0 L 0.0 768.0 Z M 0.0 0.0 "></path></clipPath><g clip-path="url(#clip-122)"><text xml:space="preserve" font-family="Menlo-Regular" font-size="40.0" fill="#3F82EE" transform="matrix(1.00, 0.00, -0.00, -1.00, 177.0, 525.0)">C</text><text xml:space="preserve" font-family="Menlo-Regular" font-size="40.0" fill="#3F82EE" transform="matrix(1.00, 0.00, -0.00, -1.00, 201.1, 525.0)">o</text><text xml:space="preserve" font-family="Menlo-Regular" font-size="40.0" fill="#3F82EE" transform="matrix(1.00, 0.00, -0.00, -1.00, 225.2, 525.0)">n</text><text xml:space="preserve" font-family="Menlo-Regular" font-size="40.0" fill="#3F82EE" transform="matrix(1.00, 0.00, -0.00, -1.00, 249.3, 525.0)">c</text><text xml:space="preserve" font-family="Menlo-Regular" font-size="40.0" fill="#3F82EE" transform="matrix(1.00, 0.00, -0.00, -1.00, 273.3, 525.0)">e</text><text xml:space="preserve" font-family="Menlo-Regular" font-size="40.0" fill="#3F82EE" transform="matrix(1.00, 0.00, -0.00, -1.00, 297.4, 525.0)">p</text><text xml:space="preserve" font-family="Menlo-Regular" font-size="40.0" fill="#3F82EE" transform="matrix(1.00, 0.00, -0.00, -1.00, 321.5, 525.0)">t</text><text xml:space="preserve" font-family="Menlo-Regular" font-size="40.0" fill="#3F82EE" transform="matrix(1.00, 0.00, -0.00, -1.00, 345.6, 525.0)"> </text><text xml:space="preserve" font-family="Menlo-Regular" font-size="40.0" fill="#3F82EE" transform="matrix(1.00, 0.00, -0.00, -1.00, 369.7, 525.0)">1</text><text xml:space="preserve" font-family="Menlo-Regular" font-size="40.0" fill="#3F82EE" transform="matrix(1.00, 0.00, -0.00, -1.00, 393.8, 525.0)">)</text><text xml:space="preserve" font-family="Menlo-Regular" font-size="40.0" fill="#373840" transform="matrix(1.00, 0.00, -0.00, -1.00, 177.0, 479.0)">O</text><text xml:space="preserve" font-family="Menlo-Regular" font-size="40.0" fill="#373840" transform="matrix(1.00, 0.00, -0.00, -1.00, 201.1, 479.0)">b</text><text xml:space="preserve" font-family="Menlo-Regular" font-size="40.0" fill="#373840" transform="matrix(1.00, 0.00, -0.00, -1.00, 225.2, 479.0)">s</text><text xml:space="preserve" font-family="Menlo-Regular" font-size="40.0" fill="#373840" transform="matrix(1.00, 0.00, -0.00, -1.00, 249.3, 479.0)">e</text><text xml:space="preserve" font-family="Menlo-Regular" font-size="40.0" fill="#373840" transform="matrix(1.00, 0.00, -0.00, -1.00, 273.3, 479.0)">r</text><text xml:space="preserve" font-family="Menlo-Regular" font-size="40.0" fill="#373840" transform="matrix(1.00, 0.00, -0.00, -1.00, 297.4, 479.0)">v</text><text xml:space="preserve" font-family="Menlo-Regular" font-size="40.0" fill="#373840" transform="matrix(1.00, 0.00, -0.00, -1.00, 321.5, 479.0)">a</text><text xml:space="preserve" font-family="Menlo-Regular" font-size="40.0" fill="#373840" transform="matrix(1.00, 0.00, -0.00, -1.00, 345.6, 479.0)">b</text><text xml:space="preserve" font-family="Menlo-Regular" font-size="40.0" fill="#373840" transform="matrix(1.00, 0.00, -0.00, -1.00, 369.7, 479.0)">l</text><text xml:space="preserve" font-family="Menlo-Regular" font-size="40.0" fill="#373840" transform="matrix(1.00, 0.00, -0.00, -1.00, 393.8, 479.0)">e</text><text xml:space="preserve" font-family="Menlo-Regular" font-size="40.0" fill="#373840" transform="matrix(1.00, 0.00, -0.00, -1.00, 417.9, 479.0)"> </text><text xml:space="preserve" font-family="Menlo-Regular" font-size="40.0" fill="#373840" transform="matrix(1.00, 0.00, -0.00, -1.00, 441.9, 479.0)">(</text></g></g></g><g opacity="0.30"><g><clipPath id="clip-123"><path d="M 0.0 0.0 L 1024.0 0.0 L 1024.0 768.0 L 0.0 768.0 Z M 0.0 0.0 "></path></clipPath><g clip-path="url(#clip-123)"><text xml:space="preserve" font-family="Menlo-Regular" font-size="40.0" fill="#D56653" transform="matrix(1.00, 0.00, -0.00, -1.00, 177.0, 393.0)">C</text><text xml:space="preserve" font-family="Menlo-Regular" font-size="40.0" fill="#D56653" transform="matrix(1.00, 0.00, -0.00, -1.00, 201.1, 393.0)">o</text><text xml:space="preserve" font-family="Menlo-Regular" font-size="40.0" fill="#D56653" transform="matrix(1.00, 0.00, -0.00, -1.00, 225.2, 393.0)">n</text><text xml:space="preserve" font-family="Menlo-Regular" font-size="40.0" fill="#D56653" transform="matrix(1.00, 0.00, -0.00, -1.00, 249.3, 393.0)">c</text><text xml:space="preserve" font-family="Menlo-Regular" font-size="40.0" fill="#D56653" transform="matrix(1.00, 0.00, -0.00, -1.00, 273.3, 393.0)">e</text><text xml:space="preserve" font-family="Menlo-Regular" font-size="40.0" fill="#D56653" transform="matrix(1.00, 0.00, -0.00, -1.00, 297.4, 393.0)">p</text><text xml:space="preserve" font-family="Menlo-Regular" font-size="40.0" fill="#D56653" transform="matrix(1.00, 0.00, -0.00, -1.00, 321.5, 393.0)">t</text><text xml:space="preserve" font-family="Menlo-Regular" font-size="40.0" fill="#D56653" transform="matrix(1.00, 0.00, -0.00, -1.00, 345.6, 393.0)"> </text><text xml:space="preserve" font-family="Menlo-Regular" font-size="40.0" fill="#D56653" transform="matrix(1.00, 0.00, -0.00, -1.00, 369.7, 393.0)">2</text><text xml:space="preserve" font-family="Menlo-Regular" font-size="40.0" fill="#D56653" transform="matrix(1.00, 0.00, -0.00, -1.00, 393.8, 393.0)">)</text><text xml:space="preserve" font-family="Menlo-Regular" font-size="40.0" fill="#373840" transform="matrix(1.00, 0.00, -0.00, -1.00, 177.0, 347.0)">f</text><text xml:space="preserve" font-family="Menlo-Regular" font-size="40.0" fill="#373840" transform="matrix(1.00, 0.00, -0.00, -1.00, 201.1, 347.0)">r</text><text xml:space="preserve" font-family="Menlo-Regular" font-size="40.0" fill="#373840" transform="matrix(1.00, 0.00, -0.00, -1.00, 225.2, 347.0)">o</text><text xml:space="preserve" font-family="Menlo-Regular" font-size="40.0" fill="#373840" transform="matrix(1.00, 0.00, -0.00, -1.00, 249.3, 347.0)">m</text><text xml:space="preserve" font-family="Menlo-Regular" font-size="40.0" fill="#373840" transform="matrix(1.00, 0.00, -0.00, -1.00, 273.3, 347.0)"> </text><text xml:space="preserve" font-family="Menlo-Regular" font-size="40.0" fill="#373840" transform="matrix(1.00, 0.00, -0.00, -1.00, 297.4, 347.0)">e</text><text xml:space="preserve" font-family="Menlo-Regular" font-size="40.0" fill="#373840" transform="matrix(1.00, 0.00, -0.00, -1.00, 321.5, 347.0)">f</text><text xml:space="preserve" font-family="Menlo-Regular" font-size="40.0" fill="#373840" transform="matrix(1.00, 0.00, -0.00, -1.00, 345.6, 347.0)">f</text><text xml:space="preserve" font-family="Menlo-Regular" font-size="40.0" fill="#373840" transform="matrix(1.00, 0.00, -0.00, -1.00, 369.7, 347.0)">e</text><text xml:space="preserve" font-family="Menlo-Regular" font-size="40.0" fill="#373840" transform="matrix(1.00, 0.00, -0.00, -1.00, 393.8, 347.0)">c</text><text xml:space="preserve" font-family="Menlo-Regular" font-size="40.0" fill="#373840" transform="matrix(1.00, 0.00, -0.00, -1.00, 417.9, 347.0)">t</text><text xml:space="preserve" font-family="Menlo-Regular" font-size="40.0" fill="#373840" transform="matrix(1.00, 0.00, -0.00, -1.00, 441.9, 347.0)">s</text><text xml:space="preserve" font-family="Menlo-Regular" font-size="40.0" fill="#373840" transform="matrix(1.00, 0.00, -0.00, -1.00, 466.0, 347.0)">.</text></g></g></g><text xml:space="preserve" font-family="Menlo-Regular" font-size="40.0" fill="#9848A3" transform="matrix(1.00, 0.00, -0.00, -1.00, 177.0, 261.0)">C</text><text xml:space="preserve" font-family="Menlo-Regular" font-size="40.0" fill="#9848A3" transform="matrix(1.00, 0.00, -0.00, -1.00, 201.1, 261.0)">o</text><text xml:space="preserve" font-family="Menlo-Regular" font-size="40.0" fill="#9848A3" transform="matrix(1.00, 0.00, -0.00, -1.00, 225.2, 261.0)">n</text><text xml:space="preserve" font-family="Menlo-Regular" font-size="40.0" fill="#9848A3" transform="matrix(1.00, 0.00, -0.00, -1.00, 249.3, 261.0)">c</text><text xml:space="preserve" font-family="Menlo-Regular" font-size="40.0" fill="#9848A3" transform="matrix(1.00, 0.00, -0.00, -1.00, 273.3, 261.0)">e</text><text xml:space="preserve" font-family="Menlo-Regular" font-size="40.0" fill="#9848A3" transform="matrix(1.00, 0.00, -0.00, -1.00, 297.4, 261.0)">p</text><text xml:space="preserve" font-family="Menlo-Regular" font-size="40.0" fill="#9848A3" transform="matrix(1.00, 0.00, -0.00, -1.00, 321.5, 261.0)">t</text><text xml:space="preserve" font-family="Menlo-Regular" font-size="40.0" fill="#9848A3" transform="matrix(1.00, 0.00, -0.00, -1.00, 345.6, 261.0)"> </text><text xml:space="preserve" font-family="Menlo-Regular" font-size="40.0" fill="#9848A3" transform="matrix(1.00, 0.00, -0.00, -1.00, 369.7, 261.0)">3</text><text xml:space="preserve" font-family="Menlo-Regular" font-size="40.0" fill="#9848A3" transform="matrix(1.00, 0.00, -0.00, -1.00, 393.8, 261.0)">)</text><text xml:space="preserve" font-family="Menlo-Regular" font-size="40.0" fill="#373840" transform="matrix(1.00, 0.00, -0.00, -1.00, 417.8, 261.0)"> </text><text xml:space="preserve" font-family="Menlo-Regular" font-size="40.0" fill="#373840" transform="matrix(1.00, 0.00, -0.00, -1.00, 441.9, 261.0)">Y</text><text xml:space="preserve" font-family="Menlo-Regular" font-size="40.0" fill="#373840" transform="matrix(1.00, 0.00, -0.00, -1.00, 466.0, 261.0)">o</text><text xml:space="preserve" font-family="Menlo-Regular" font-size="40.0" fill="#373840" transform="matrix(1.00, 0.00, -0.00, -1.00, 490.1, 261.0)">u</text><text xml:space="preserve" font-family="Menlo-Regular" font-size="40.0" fill="#373840" transform="matrix(1.00, 0.00, -0.00, -1.00, 514.2, 261.0)">r</text><text xml:space="preserve" font-family="Menlo-Regular" font-size="40.0" fill="#373840" transform="matrix(1.00, 0.00, -0.00, -1.00, 538.3, 261.0)"> </text><text xml:space="preserve" font-family="Menlo-Regular" font-size="40.0" fill="#373840" transform="matrix(1.00, 0.00, -0.00, -1.00, 562.3, 261.0)">a</text><text xml:space="preserve" font-family="Menlo-Regular" font-size="40.0" fill="#373840" transform="matrix(1.00, 0.00, -0.00, -1.00, 586.4, 261.0)">p</text><text xml:space="preserve" font-family="Menlo-Regular" font-size="40.0" fill="#373840" transform="matrix(1.00, 0.00, -0.00, -1.00, 610.5, 261.0)">p</text><text xml:space="preserve" font-family="Menlo-Regular" font-size="40.0" fill="#373840" transform="matrix(1.00, 0.00, -0.00, -1.00, 634.6, 261.0)"> </text><text xml:space="preserve" font-family="Menlo-Regular" font-size="40.0" fill="#373840" transform="matrix(1.00, 0.00, -0.00, -1.00, 658.6, 261.0)">i</text><text xml:space="preserve" font-family="Menlo-Regular" font-size="40.0" fill="#373840" transform="matrix(1.00, 0.00, -0.00, -1.00, 682.7, 261.0)">s</text><text xml:space="preserve" font-family="Menlo-Regular" font-size="40.0" fill="#373840" transform="matrix(1.00, 0.00, -0.00, -1.00, 706.8, 261.0)"> </text><text xml:space="preserve" font-family="Menlo-Regular" font-size="40.0" fill="#373840" transform="matrix(1.00, 0.00, -0.00, -1.00, 730.9, 261.0)">p</text><text xml:space="preserve" font-family="Menlo-Regular" font-size="40.0" fill="#373840" transform="matrix(1.00, 0.00, -0.00, -1.00, 755.0, 261.0)">u</text><text xml:space="preserve" font-family="Menlo-Regular" font-size="40.0" fill="#373840" transform="matrix(1.00, 0.00, -0.00, -1.00, 779.1, 261.0)">r</text><text xml:space="preserve" font-family="Menlo-Regular" font-size="40.0" fill="#373840" transform="matrix(1.00, 0.00, -0.00, -1.00, 803.2, 261.0)">e</text><text xml:space="preserve" font-family="Menlo-Regular" font-size="40.0" fill="#373840" transform="matrix(1.00, 0.00, -0.00, -1.00, 827.2, 261.0)"> </text><text xml:space="preserve" font-family="Menlo-Regular" font-size="40.0" fill="#373840" transform="matrix(1.00, 0.00, -0.00, -1.00, 177.0, 215.0)">d</text><text xml:space="preserve" font-family="Menlo-Regular" font-size="40.0" fill="#373840" transform="matrix(1.00, 0.00, -0.00, -1.00, 201.1, 215.0)">a</text><text xml:space="preserve" font-family="Menlo-Regular" font-size="40.0" fill="#373840" transform="matrix(1.00, 0.00, -0.00, -1.00, 225.2, 215.0)">t</text><text xml:space="preserve" font-family="Menlo-Regular" font-size="40.0" fill="#373840" transform="matrix(1.00, 0.00, -0.00, -1.00, 249.3, 215.0)">a</text><text xml:space="preserve" font-family="Menlo-Regular" font-size="40.0" fill="#373840" transform="matrix(1.00, 0.00, -0.00, -1.00, 273.3, 215.0)"> </text><text xml:space="preserve" font-family="Menlo-Regular" font-size="40.0" fill="#373840" transform="matrix(1.00, 0.00, -0.00, -1.00, 297.4, 215.0)">f</text><text xml:space="preserve" font-family="Menlo-Regular" font-size="40.0" fill="#373840" transform="matrix(1.00, 0.00, -0.00, -1.00, 321.5, 215.0)">l</text><text xml:space="preserve" font-family="Menlo-Regular" font-size="40.0" fill="#373840" transform="matrix(1.00, 0.00, -0.00, -1.00, 345.6, 215.0)">o</text><text xml:space="preserve" font-family="Menlo-Regular" font-size="40.0" fill="#373840" transform="matrix(1.00, 0.00, -0.00, -1.00, 369.7, 215.0)">w</text><text xml:space="preserve" font-family="Menlo-Regular" font-size="40.0" fill="#373840" transform="matrix(1.00, 0.00, -0.00, -1.00, 393.8, 215.0)">,</text><text xml:space="preserve" font-family="Menlo-Regular" font-size="40.0" fill="#373840" transform="matrix(1.00, 0.00, -0.00, -1.00, 417.9, 215.0)"> </text><text xml:space="preserve" font-family="Menlo-Regular" font-size="40.0" fill="#373840" transform="matrix(1.00, 0.00, -0.00, -1.00, 441.9, 215.0)">n</text><text xml:space="preserve" font-family="Menlo-Regular" font-size="40.0" fill="#373840" transform="matrix(1.00, 0.00, -0.00, -1.00, 466.0, 215.0)">o</text><text xml:space="preserve" font-family="Menlo-Regular" font-size="40.0" fill="#373840" transform="matrix(1.00, 0.00, -0.00, -1.00, 490.1, 215.0)">t</text><text xml:space="preserve" font-family="Menlo-Regular" font-size="40.0" fill="#373840" transform="matrix(1.00, 0.00, -0.00, -1.00, 514.2, 215.0)">h</text><text xml:space="preserve" font-family="Menlo-Regular" font-size="40.0" fill="#373840" transform="matrix(1.00, 0.00, -0.00, -1.00, 538.3, 215.0)">i</text><text xml:space="preserve" font-family="Menlo-Regular" font-size="40.0" fill="#373840" transform="matrix(1.00, 0.00, -0.00, -1.00, 562.4, 215.0)">n</text><text xml:space="preserve" font-family="Menlo-Regular" font-size="40.0" fill="#373840" transform="matrix(1.00, 0.00, -0.00, -1.00, 586.5, 215.0)">g</text><text xml:space="preserve" font-family="Menlo-Regular" font-size="40.0" fill="#373840" transform="matrix(1.00, 0.00, -0.00, -1.00, 610.5, 215.0)"> </text><text xml:space="preserve" font-family="Menlo-Regular" font-size="40.0" fill="#373840" transform="matrix(1.00, 0.00, -0.00, -1.00, 634.6, 215.0)">e</text><text xml:space="preserve" font-family="Menlo-Regular" font-size="40.0" fill="#373840" transform="matrix(1.00, 0.00, -0.00, -1.00, 658.7, 215.0)">l</text><text xml:space="preserve" font-family="Menlo-Regular" font-size="40.0" fill="#373840" transform="matrix(1.00, 0.00, -0.00, -1.00, 682.8, 215.0)">s</text><text xml:space="preserve" font-family="Menlo-Regular" font-size="40.0" fill="#373840" transform="matrix(1.00, 0.00, -0.00, -1.00, 706.9, 215.0)">e</text><text xml:space="preserve" font-family="Menlo-Regular" font-size="40.0" fill="#373840" transform="matrix(1.00, 0.00, -0.00, -1.00, 731.0, 215.0)">.</text></g></svg>