<?xml version="1.0" encoding="UTF-8" standalone="no"?><svg xmlns="http://www.w3.org/2000/svg" xmlns:xlink="http://www.w3.org/1999/xlink" clip-rule="evenodd" stroke-miterlimit="4.00" viewBox="0 0 1024 768"><desc>SVG generated by Keynote</desc><defs></defs><g transform="matrix(1.00, 0.00, -0.00, -1.00, 0.0, 768.0)"><path d="M 0.0 768.0 L 1024.0 768.0 L 1024.0 0.0 L 0.0 0.0 Z M 0.0 768.0 " fill="#FAFAFA"></path><text xml:space="preserve" font-family="Menlo-Bold" font-weight="bold" font-size="40.0" fill="#373840" transform="matrix(1.00, 0.00, -0.00, -1.00, 392.0, 370.0)">T</text><text xml:space="preserve" font-family="Menlo-Bold" font-weight="bold" font-size="40.0" fill="#373840" transform="matrix(1.00, 0.00, -0.00, -1.00, 416.1, 370.0)">h</text><text xml:space="preserve" font-family="Menlo-Bold" font-weight="bold" font-size="40.0" fill="#373840" transform="matrix(1.00, 0.00, -0.00, -1.00, 440.2, 370.0)">a</text><text xml:space="preserve" font-family="Menlo-Bold" font-weight="bold" font-size="40.0" fill="#373840" transform="matrix(1.00, 0.00, -0.00, -1.00, 464.3, 370.0)">n</text><text xml:space="preserve" font-family="Menlo-Bold" font-weight="bold" font-size="40.0" fill="#373840" transform="matrix(1.00, 0.00, -0.00, -1.00, 488.3, 370.0)">k</text><text xml:space="preserve" font-family="Menlo-Bold" font-weight="bold" font-size="40.0" fill="#373840" transform="matrix(1.00, 0.00, -0.00, -1.00, 512.4, 370.0)"> </text><text xml:space="preserve" font-family="Menlo-Bold" font-weight="bold" font-size="40.0" fill="#373840" transform="matrix(1.00, 0.00, -0.00, -1.00, 536.5, 370.0)">y</text><text xml:space="preserve" font-family="Menlo-Bold" font-weight="bold" font-size="40.0" fill="#373840" transform="matrix(1.00, 0.00, -0.00, -1.00, 560.6, 370.0)">o</text><text xml:space="preserve" font-family="Menlo-Bold" font-weight="bold" font-size="40.0" fill="#373840" transform="matrix(1.00, 0.00, -0.00, -1.00, 584.7, 370.0)">u</text><text xml:space="preserve" font-family="Menlo-Bold" font-weight="bold" font-size="40.0" fill="#373840" transform="matrix(1.00, 0.00, -0.00, -1.00, 608.8, 370.0)">!</text></g></svg>