<?xml version="1.0" encoding="UTF-8" standalone="no"?><svg xmlns="http://www.w3.org/2000/svg" xmlns:xlink="http://www.w3.org/1999/xlink" clip-rule="evenodd" stroke-miterlimit="4.00" viewBox="0 0 1024 768"><desc>SVG generated by Keynote</desc><defs></defs><g transform="matrix(1.00, 0.00, -0.00, -1.00, 0.0, 768.0)"><path d="M 0.0 768.0 L 1024.0 768.0 L 1024.0 0.0 L 0.0 0.0 Z M 0.0 768.0 " fill="#FAFAFA"></path><text xml:space="preserve" font-family="Menlo-Regular" font-size="60.0" fill="#373840" transform="matrix(1.00, 0.00, -0.00, -1.00, 133.0, 454.0)">C</text><text xml:space="preserve" font-family="Menlo-Regular" font-size="60.0" fill="#373840" transform="matrix(1.00, 0.00, -0.00, -1.00, 169.1, 454.0)">y</text><text xml:space="preserve" font-family="Menlo-Regular" font-size="60.0" fill="#373840" transform="matrix(1.00, 0.00, -0.00, -1.00, 205.3, 454.0)">c</text><text xml:space="preserve" font-family="Menlo-Regular" font-size="60.0" fill="#373840" transform="matrix(1.00, 0.00, -0.00, -1.00, 241.4, 454.0)">l</text><text xml:space="preserve" font-family="Menlo-Regular" font-size="60.0" fill="#373840" transform="matrix(1.00, 0.00, -0.00, -1.00, 277.5, 454.0)">e</text><text xml:space="preserve" font-family="Menlo-Regular" font-size="60.0" fill="#373840" transform="matrix(1.00, 0.00, -0.00, -1.00, 313.6, 454.0)">.</text><text xml:space="preserve" font-family="Menlo-Regular" font-size="60.0" fill="#373840" transform="matrix(1.00, 0.00, -0.00, -1.00, 349.8, 454.0)">j</text><text xml:space="preserve" font-family="Menlo-Regular" font-size="60.0" fill="#373840" transform="matrix(1.00, 0.00, -0.00, -1.00, 385.9, 454.0)">s</text><text xml:space="preserve" font-family="Menlo-Regular" font-size="60.0" fill="#373840" transform="matrix(1.00, 0.00, -0.00, -1.00, 422.0, 454.0)">,</text><text xml:space="preserve" font-family="Menlo-Regular" font-size="60.0" fill="#373840" transform="matrix(1.00, 0.00, -0.00, -1.00, 458.2, 454.0)"> </text><text xml:space="preserve" font-family="Menlo-Regular" font-size="60.0" fill="#373840" transform="matrix(1.00, 0.00, -0.00, -1.00, 494.3, 454.0)">a</text><text xml:space="preserve" font-family="Menlo-Regular" font-size="60.0" fill="#373840" transform="matrix(1.00, 0.00, -0.00, -1.00, 530.4, 454.0)"> </text><text xml:space="preserve" font-family="Menlo-Regular" font-size="60.0" fill="#373840" transform="matrix(1.00, 0.00, -0.00, -1.00, 566.5, 454.0)">f</text><text xml:space="preserve" font-family="Menlo-Regular" font-size="60.0" fill="#373840" transform="matrix(1.00, 0.00, -0.00, -1.00, 602.7, 454.0)">r</text><text xml:space="preserve" font-family="Menlo-Regular" font-size="60.0" fill="#373840" transform="matrix(1.00, 0.00, -0.00, -1.00, 638.8, 454.0)">a</text><text xml:space="preserve" font-family="Menlo-Regular" font-size="60.0" fill="#373840" transform="matrix(1.00, 0.00, -0.00, -1.00, 674.9, 454.0)">m</text><text xml:space="preserve" font-family="Menlo-Regular" font-size="60.0" fill="#373840" transform="matrix(1.00, 0.00, -0.00, -1.00, 711.1, 454.0)">e</text><text xml:space="preserve" font-family="Menlo-Regular" font-size="60.0" fill="#373840" transform="matrix(1.00, 0.00, -0.00, -1.00, 747.2, 454.0)">w</text><text xml:space="preserve" font-family="Menlo-Regular" font-size="60.0" fill="#373840" transform="matrix(1.00, 0.00, -0.00, -1.00, 783.3, 454.0)">o</text><text xml:space="preserve" font-family="Menlo-Regular" font-size="60.0" fill="#373840" transform="matrix(1.00, 0.00, -0.00, -1.00, 819.5, 454.0)">r</text><text xml:space="preserve" font-family="Menlo-Regular" font-size="60.0" fill="#373840" transform="matrix(1.00, 0.00, -0.00, -1.00, 855.6, 454.0)">k</text><text xml:space="preserve" font-family="Menlo-Regular" font-size="60.0" fill="#373840" transform="matrix(1.00, 0.00, -0.00, -1.00, 891.7, 454.0)"> </text><text xml:space="preserve" font-family="Menlo-Regular" font-size="60.0" fill="#373840" transform="matrix(1.00, 0.00, -0.00, -1.00, 223.0, 384.0)">t</text><text xml:space="preserve" font-family="Menlo-Regular" font-size="60.0" fill="#373840" transform="matrix(1.00, 0.00, -0.00, -1.00, 259.1, 384.0)">h</text><text xml:space="preserve" font-family="Menlo-Regular" font-size="60.0" fill="#373840" transform="matrix(1.00, 0.00, -0.00, -1.00, 295.3, 384.0)">a</text><text xml:space="preserve" font-family="Menlo-Regular" font-size="60.0" fill="#373840" transform="matrix(1.00, 0.00, -0.00, -1.00, 331.4, 384.0)">t</text><text xml:space="preserve" font-family="Menlo-Regular" font-size="60.0" fill="#373840" transform="matrix(1.00, 0.00, -0.00, -1.00, 367.5, 384.0)"> </text><text xml:space="preserve" font-family="Menlo-Regular" font-size="60.0" fill="#373840" transform="matrix(1.00, 0.00, -0.00, -1.00, 403.6, 384.0)">g</text><text xml:space="preserve" font-family="Menlo-Regular" font-size="60.0" fill="#373840" transform="matrix(1.00, 0.00, -0.00, -1.00, 439.8, 384.0)">a</text><text xml:space="preserve" font-family="Menlo-Regular" font-size="60.0" fill="#373840" transform="matrix(1.00, 0.00, -0.00, -1.00, 475.9, 384.0)">v</text><text xml:space="preserve" font-family="Menlo-Regular" font-size="60.0" fill="#373840" transform="matrix(1.00, 0.00, -0.00, -1.00, 512.0, 384.0)">e</text><text xml:space="preserve" font-family="Menlo-Regular" font-size="60.0" fill="#373840" transform="matrix(1.00, 0.00, -0.00, -1.00, 548.2, 384.0)"> </text><text xml:space="preserve" font-family="Menlo-Regular" font-size="60.0" fill="#373840" transform="matrix(1.00, 0.00, -0.00, -1.00, 584.3, 384.0)">m</text><text xml:space="preserve" font-family="Menlo-Regular" font-size="60.0" fill="#373840" transform="matrix(1.00, 0.00, -0.00, -1.00, 620.4, 384.0)">e</text><text xml:space="preserve" font-family="Menlo-Regular" font-size="60.0" fill="#373840" transform="matrix(1.00, 0.00, -0.00, -1.00, 656.5, 384.0)"> </text><text xml:space="preserve" font-family="Menlo-Regular" font-size="60.0" fill="#373840" transform="matrix(1.00, 0.00, -0.00, -1.00, 692.7, 384.0)">t</text><text xml:space="preserve" font-family="Menlo-Regular" font-size="60.0" fill="#373840" transform="matrix(1.00, 0.00, -0.00, -1.00, 728.8, 384.0)">h</text><text xml:space="preserve" font-family="Menlo-Regular" font-size="60.0" fill="#373840" transform="matrix(1.00, 0.00, -0.00, -1.00, 764.9, 384.0)">e</text><text xml:space="preserve" font-family="Menlo-Regular" font-size="60.0" fill="#373840" transform="matrix(1.00, 0.00, -0.00, -1.00, 801.1, 384.0)"> </text><text xml:space="preserve" font-family="Menlo-Regular" font-size="60.0" fill="#373840" transform="matrix(1.00, 0.00, -0.00, -1.00, 259.0, 314.0)">"</text><text xml:space="preserve" font-family="Menlo-Regular" font-size="60.0" fill="#373840" transform="matrix(1.00, 0.00, -0.00, -1.00, 295.1, 314.0)">a</text><text xml:space="preserve" font-family="Menlo-Regular" font-size="60.0" fill="#373840" transform="matrix(1.00, 0.00, -0.00, -1.00, 331.3, 314.0)">h</text><text xml:space="preserve" font-family="Menlo-Regular" font-size="60.0" fill="#373840" transform="matrix(1.00, 0.00, -0.00, -1.00, 367.4, 314.0)">a</text><text xml:space="preserve" font-family="Menlo-Regular" font-size="60.0" fill="#373840" transform="matrix(1.00, 0.00, -0.00, -1.00, 403.5, 314.0)">!</text><text xml:space="preserve" font-family="Menlo-Regular" font-size="60.0" fill="#373840" transform="matrix(1.00, 0.00, -0.00, -1.00, 439.6, 314.0)">"</text><text xml:space="preserve" font-family="Menlo-Regular" font-size="60.0" fill="#373840" transform="matrix(1.00, 0.00, -0.00, -1.00, 475.8, 314.0)"> </text><text xml:space="preserve" font-family="Menlo-Regular" font-size="60.0" fill="#373840" transform="matrix(1.00, 0.00, -0.00, -1.00, 511.9, 314.0)">m</text><text xml:space="preserve" font-family="Menlo-Regular" font-size="60.0" fill="#373840" transform="matrix(1.00, 0.00, -0.00, -1.00, 548.0, 314.0)">o</text><text xml:space="preserve" font-family="Menlo-Regular" font-size="60.0" fill="#373840" transform="matrix(1.00, 0.00, -0.00, -1.00, 584.2, 314.0)">m</text><text xml:space="preserve" font-family="Menlo-Regular" font-size="60.0" fill="#373840" transform="matrix(1.00, 0.00, -0.00, -1.00, 620.3, 314.0)">e</text><text xml:space="preserve" font-family="Menlo-Regular" font-size="60.0" fill="#373840" transform="matrix(1.00, 0.00, -0.00, -1.00, 656.4, 314.0)">n</text><text xml:space="preserve" font-family="Menlo-Regular" font-size="60.0" fill="#373840" transform="matrix(1.00, 0.00, -0.00, -1.00, 692.5, 314.0)">t</text><text xml:space="preserve" font-family="Menlo-Regular" font-size="60.0" fill="#373840" transform="matrix(1.00, 0.00, -0.00, -1.00, 728.7, 314.0)">.</text><text xml:space="preserve" font-family="Menlo-Regular" font-size="30.0" fill="#3F82EE" transform="matrix(1.00, 0.00, -0.00, -1.00, 331.0, 225.0)">h</text><text xml:space="preserve" font-family="Menlo-Regular" font-size="30.0" fill="#3F82EE" transform="matrix(1.00, 0.00, -0.00, -1.00, 349.1, 225.0)">t</text><text xml:space="preserve" font-family="Menlo-Regular" font-size="30.0" fill="#3F82EE" transform="matrix(1.00, 0.00, -0.00, -1.00, 367.1, 225.0)">t</text><text xml:space="preserve" font-family="Menlo-Regular" font-size="30.0" fill="#3F82EE" transform="matrix(1.00, 0.00, -0.00, -1.00, 385.2, 225.0)">p</text><text xml:space="preserve" font-family="Menlo-Regular" font-size="30.0" fill="#3F82EE" transform="matrix(1.00, 0.00, -0.00, -1.00, 403.3, 225.0)">:</text><text xml:space="preserve" font-family="Menlo-Regular" font-size="30.0" fill="#3F82EE" transform="matrix(1.00, 0.00, -0.00, -1.00, 421.3, 225.0)">/</text><text xml:space="preserve" font-family="Menlo-Regular" font-size="30.0" fill="#3F82EE" transform="matrix(1.00, 0.00, -0.00, -1.00, 439.4, 225.0)">/</text><text xml:space="preserve" font-family="Menlo-Regular" font-size="30.0" fill="#3F82EE" transform="matrix(1.00, 0.00, -0.00, -1.00, 457.5, 225.0)">c</text><text xml:space="preserve" font-family="Menlo-Regular" font-size="30.0" fill="#3F82EE" transform="matrix(1.00, 0.00, -0.00, -1.00, 475.5, 225.0)">y</text><text xml:space="preserve" font-family="Menlo-Regular" font-size="30.0" fill="#3F82EE" transform="matrix(1.00, 0.00, -0.00, -1.00, 493.6, 225.0)">c</text><text xml:space="preserve" font-family="Menlo-Regular" font-size="30.0" fill="#3F82EE" transform="matrix(1.00, 0.00, -0.00, -1.00, 511.6, 225.0)">l</text><text xml:space="preserve" font-family="Menlo-Regular" font-size="30.0" fill="#3F82EE" transform="matrix(1.00, 0.00, -0.00, -1.00, 529.7, 225.0)">e</text><text xml:space="preserve" font-family="Menlo-Regular" font-size="30.0" fill="#3F82EE" transform="matrix(1.00, 0.00, -0.00, -1.00, 547.8, 225.0)">.</text><text xml:space="preserve" font-family="Menlo-Regular" font-size="30.0" fill="#3F82EE" transform="matrix(1.00, 0.00, -0.00, -1.00, 565.8, 225.0)">j</text><text xml:space="preserve" font-family="Menlo-Regular" font-size="30.0" fill="#3F82EE" transform="matrix(1.00, 0.00, -0.00, -1.00, 583.9, 225.0)">s</text><text xml:space="preserve" font-family="Menlo-Regular" font-size="30.0" fill="#3F82EE" transform="matrix(1.00, 0.00, -0.00, -1.00, 602.0, 225.0)">.</text><text xml:space="preserve" font-family="Menlo-Regular" font-size="30.0" fill="#3F82EE" transform="matrix(1.00, 0.00, -0.00, -1.00, 620.0, 225.0)">o</text><text xml:space="preserve" font-family="Menlo-Regular" font-size="30.0" fill="#3F82EE" transform="matrix(1.00, 0.00, -0.00, -1.00, 638.1, 225.0)">r</text><text xml:space="preserve" font-family="Menlo-Regular" font-size="30.0" fill="#3F82EE" transform="matrix(1.00, 0.00, -0.00, -1.00, 656.2, 225.0)">g</text><text xml:space="preserve" font-family="Menlo-Regular" font-size="30.0" fill="#3F82EE" transform="matrix(1.00, 0.00, -0.00, -1.00, 674.2, 225.0)">/</text></g></svg>