<?xml version="1.0" encoding="UTF-8" standalone="no"?><svg xmlns="http://www.w3.org/2000/svg" xmlns:xlink="http://www.w3.org/1999/xlink" clip-rule="evenodd" stroke-miterlimit="4.00" viewBox="0 0 1024 768"><desc>SVG generated by Keynote</desc><defs></defs><g transform="matrix(1.00, 0.00, -0.00, -1.00, 0.0, 768.0)"><path d="M 0.0 768.0 L 1024.0 768.0 L 1024.0 0.0 L 0.0 0.0 Z M 0.0 768.0 " fill="#FAFAFA"></path><text xml:space="preserve" font-family="Menlo-Regular" font-size="60.0" fill="#373840" transform="matrix(1.00, 0.00, -0.00, -1.00, 368.0, 449.0)">C</text><text xml:space="preserve" font-family="Menlo-Regular" font-size="60.0" fill="#373840" transform="matrix(1.00, 0.00, -0.00, -1.00, 404.1, 449.0)">y</text><text xml:space="preserve" font-family="Menlo-Regular" font-size="60.0" fill="#373840" transform="matrix(1.00, 0.00, -0.00, -1.00, 440.3, 449.0)">c</text><text xml:space="preserve" font-family="Menlo-Regular" font-size="60.0" fill="#373840" transform="matrix(1.00, 0.00, -0.00, -1.00, 476.4, 449.0)">l</text><text xml:space="preserve" font-family="Menlo-Regular" font-size="60.0" fill="#373840" transform="matrix(1.00, 0.00, -0.00, -1.00, 512.5, 449.0)">e</text><text xml:space="preserve" font-family="Menlo-Regular" font-size="60.0" fill="#373840" transform="matrix(1.00, 0.00, -0.00, -1.00, 548.6, 449.0)">.</text><text xml:space="preserve" font-family="Menlo-Regular" font-size="60.0" fill="#373840" transform="matrix(1.00, 0.00, -0.00, -1.00, 584.8, 449.0)">j</text><text xml:space="preserve" font-family="Menlo-Regular" font-size="60.0" fill="#373840" transform="matrix(1.00, 0.00, -0.00, -1.00, 620.9, 449.0)">s</text><text xml:space="preserve" font-family="Menlo-Regular" font-size="60.0" fill="#373840" transform="matrix(1.00, 0.00, -0.00, -1.00, 657.0, 449.0)"> </text><text xml:space="preserve" font-family="Menlo-Regular" font-size="60.0" fill="#373840" transform="matrix(1.00, 0.00, -0.00, -1.00, 693.2, 449.0)"> </text><text xml:space="preserve" font-family="Menlo-Regular" font-size="37.0" fill="#6A6C71" transform="matrix(1.00, 0.00, -0.00, -1.00, 111.0, 400.0)">A</text><text xml:space="preserve" font-family="Menlo-Regular" font-size="37.0" fill="#6A6C71" transform="matrix(1.00, 0.00, -0.00, -1.00, 133.3, 400.0)"> </text><text xml:space="preserve" font-family="Menlo-Regular" font-size="37.0" fill="#6A6C71" transform="matrix(1.00, 0.00, -0.00, -1.00, 155.6, 400.0)">f</text><text xml:space="preserve" font-family="Menlo-Regular" font-size="37.0" fill="#6A6C71" transform="matrix(1.00, 0.00, -0.00, -1.00, 177.8, 400.0)">u</text><text xml:space="preserve" font-family="Menlo-Regular" font-size="37.0" fill="#6A6C71" transform="matrix(1.00, 0.00, -0.00, -1.00, 200.1, 400.0)">n</text><text xml:space="preserve" font-family="Menlo-Regular" font-size="37.0" fill="#6A6C71" transform="matrix(1.00, 0.00, -0.00, -1.00, 222.4, 400.0)">c</text><text xml:space="preserve" font-family="Menlo-Regular" font-size="37.0" fill="#6A6C71" transform="matrix(1.00, 0.00, -0.00, -1.00, 244.7, 400.0)">t</text><text xml:space="preserve" font-family="Menlo-Regular" font-size="37.0" fill="#6A6C71" transform="matrix(1.00, 0.00, -0.00, -1.00, 267.0, 400.0)">i</text><text xml:space="preserve" font-family="Menlo-Regular" font-size="37.0" fill="#6A6C71" transform="matrix(1.00, 0.00, -0.00, -1.00, 289.2, 400.0)">o</text><text xml:space="preserve" font-family="Menlo-Regular" font-size="37.0" fill="#6A6C71" transform="matrix(1.00, 0.00, -0.00, -1.00, 311.5, 400.0)">n</text><text xml:space="preserve" font-family="Menlo-Regular" font-size="37.0" fill="#6A6C71" transform="matrix(1.00, 0.00, -0.00, -1.00, 333.8, 400.0)">a</text><text xml:space="preserve" font-family="Menlo-Regular" font-size="37.0" fill="#6A6C71" transform="matrix(1.00, 0.00, -0.00, -1.00, 356.1, 400.0)">l</text><text xml:space="preserve" font-family="Menlo-Regular" font-size="37.0" fill="#6A6C71" transform="matrix(1.00, 0.00, -0.00, -1.00, 378.4, 400.0)"> </text><text xml:space="preserve" font-family="Menlo-Regular" font-size="37.0" fill="#6A6C71" transform="matrix(1.00, 0.00, -0.00, -1.00, 400.6, 400.0)">a</text><text xml:space="preserve" font-family="Menlo-Regular" font-size="37.0" fill="#6A6C71" transform="matrix(1.00, 0.00, -0.00, -1.00, 422.9, 400.0)">n</text><text xml:space="preserve" font-family="Menlo-Regular" font-size="37.0" fill="#6A6C71" transform="matrix(1.00, 0.00, -0.00, -1.00, 445.2, 400.0)">d</text><text xml:space="preserve" font-family="Menlo-Regular" font-size="37.0" fill="#6A6C71" transform="matrix(1.00, 0.00, -0.00, -1.00, 467.5, 400.0)"> </text><text xml:space="preserve" font-family="Menlo-Regular" font-size="37.0" fill="#6A6C71" transform="matrix(1.00, 0.00, -0.00, -1.00, 489.8, 400.0)">r</text><text xml:space="preserve" font-family="Menlo-Regular" font-size="37.0" fill="#6A6C71" transform="matrix(1.00, 0.00, -0.00, -1.00, 512.0, 400.0)">e</text><text xml:space="preserve" font-family="Menlo-Regular" font-size="37.0" fill="#6A6C71" transform="matrix(1.00, 0.00, -0.00, -1.00, 534.3, 400.0)">a</text><text xml:space="preserve" font-family="Menlo-Regular" font-size="37.0" fill="#6A6C71" transform="matrix(1.00, 0.00, -0.00, -1.00, 556.6, 400.0)">c</text><text xml:space="preserve" font-family="Menlo-Regular" font-size="37.0" fill="#6A6C71" transform="matrix(1.00, 0.00, -0.00, -1.00, 578.9, 400.0)">t</text><text xml:space="preserve" font-family="Menlo-Regular" font-size="37.0" fill="#6A6C71" transform="matrix(1.00, 0.00, -0.00, -1.00, 601.2, 400.0)">i</text><text xml:space="preserve" font-family="Menlo-Regular" font-size="37.0" fill="#6A6C71" transform="matrix(1.00, 0.00, -0.00, -1.00, 623.4, 400.0)">v</text><text xml:space="preserve" font-family="Menlo-Regular" font-size="37.0" fill="#6A6C71" transform="matrix(1.00, 0.00, -0.00, -1.00, 645.7, 400.0)">e</text><text xml:space="preserve" font-family="Menlo-Regular" font-size="37.0" fill="#6A6C71" transform="matrix(1.00, 0.00, -0.00, -1.00, 668.0, 400.0)"> </text><text xml:space="preserve" font-family="Menlo-Regular" font-size="37.0" fill="#6A6C71" transform="matrix(1.00, 0.00, -0.00, -1.00, 690.3, 400.0)">J</text><text xml:space="preserve" font-family="Menlo-Regular" font-size="37.0" fill="#6A6C71" transform="matrix(1.00, 0.00, -0.00, -1.00, 712.5, 400.0)">a</text><text xml:space="preserve" font-family="Menlo-Regular" font-size="37.0" fill="#6A6C71" transform="matrix(1.00, 0.00, -0.00, -1.00, 734.8, 400.0)">v</text><text xml:space="preserve" font-family="Menlo-Regular" font-size="37.0" fill="#6A6C71" transform="matrix(1.00, 0.00, -0.00, -1.00, 757.1, 400.0)">a</text><text xml:space="preserve" font-family="Menlo-Regular" font-size="37.0" fill="#6A6C71" transform="matrix(1.00, 0.00, -0.00, -1.00, 779.4, 400.0)">S</text><text xml:space="preserve" font-family="Menlo-Regular" font-size="37.0" fill="#6A6C71" transform="matrix(1.00, 0.00, -0.00, -1.00, 801.7, 400.0)">c</text><text xml:space="preserve" font-family="Menlo-Regular" font-size="37.0" fill="#6A6C71" transform="matrix(1.00, 0.00, -0.00, -1.00, 823.9, 400.0)">r</text><text xml:space="preserve" font-family="Menlo-Regular" font-size="37.0" fill="#6A6C71" transform="matrix(1.00, 0.00, -0.00, -1.00, 846.2, 400.0)">i</text><text xml:space="preserve" font-family="Menlo-Regular" font-size="37.0" fill="#6A6C71" transform="matrix(1.00, 0.00, -0.00, -1.00, 868.5, 400.0)">p</text><text xml:space="preserve" font-family="Menlo-Regular" font-size="37.0" fill="#6A6C71" transform="matrix(1.00, 0.00, -0.00, -1.00, 890.8, 400.0)">t</text><text xml:space="preserve" font-family="Menlo-Regular" font-size="37.0" fill="#6A6C71" transform="matrix(1.00, 0.00, -0.00, -1.00, 913.1, 400.0)"> </text><text xml:space="preserve" font-family="Menlo-Regular" font-size="37.0" fill="#6A6C71" transform="matrix(1.00, 0.00, -0.00, -1.00, 111.0, 357.0)">f</text><text xml:space="preserve" font-family="Menlo-Regular" font-size="37.0" fill="#6A6C71" transform="matrix(1.00, 0.00, -0.00, -1.00, 133.3, 357.0)">r</text><text xml:space="preserve" font-family="Menlo-Regular" font-size="37.0" fill="#6A6C71" transform="matrix(1.00, 0.00, -0.00, -1.00, 155.6, 357.0)">a</text><text xml:space="preserve" font-family="Menlo-Regular" font-size="37.0" fill="#6A6C71" transform="matrix(1.00, 0.00, -0.00, -1.00, 177.8, 357.0)">m</text><text xml:space="preserve" font-family="Menlo-Regular" font-size="37.0" fill="#6A6C71" transform="matrix(1.00, 0.00, -0.00, -1.00, 200.1, 357.0)">e</text><text xml:space="preserve" font-family="Menlo-Regular" font-size="37.0" fill="#6A6C71" transform="matrix(1.00, 0.00, -0.00, -1.00, 222.4, 357.0)">w</text><text xml:space="preserve" font-family="Menlo-Regular" font-size="37.0" fill="#6A6C71" transform="matrix(1.00, 0.00, -0.00, -1.00, 244.7, 357.0)">o</text><text xml:space="preserve" font-family="Menlo-Regular" font-size="37.0" fill="#6A6C71" transform="matrix(1.00, 0.00, -0.00, -1.00, 267.0, 357.0)">r</text><text xml:space="preserve" font-family="Menlo-Regular" font-size="37.0" fill="#6A6C71" transform="matrix(1.00, 0.00, -0.00, -1.00, 289.2, 357.0)">k</text><text xml:space="preserve" font-family="Menlo-Regular" font-size="37.0" fill="#6A6C71" transform="matrix(1.00, 0.00, -0.00, -1.00, 311.5, 357.0)"> </text><text xml:space="preserve" font-family="Menlo-Regular" font-size="37.0" fill="#6A6C71" transform="matrix(1.00, 0.00, -0.00, -1.00, 333.8, 357.0)">f</text><text xml:space="preserve" font-family="Menlo-Regular" font-size="37.0" fill="#6A6C71" transform="matrix(1.00, 0.00, -0.00, -1.00, 356.0, 357.0)">o</text><text xml:space="preserve" font-family="Menlo-Regular" font-size="37.0" fill="#6A6C71" transform="matrix(1.00, 0.00, -0.00, -1.00, 378.3, 357.0)">r</text><text xml:space="preserve" font-family="Menlo-Regular" font-size="37.0" fill="#6A6C71" transform="matrix(1.00, 0.00, -0.00, -1.00, 400.6, 357.0)"> </text><text xml:space="preserve" font-family="Menlo-Regular" font-size="37.0" fill="#6A6C71" transform="matrix(1.00, 0.00, -0.00, -1.00, 422.9, 357.0)">c</text><text xml:space="preserve" font-family="Menlo-Regular" font-size="37.0" fill="#6A6C71" transform="matrix(1.00, 0.00, -0.00, -1.00, 445.2, 357.0)">l</text><text xml:space="preserve" font-family="Menlo-Regular" font-size="37.0" fill="#6A6C71" transform="matrix(1.00, 0.00, -0.00, -1.00, 467.4, 357.0)">e</text><text xml:space="preserve" font-family="Menlo-Regular" font-size="37.0" fill="#6A6C71" transform="matrix(1.00, 0.00, -0.00, -1.00, 489.7, 357.0)">a</text><text xml:space="preserve" font-family="Menlo-Regular" font-size="37.0" fill="#6A6C71" transform="matrix(1.00, 0.00, -0.00, -1.00, 512.0, 357.0)">n</text><text xml:space="preserve" font-family="Menlo-Regular" font-size="37.0" fill="#6A6C71" transform="matrix(1.00, 0.00, -0.00, -1.00, 534.3, 357.0)">e</text><text xml:space="preserve" font-family="Menlo-Regular" font-size="37.0" fill="#6A6C71" transform="matrix(1.00, 0.00, -0.00, -1.00, 556.6, 357.0)">r</text><text xml:space="preserve" font-family="Menlo-Regular" font-size="37.0" fill="#6A6C71" transform="matrix(1.00, 0.00, -0.00, -1.00, 578.8, 357.0)"> </text><text xml:space="preserve" font-family="Menlo-Regular" font-size="37.0" fill="#6A6C71" transform="matrix(1.00, 0.00, -0.00, -1.00, 601.1, 357.0)">c</text><text xml:space="preserve" font-family="Menlo-Regular" font-size="37.0" fill="#6A6C71" transform="matrix(1.00, 0.00, -0.00, -1.00, 623.4, 357.0)">o</text><text xml:space="preserve" font-family="Menlo-Regular" font-size="37.0" fill="#6A6C71" transform="matrix(1.00, 0.00, -0.00, -1.00, 645.7, 357.0)">d</text><text xml:space="preserve" font-family="Menlo-Regular" font-size="37.0" fill="#6A6C71" transform="matrix(1.00, 0.00, -0.00, -1.00, 668.0, 357.0)">e</text><text xml:space="preserve" font-family="Menlo-Regular" font-size="37.0" fill="#6A6C71" transform="matrix(1.00, 0.00, -0.00, -1.00, 690.2, 357.0)"> </text><text xml:space="preserve" font-family="Menlo-Italic" font-style="italic" font-size="37.0" fill="#6A6C71" transform="matrix(1.00, 0.00, -0.00, -1.00, 712.4, 357.0)">t</text><text xml:space="preserve" font-family="Menlo-Italic" font-style="italic" font-size="37.0" fill="#6A6C71" transform="matrix(1.00, 0.00, -0.00, -1.00, 734.7, 357.0)">h</text><text xml:space="preserve" font-family="Menlo-Italic" font-style="italic" font-size="37.0" fill="#6A6C71" transform="matrix(1.00, 0.00, -0.00, -1.00, 757.0, 357.0)">a</text><text xml:space="preserve" font-family="Menlo-Italic" font-style="italic" font-size="37.0" fill="#6A6C71" transform="matrix(1.00, 0.00, -0.00, -1.00, 779.3, 357.0)">t</text><text xml:space="preserve" font-family="Menlo-Italic" font-style="italic" font-size="37.0" fill="#6A6C71" transform="matrix(1.00, 0.00, -0.00, -1.00, 801.6, 357.0)"> </text><text xml:space="preserve" font-family="Menlo-Italic" font-style="italic" font-size="37.0" fill="#6A6C71" transform="matrix(1.00, 0.00, -0.00, -1.00, 823.8, 357.0)">w</text><text xml:space="preserve" font-family="Menlo-Italic" font-style="italic" font-size="37.0" fill="#6A6C71" transform="matrix(1.00, 0.00, -0.00, -1.00, 846.1, 357.0)">i</text><text xml:space="preserve" font-family="Menlo-Italic" font-style="italic" font-size="37.0" fill="#6A6C71" transform="matrix(1.00, 0.00, -0.00, -1.00, 868.4, 357.0)">l</text><text xml:space="preserve" font-family="Menlo-Italic" font-style="italic" font-size="37.0" fill="#6A6C71" transform="matrix(1.00, 0.00, -0.00, -1.00, 890.7, 357.0)">l</text><text xml:space="preserve" font-family="Menlo-Italic" font-style="italic" font-size="37.0" fill="#6A6C71" transform="matrix(1.00, 0.00, -0.00, -1.00, 913.0, 357.0)"> </text><g><clipPath id="clip-0"><path d="M 332.8 365.4 L 690.2 365.4 L 690.2 369.3 L 332.8 369.3 Z M 332.8 365.4 "></path></clipPath><g clip-path="url(#clip-0)"><path d="M 240.4 141.2 L 596.9 141.2 " fill="none" stroke="#6A6C71" stroke-width="1.89" stroke-miterlimit="0.00" transform="matrix(1.00, 0.00, 0.00, -1.00, 93.4, 508.5)"></path></g></g><text xml:space="preserve" font-family="Menlo-Italic" font-style="italic" font-size="37.0" fill="#6A6C71" transform="matrix(1.00, 0.00, -0.00, -1.00, 345.0, 314.0)">b</text><text xml:space="preserve" font-family="Menlo-Italic" font-style="italic" font-size="37.0" fill="#6A6C71" transform="matrix(1.00, 0.00, -0.00, -1.00, 367.3, 314.0)">e</text><text xml:space="preserve" font-family="Menlo-Italic" font-style="italic" font-size="37.0" fill="#6A6C71" transform="matrix(1.00, 0.00, -0.00, -1.00, 389.6, 314.0)">n</text><text xml:space="preserve" font-family="Menlo-Italic" font-style="italic" font-size="37.0" fill="#6A6C71" transform="matrix(1.00, 0.00, -0.00, -1.00, 411.8, 314.0)">d</text><text xml:space="preserve" font-family="Menlo-Italic" font-style="italic" font-size="37.0" fill="#6A6C71" transform="matrix(1.00, 0.00, -0.00, -1.00, 434.1, 314.0)"> </text><text xml:space="preserve" font-family="Menlo-Italic" font-style="italic" font-size="37.0" fill="#6A6C71" transform="matrix(1.00, 0.00, -0.00, -1.00, 456.4, 314.0)">y</text><text xml:space="preserve" font-family="Menlo-Italic" font-style="italic" font-size="37.0" fill="#6A6C71" transform="matrix(1.00, 0.00, -0.00, -1.00, 478.7, 314.0)">o</text><text xml:space="preserve" font-family="Menlo-Italic" font-style="italic" font-size="37.0" fill="#6A6C71" transform="matrix(1.00, 0.00, -0.00, -1.00, 501.0, 314.0)">u</text><text xml:space="preserve" font-family="Menlo-Italic" font-style="italic" font-size="37.0" fill="#6A6C71" transform="matrix(1.00, 0.00, -0.00, -1.00, 523.2, 314.0)">r</text><text xml:space="preserve" font-family="Menlo-Italic" font-style="italic" font-size="37.0" fill="#6A6C71" transform="matrix(1.00, 0.00, -0.00, -1.00, 545.5, 314.0)"> </text><text xml:space="preserve" font-family="Menlo-Italic" font-style="italic" font-size="37.0" fill="#6A6C71" transform="matrix(1.00, 0.00, -0.00, -1.00, 567.8, 314.0)">m</text><text xml:space="preserve" font-family="Menlo-Italic" font-style="italic" font-size="37.0" fill="#6A6C71" transform="matrix(1.00, 0.00, -0.00, -1.00, 590.1, 314.0)">i</text><text xml:space="preserve" font-family="Menlo-Italic" font-style="italic" font-size="37.0" fill="#6A6C71" transform="matrix(1.00, 0.00, -0.00, -1.00, 612.4, 314.0)">n</text><text xml:space="preserve" font-family="Menlo-Italic" font-style="italic" font-size="37.0" fill="#6A6C71" transform="matrix(1.00, 0.00, -0.00, -1.00, 634.6, 314.0)">d</text><text xml:space="preserve" font-family="Menlo-Regular" font-size="37.0" fill="#6A6C71" transform="matrix(1.00, 0.00, -0.00, -1.00, 656.9, 314.0)">.</text><text xml:space="preserve" font-family="Menlo-Regular" font-size="30.0" fill="#3F82EE" transform="matrix(1.00, 0.00, -0.00, -1.00, 331.0, 249.0)">h</text><text xml:space="preserve" font-family="Menlo-Regular" font-size="30.0" fill="#3F82EE" transform="matrix(1.00, 0.00, -0.00, -1.00, 349.1, 249.0)">t</text><text xml:space="preserve" font-family="Menlo-Regular" font-size="30.0" fill="#3F82EE" transform="matrix(1.00, 0.00, -0.00, -1.00, 367.1, 249.0)">t</text><text xml:space="preserve" font-family="Menlo-Regular" font-size="30.0" fill="#3F82EE" transform="matrix(1.00, 0.00, -0.00, -1.00, 385.2, 249.0)">p</text><text xml:space="preserve" font-family="Menlo-Regular" font-size="30.0" fill="#3F82EE" transform="matrix(1.00, 0.00, -0.00, -1.00, 403.3, 249.0)">:</text><text xml:space="preserve" font-family="Menlo-Regular" font-size="30.0" fill="#3F82EE" transform="matrix(1.00, 0.00, -0.00, -1.00, 421.3, 249.0)">/</text><text xml:space="preserve" font-family="Menlo-Regular" font-size="30.0" fill="#3F82EE" transform="matrix(1.00, 0.00, -0.00, -1.00, 439.4, 249.0)">/</text><text xml:space="preserve" font-family="Menlo-Regular" font-size="30.0" fill="#3F82EE" transform="matrix(1.00, 0.00, -0.00, -1.00, 457.5, 249.0)">c</text><text xml:space="preserve" font-family="Menlo-Regular" font-size="30.0" fill="#3F82EE" transform="matrix(1.00, 0.00, -0.00, -1.00, 475.5, 249.0)">y</text><text xml:space="preserve" font-family="Menlo-Regular" font-size="30.0" fill="#3F82EE" transform="matrix(1.00, 0.00, -0.00, -1.00, 493.6, 249.0)">c</text><text xml:space="preserve" font-family="Menlo-Regular" font-size="30.0" fill="#3F82EE" transform="matrix(1.00, 0.00, -0.00, -1.00, 511.6, 249.0)">l</text><text xml:space="preserve" font-family="Menlo-Regular" font-size="30.0" fill="#3F82EE" transform="matrix(1.00, 0.00, -0.00, -1.00, 529.7, 249.0)">e</text><text xml:space="preserve" font-family="Menlo-Regular" font-size="30.0" fill="#3F82EE" transform="matrix(1.00, 0.00, -0.00, -1.00, 547.8, 249.0)">.</text><text xml:space="preserve" font-family="Menlo-Regular" font-size="30.0" fill="#3F82EE" transform="matrix(1.00, 0.00, -0.00, -1.00, 565.8, 249.0)">j</text><text xml:space="preserve" font-family="Menlo-Regular" font-size="30.0" fill="#3F82EE" transform="matrix(1.00, 0.00, -0.00, -1.00, 583.9, 249.0)">s</text><text xml:space="preserve" font-family="Menlo-Regular" font-size="30.0" fill="#3F82EE" transform="matrix(1.00, 0.00, -0.00, -1.00, 602.0, 249.0)">.</text><text xml:space="preserve" font-family="Menlo-Regular" font-size="30.0" fill="#3F82EE" transform="matrix(1.00, 0.00, -0.00, -1.00, 620.0, 249.0)">o</text><text xml:space="preserve" font-family="Menlo-Regular" font-size="30.0" fill="#3F82EE" transform="matrix(1.00, 0.00, -0.00, -1.00, 638.1, 249.0)">r</text><text xml:space="preserve" font-family="Menlo-Regular" font-size="30.0" fill="#3F82EE" transform="matrix(1.00, 0.00, -0.00, -1.00, 656.2, 249.0)">g</text><text xml:space="preserve" font-family="Menlo-Regular" font-size="30.0" fill="#3F82EE" transform="matrix(1.00, 0.00, -0.00, -1.00, 674.2, 249.0)">/</text></g></svg>