<?xml version="1.0" encoding="UTF-8" standalone="no"?><svg xmlns="http://www.w3.org/2000/svg" xmlns:xlink="http://www.w3.org/1999/xlink" clip-rule="evenodd" stroke-miterlimit="4.00" viewBox="0 0 391 42"><desc>SVG generated by Keynote</desc><defs></defs><g transform="matrix(1.00, 0.00, -0.00, -1.00, 0.0, 42.0)"><text xml:space="preserve" font-family="Menlo-Regular" font-size="50.0" fill="#373840" transform="matrix(1.00, 0.00, -0.00, -1.00, 0.0, 2.0)">T</text><text xml:space="preserve" font-family="Menlo-Regular" font-size="50.0" fill="#373840" transform="matrix(1.00, 0.00, -0.00, -1.00, 30.1, 2.0)">r</text><text xml:space="preserve" font-family="Menlo-Regular" font-size="50.0" fill="#373840" transform="matrix(1.00, 0.00, -0.00, -1.00, 60.2, 2.0)">a</text><text xml:space="preserve" font-family="Menlo-Regular" font-size="50.0" fill="#373840" transform="matrix(1.00, 0.00, -0.00, -1.00, 90.3, 2.0)">n</text><text xml:space="preserve" font-family="Menlo-Regular" font-size="50.0" fill="#373840" transform="matrix(1.00, 0.00, -0.00, -1.00, 120.4, 2.0)">s</text><text xml:space="preserve" font-family="Menlo-Regular" font-size="50.0" fill="#373840" transform="matrix(1.00, 0.00, -0.00, -1.00, 150.5, 2.0)">f</text><text xml:space="preserve" font-family="Menlo-Regular" font-size="50.0" fill="#373840" transform="matrix(1.00, 0.00, -0.00, -1.00, 180.6, 2.0)">o</text><text xml:space="preserve" font-family="Menlo-Regular" font-size="50.0" fill="#373840" transform="matrix(1.00, 0.00, -0.00, -1.00, 210.8, 2.0)">r</text><text xml:space="preserve" font-family="Menlo-Regular" font-size="50.0" fill="#373840" transform="matrix(1.00, 0.00, -0.00, -1.00, 240.9, 2.0)">m</text><text xml:space="preserve" font-family="Menlo-Regular" font-size="50.0" fill="#373840" transform="matrix(1.00, 0.00, -0.00, -1.00, 271.0, 2.0)">a</text><text xml:space="preserve" font-family="Menlo-Regular" font-size="50.0" fill="#373840" transform="matrix(1.00, 0.00, -0.00, -1.00, 301.1, 2.0)">b</text><text xml:space="preserve" font-family="Menlo-Regular" font-size="50.0" fill="#373840" transform="matrix(1.00, 0.00, -0.00, -1.00, 331.2, 2.0)">l</text><text xml:space="preserve" font-family="Menlo-Regular" font-size="50.0" fill="#373840" transform="matrix(1.00, 0.00, -0.00, -1.00, 361.3, 2.0)">e</text></g></svg>