<?xml version="1.0" encoding="UTF-8" standalone="no"?><svg xmlns="http://www.w3.org/2000/svg" xmlns:xlink="http://www.w3.org/1999/xlink" clip-rule="evenodd" stroke-miterlimit="4.00" viewBox="0 0 1024 768"><desc>SVG generated by Keynote</desc><defs></defs><g transform="matrix(1.00, 0.00, -0.00, -1.00, 0.0, 768.0)"><path d="M 0.0 768.0 L 1024.0 768.0 L 1024.0 0.0 L 0.0 0.0 Z M 0.0 768.0 " fill="#FAFAFA"></path><text xml:space="preserve" font-family="Menlo-Regular" font-size="50.0" fill="#373840" transform="matrix(1.00, 0.00, -0.00, -1.00, 316.0, 682.0)">T</text><text xml:space="preserve" font-family="Menlo-Regular" font-size="50.0" fill="#373840" transform="matrix(1.00, 0.00, -0.00, -1.00, 346.1, 682.0)">r</text><text xml:space="preserve" font-family="Menlo-Regular" font-size="50.0" fill="#373840" transform="matrix(1.00, 0.00, -0.00, -1.00, 376.2, 682.0)">a</text><text xml:space="preserve" font-family="Menlo-Regular" font-size="50.0" fill="#373840" transform="matrix(1.00, 0.00, -0.00, -1.00, 406.3, 682.0)">n</text><text xml:space="preserve" font-family="Menlo-Regular" font-size="50.0" fill="#373840" transform="matrix(1.00, 0.00, -0.00, -1.00, 436.4, 682.0)">s</text><text xml:space="preserve" font-family="Menlo-Regular" font-size="50.0" fill="#373840" transform="matrix(1.00, 0.00, -0.00, -1.00, 466.5, 682.0)">f</text><text xml:space="preserve" font-family="Menlo-Regular" font-size="50.0" fill="#373840" transform="matrix(1.00, 0.00, -0.00, -1.00, 496.6, 682.0)">o</text><text xml:space="preserve" font-family="Menlo-Regular" font-size="50.0" fill="#373840" transform="matrix(1.00, 0.00, -0.00, -1.00, 526.8, 682.0)">r</text><text xml:space="preserve" font-family="Menlo-Regular" font-size="50.0" fill="#373840" transform="matrix(1.00, 0.00, -0.00, -1.00, 556.9, 682.0)">m</text><text xml:space="preserve" font-family="Menlo-Regular" font-size="50.0" fill="#373840" transform="matrix(1.00, 0.00, -0.00, -1.00, 587.0, 682.0)">a</text><text xml:space="preserve" font-family="Menlo-Regular" font-size="50.0" fill="#373840" transform="matrix(1.00, 0.00, -0.00, -1.00, 617.1, 682.0)">b</text><text xml:space="preserve" font-family="Menlo-Regular" font-size="50.0" fill="#373840" transform="matrix(1.00, 0.00, -0.00, -1.00, 647.2, 682.0)">l</text><text xml:space="preserve" font-family="Menlo-Regular" font-size="50.0" fill="#373840" transform="matrix(1.00, 0.00, -0.00, -1.00, 677.3, 682.0)">e</text><image xlink:href="../../BDFD37E6-C5E8-4FA7-816B-36DAC515F952/assets/C0601C7625A7E06A61980254678E4A4B.png" width="429.00" height="421.00" transform="matrix(1.00, 0.00, -0.00, -1.00, 26.0, 585.0)"></image><path d="M 0.0 0.0 L 472.5 0.0 L 475.0 0.0 " fill="none" stroke="#373840" stroke-width="5.00" transform="matrix(1.00, 0.00, 0.00, -1.00, 482.0, 568.7)"></path><path d="M 954.5 558.5 L 974.9 568.7 L 954.5 578.9 Z M 954.5 558.5 " fill="#373840"></path><text xml:space="preserve" font-family="Menlo-Regular" font-size="30.0" fill="#373840" transform="matrix(1.00, 0.00, -0.00, -1.00, 888.0, 589.0)">t</text><text xml:space="preserve" font-family="Menlo-Regular" font-size="30.0" fill="#373840" transform="matrix(1.00, 0.00, -0.00, -1.00, 906.1, 589.0)">i</text><text xml:space="preserve" font-family="Menlo-Regular" font-size="30.0" fill="#373840" transform="matrix(1.00, 0.00, -0.00, -1.00, 924.1, 589.0)">m</text><text xml:space="preserve" font-family="Menlo-Regular" font-size="30.0" fill="#373840" transform="matrix(1.00, 0.00, -0.00, -1.00, 942.2, 589.0)">e</text><path d="M 0.0 0.0 L 472.5 0.0 L 475.0 0.0 " fill="none" stroke="#373840" stroke-width="5.00" transform="matrix(1.00, 0.00, 0.00, -1.00, 482.0, 492.7)"></path><path d="M 954.5 482.5 L 974.9 492.7 L 954.5 502.9 Z M 954.5 482.5 " fill="#373840"></path><path d="M 0.0 0.0 L 472.5 0.0 L 475.0 0.0 " fill="none" stroke="#373840" stroke-width="5.00" transform="matrix(1.00, 0.00, 0.00, -1.00, 482.0, 416.7)"></path><path d="M 954.5 406.5 L 974.9 416.7 L 954.5 426.9 Z M 954.5 406.5 " fill="#373840"></path><path d="M 0.0 0.0 L 472.5 0.0 L 475.0 0.0 " fill="none" stroke="#373840" stroke-width="5.00" transform="matrix(1.00, 0.00, 0.00, -1.00, 482.0, 340.7)"></path><path d="M 954.5 330.5 L 974.9 340.7 L 954.5 350.9 Z M 954.5 330.5 " fill="#373840"></path><path d="M 0.0 0.0 L 472.5 0.0 L 475.0 0.0 " fill="none" stroke="#373840" stroke-width="5.00" transform="matrix(1.00, 0.00, 0.00, -1.00, 482.0, 264.7)"></path><path d="M 954.5 254.5 L 974.9 264.7 L 954.5 274.9 Z M 954.5 254.5 " fill="#373840"></path><path d="M 1032.0 595.7 L 1086.0 595.7 L 1086.0 541.7 L 1032.0 541.7 Z M 1032.0 595.7 " fill="#4DE95D"></path><path d="M 1032.0 519.7 L 1086.0 519.7 L 1086.0 465.7 L 1032.0 465.7 Z M 1032.0 519.7 " fill="#4DE95D"></path><path d="M 1032.0 443.7 L 1086.0 443.7 L 1086.0 389.7 L 1032.0 389.7 Z M 1032.0 443.7 " fill="#4DE95D"></path><path d="M 1032.0 367.7 L 1086.0 367.7 L 1086.0 313.7 L 1032.0 313.7 Z M 1032.0 367.7 " fill="#4DE95D"></path><path d="M 1032.0 291.7 L 1086.0 291.7 L 1086.0 237.7 L 1032.0 237.7 Z M 1032.0 291.7 " fill="#4DE95D"></path><path d="M 1032.0 595.5 L 1086.0 595.5 L 1086.0 541.5 L 1032.0 541.5 Z M 1032.0 595.5 " fill="#4DE95D"></path><path d="M 1032.0 519.5 L 1086.0 519.5 L 1086.0 465.5 L 1032.0 465.5 Z M 1032.0 519.5 " fill="#4DE95D"></path><path d="M 1032.0 443.5 L 1086.0 443.5 L 1086.0 389.5 L 1032.0 389.5 Z M 1032.0 443.5 " fill="#4DE95D"></path><path d="M 1032.0 594.9 L 1086.0 594.9 L 1086.0 541.0 L 1032.0 541.0 Z M 1032.0 594.9 " fill="#4DE95D"></path><path d="M 1032.0 518.9 L 1086.0 518.9 L 1086.0 465.0 L 1032.0 465.0 Z M 1032.0 518.9 " fill="#4DE95D"></path><path d="M 1032.0 442.9 L 1086.0 442.9 L 1086.0 389.0 L 1032.0 389.0 Z M 1032.0 442.9 " fill="#4DE95D"></path><path d="M 1032.0 366.9 L 1086.0 366.9 L 1086.0 313.0 L 1032.0 313.0 Z M 1032.0 366.9 " fill="#4DE95D"></path><path d="M 1032.0 290.9 L 1086.0 290.9 L 1086.0 237.0 L 1032.0 237.0 Z M 1032.0 290.9 " fill="#4DE95D"></path></g></svg>