<?xml version="1.0" encoding="UTF-8" standalone="no"?><svg xmlns="http://www.w3.org/2000/svg" xmlns:xlink="http://www.w3.org/1999/xlink" clip-rule="evenodd" stroke-miterlimit="4.00" viewBox="0 0 299 52"><desc>SVG generated by Keynote</desc><defs></defs><g transform="matrix(1.00, 0.00, -0.00, -1.00, 0.0, 52.0)"><text xml:space="preserve" font-family="Menlo-Regular" font-size="50.0" fill="#373840" transform="matrix(1.00, 0.00, -0.00, -1.00, -2.0, 12.0)">C</text><text xml:space="preserve" font-family="Menlo-Regular" font-size="50.0" fill="#373840" transform="matrix(1.00, 0.00, -0.00, -1.00, 28.1, 12.0)">o</text><text xml:space="preserve" font-family="Menlo-Regular" font-size="50.0" fill="#373840" transform="matrix(1.00, 0.00, -0.00, -1.00, 58.2, 12.0)">m</text><text xml:space="preserve" font-family="Menlo-Regular" font-size="50.0" fill="#373840" transform="matrix(1.00, 0.00, -0.00, -1.00, 88.3, 12.0)">p</text><text xml:space="preserve" font-family="Menlo-Regular" font-size="50.0" fill="#373840" transform="matrix(1.00, 0.00, -0.00, -1.00, 118.4, 12.0)">o</text><text xml:space="preserve" font-family="Menlo-Regular" font-size="50.0" fill="#373840" transform="matrix(1.00, 0.00, -0.00, -1.00, 148.5, 12.0)">s</text><text xml:space="preserve" font-family="Menlo-Regular" font-size="50.0" fill="#373840" transform="matrix(1.00, 0.00, -0.00, -1.00, 178.6, 12.0)">a</text><text xml:space="preserve" font-family="Menlo-Regular" font-size="50.0" fill="#373840" transform="matrix(1.00, 0.00, -0.00, -1.00, 208.8, 12.0)">b</text><text xml:space="preserve" font-family="Menlo-Regular" font-size="50.0" fill="#373840" transform="matrix(1.00, 0.00, -0.00, -1.00, 238.9, 12.0)">l</text><text xml:space="preserve" font-family="Menlo-Regular" font-size="50.0" fill="#373840" transform="matrix(1.00, 0.00, -0.00, -1.00, 269.0, 12.0)">e</text></g></svg>