<?xml version="1.0" encoding="UTF-8" standalone="no"?><svg xmlns="http://www.w3.org/2000/svg" xmlns:xlink="http://www.w3.org/1999/xlink" clip-rule="evenodd" stroke-miterlimit="4.00" viewBox="0 0 1024 768"><desc>SVG generated by Keynote</desc><defs></defs><g transform="matrix(1.00, 0.00, -0.00, -1.00, 0.0, 768.0)"><path d="M 0.0 768.0 L 1024.0 768.0 L 1024.0 0.0 L 0.0 0.0 Z M 0.0 768.0 " fill="#FAFAFA"></path><path d="M 194.7 427.9 L 829.3 427.9 L 829.3 330.2 L 194.7 330.2 Z M 194.7 427.9 " fill="#FAFAFA"></path><g><clipPath id="clip-17"><path d="M 189.1 312.8 L 834.9 312.8 L 834.9 433.5 L 189.1 433.5 Z M 189.1 312.8 "></path></clipPath><g clip-path="url(#clip-17)"><text xml:space="preserve" font-family="Menlo-Regular" font-size="33.0" fill="#373840" transform="matrix(1.00, 0.00, -0.00, -1.00, 199.0, 393.0)">&gt;</text><text xml:space="preserve" font-family="Menlo-Regular" font-size="33.0" fill="#373840" transform="matrix(1.00, 0.00, -0.00, -1.00, 218.9, 393.0)"> </text><text xml:space="preserve" font-family="Menlo-Regular" font-size="33.0" fill="#373840" transform="matrix(1.00, 0.00, -0.00, -1.00, 238.7, 393.0)">2</text><text xml:space="preserve" font-family="Menlo-Regular" font-size="33.0" fill="#373840" transform="matrix(1.00, 0.00, -0.00, -1.00, 258.6, 393.0)"> </text><text xml:space="preserve" font-family="Menlo-Regular" font-size="33.0" fill="#373840" transform="matrix(1.00, 0.00, -0.00, -1.00, 199.0, 342.0)">&gt;</text></g></g><text xml:space="preserve" font-family="Menlo-Bold" font-weight="bold" font-size="40.0" fill="#373840" transform="matrix(1.00, 0.00, -0.00, -1.00, 211.0, 584.0)">M</text><text xml:space="preserve" font-family="Menlo-Bold" font-weight="bold" font-size="40.0" fill="#373840" transform="matrix(1.00, 0.00, -0.00, -1.00, 235.1, 584.0)">a</text><text xml:space="preserve" font-family="Menlo-Bold" font-weight="bold" font-size="40.0" fill="#373840" transform="matrix(1.00, 0.00, -0.00, -1.00, 259.2, 584.0)">p</text><text xml:space="preserve" font-family="Menlo-Regular" font-size="33.0" fill="#373840" transform="matrix(1.00, 0.00, -0.00, -1.00, 199.0, 449.0)">&gt;</text><text xml:space="preserve" font-family="Menlo-Regular" font-size="33.0" fill="#373840" transform="matrix(1.00, 0.00, -0.00, -1.00, 218.9, 449.0)"> </text><text xml:space="preserve" font-family="Menlo-Regular" font-size="33.0" fill="#373840" transform="matrix(1.00, 0.00, -0.00, -1.00, 238.7, 449.0)">[</text><text xml:space="preserve" font-family="Menlo-Regular" font-size="33.0" fill="#373840" transform="matrix(1.00, 0.00, -0.00, -1.00, 258.6, 449.0)">1</text><text xml:space="preserve" font-family="Menlo-Regular" font-size="33.0" fill="#373840" transform="matrix(1.00, 0.00, -0.00, -1.00, 278.5, 449.0)">…</text><text xml:space="preserve" font-family="Menlo-Regular" font-size="33.0" fill="#373840" transform="matrix(1.00, 0.00, -0.00, -1.00, 298.4, 449.0)">2</text><text xml:space="preserve" font-family="Menlo-Regular" font-size="33.0" fill="#373840" transform="matrix(1.00, 0.00, -0.00, -1.00, 318.2, 449.0)">…</text><text xml:space="preserve" font-family="Menlo-Regular" font-size="33.0" fill="#373840" transform="matrix(1.00, 0.00, -0.00, -1.00, 338.1, 449.0)">…</text><text xml:space="preserve" font-family="Menlo-Regular" font-size="33.0" fill="#373840" transform="matrix(1.00, 0.00, -0.00, -1.00, 358.0, 449.0)">3</text><text xml:space="preserve" font-family="Menlo-Regular" font-size="33.0" fill="#373840" transform="matrix(1.00, 0.00, -0.00, -1.00, 377.8, 449.0)">]</text><text xml:space="preserve" font-family="Menlo-Regular" font-size="33.0" fill="#373840" transform="matrix(1.00, 0.00, -0.00, -1.00, 397.7, 449.0)">.</text><text xml:space="preserve" font-family="Menlo-Regular" font-size="33.0" fill="#3F82EE" transform="matrix(1.00, 0.00, -0.00, -1.00, 417.5, 449.0)">m</text><text xml:space="preserve" font-family="Menlo-Regular" font-size="33.0" fill="#3F82EE" transform="matrix(1.00, 0.00, -0.00, -1.00, 437.4, 449.0)">a</text><text xml:space="preserve" font-family="Menlo-Regular" font-size="33.0" fill="#3F82EE" transform="matrix(1.00, 0.00, -0.00, -1.00, 457.3, 449.0)">p</text><text xml:space="preserve" font-family="Menlo-Regular" font-size="33.0" fill="#373840" transform="matrix(1.00, 0.00, -0.00, -1.00, 477.1, 449.0)">(</text><text xml:space="preserve" font-family="Menlo-Regular" font-size="33.0" fill="#373840" transform="matrix(1.00, 0.00, -0.00, -1.00, 497.0, 449.0)">x</text><text xml:space="preserve" font-family="Menlo-Regular" font-size="33.0" fill="#373840" transform="matrix(1.00, 0.00, -0.00, -1.00, 516.9, 449.0)"> </text><text xml:space="preserve" font-family="Menlo-Regular" font-size="33.0" fill="#373840" transform="matrix(1.00, 0.00, -0.00, -1.00, 536.8, 449.0)">=</text><text xml:space="preserve" font-family="Menlo-Regular" font-size="33.0" fill="#373840" transform="matrix(1.00, 0.00, -0.00, -1.00, 556.6, 449.0)">&gt;</text><text xml:space="preserve" font-family="Menlo-Regular" font-size="33.0" fill="#373840" transform="matrix(1.00, 0.00, -0.00, -1.00, 576.5, 449.0)"> </text><text xml:space="preserve" font-family="Menlo-Regular" font-size="33.0" fill="#373840" transform="matrix(1.00, 0.00, -0.00, -1.00, 596.4, 449.0)">x</text><text xml:space="preserve" font-family="Menlo-Regular" font-size="33.0" fill="#373840" transform="matrix(1.00, 0.00, -0.00, -1.00, 616.2, 449.0)"> </text><text xml:space="preserve" font-family="Menlo-Regular" font-size="33.0" fill="#373840" transform="matrix(1.00, 0.00, -0.00, -1.00, 636.1, 449.0)">+</text><text xml:space="preserve" font-family="Menlo-Regular" font-size="33.0" fill="#373840" transform="matrix(1.00, 0.00, -0.00, -1.00, 656.0, 449.0)"> </text><text xml:space="preserve" font-family="Menlo-Regular" font-size="33.0" fill="#373840" transform="matrix(1.00, 0.00, -0.00, -1.00, 675.9, 449.0)">1</text><text xml:space="preserve" font-family="Menlo-Regular" font-size="33.0" fill="#373840" transform="matrix(1.00, 0.00, -0.00, -1.00, 695.7, 449.0)">)</text><path d="M 0.0 0.0 L 118.4 0.0 L 119.4 0.0 " fill="none" stroke="#373840" stroke-width="2.00" transform="matrix(1.00, 0.00, 0.00, -1.00, 249.0, 495.7)"></path><path d="M 367.4 490.9 L 377.0 495.7 L 367.4 500.4 Z M 367.4 490.9 " fill="#373840"></path><text xml:space="preserve" font-family="Menlo-Regular" font-size="16.0" fill="#373840" transform="matrix(1.00, 0.00, -0.00, -1.00, 294.0, 508.0)">t</text><text xml:space="preserve" font-family="Menlo-Regular" font-size="16.0" fill="#373840" transform="matrix(1.00, 0.00, -0.00, -1.00, 303.6, 508.0)">i</text><text xml:space="preserve" font-family="Menlo-Regular" font-size="16.0" fill="#373840" transform="matrix(1.00, 0.00, -0.00, -1.00, 313.3, 508.0)">m</text><text xml:space="preserve" font-family="Menlo-Regular" font-size="16.0" fill="#373840" transform="matrix(1.00, 0.00, -0.00, -1.00, 322.9, 508.0)">e</text><path d="M 194.7 377.9 L 829.3 377.9 L 829.3 280.2 L 194.7 280.2 Z M 194.7 377.9 " fill="#FAFAFA"></path><g><clipPath id="clip-18"><path d="M 189.1 262.8 L 834.9 262.8 L 834.9 383.5 L 189.1 383.5 Z M 189.1 262.8 "></path></clipPath><g clip-path="url(#clip-18)"><text xml:space="preserve" font-family="Menlo-Regular" font-size="33.0" fill="#373840" transform="matrix(1.00, 0.00, -0.00, -1.00, 199.0, 343.0)">&gt;</text><text xml:space="preserve" font-family="Menlo-Regular" font-size="33.0" fill="#373840" transform="matrix(1.00, 0.00, -0.00, -1.00, 218.9, 343.0)"> </text><text xml:space="preserve" font-family="Menlo-Regular" font-size="33.0" fill="#373840" transform="matrix(1.00, 0.00, -0.00, -1.00, 238.7, 343.0)">3</text><text xml:space="preserve" font-family="Menlo-Regular" font-size="33.0" fill="#373840" transform="matrix(1.00, 0.00, -0.00, -1.00, 258.6, 343.0)"> </text><text xml:space="preserve" font-family="Menlo-Regular" font-size="33.0" fill="#373840" transform="matrix(1.00, 0.00, -0.00, -1.00, 199.0, 292.0)">&gt;</text></g></g><path d="M 194.7 325.9 L 829.3 325.9 L 829.3 228.2 L 194.7 228.2 Z M 194.7 325.9 " fill="#FAFAFA"></path><g><clipPath id="clip-19"><path d="M 189.1 210.9 L 834.9 210.9 L 834.9 331.5 L 189.1 331.5 Z M 189.1 210.9 "></path></clipPath><g clip-path="url(#clip-19)"><text xml:space="preserve" font-family="Menlo-Regular" font-size="33.0" fill="#373840" transform="matrix(1.00, 0.00, -0.00, -1.00, 199.0, 291.0)">&gt;</text><text xml:space="preserve" font-family="Menlo-Regular" font-size="33.0" fill="#373840" transform="matrix(1.00, 0.00, -0.00, -1.00, 218.9, 291.0)"> </text><text xml:space="preserve" font-family="Menlo-Regular" font-size="33.0" fill="#373840" transform="matrix(1.00, 0.00, -0.00, -1.00, 238.7, 291.0)">4</text><text xml:space="preserve" font-family="Menlo-Regular" font-size="33.0" fill="#373840" transform="matrix(1.00, 0.00, -0.00, -1.00, 258.6, 291.0)"> </text><text xml:space="preserve" font-family="Menlo-Regular" font-size="33.0" fill="#373840" transform="matrix(1.00, 0.00, -0.00, -1.00, 199.0, 240.0)">&gt;</text></g></g><image xlink:href="../../0E7F6F27-9112-4AE8-B148-809AB43CD4F2/assets/918559E955E2F5CC7334F499AD9929EC.png" width="12.00" height="24.00" transform="matrix(1.58, 0.00, -0.00, -1.58, 237.7, 267.6)"></image></g></svg>