<?xml version="1.0" encoding="UTF-8" standalone="no"?><svg xmlns="http://www.w3.org/2000/svg" xmlns:xlink="http://www.w3.org/1999/xlink" clip-rule="evenodd" stroke-miterlimit="4.00" viewBox="0 0 1024 768"><desc>SVG generated by Keynote</desc><defs></defs><g transform="matrix(1.00, 0.00, -0.00, -1.00, 0.0, 768.0)"><path d="M 0.0 768.0 L 1024.0 768.0 L 1024.0 0.0 L 0.0 0.0 Z M 0.0 768.0 " fill="#FAFAFA"></path><text xml:space="preserve" font-family="Menlo-Bold" font-weight="bold" font-size="40.0" fill="#373840" transform="matrix(1.00, 0.00, -0.00, -1.00, 211.0, 659.0)">W</text><text xml:space="preserve" font-family="Menlo-Bold" font-weight="bold" font-size="40.0" fill="#373840" transform="matrix(1.00, 0.00, -0.00, -1.00, 235.1, 659.0)">h</text><text xml:space="preserve" font-family="Menlo-Bold" font-weight="bold" font-size="40.0" fill="#373840" transform="matrix(1.00, 0.00, -0.00, -1.00, 259.2, 659.0)">a</text><text xml:space="preserve" font-family="Menlo-Bold" font-weight="bold" font-size="40.0" fill="#373840" transform="matrix(1.00, 0.00, -0.00, -1.00, 283.3, 659.0)">t</text><text xml:space="preserve" font-family="Menlo-Bold" font-weight="bold" font-size="40.0" fill="#373840" transform="matrix(1.00, 0.00, -0.00, -1.00, 307.3, 659.0)">'</text><text xml:space="preserve" font-family="Menlo-Bold" font-weight="bold" font-size="40.0" fill="#373840" transform="matrix(1.00, 0.00, -0.00, -1.00, 331.4, 659.0)">s</text><text xml:space="preserve" font-family="Menlo-Bold" font-weight="bold" font-size="40.0" fill="#373840" transform="matrix(1.00, 0.00, -0.00, -1.00, 355.5, 659.0)"> </text><text xml:space="preserve" font-family="Menlo-Bold" font-weight="bold" font-size="40.0" fill="#373840" transform="matrix(1.00, 0.00, -0.00, -1.00, 379.6, 659.0)">r</text><text xml:space="preserve" font-family="Menlo-Bold" font-weight="bold" font-size="40.0" fill="#373840" transform="matrix(1.00, 0.00, -0.00, -1.00, 403.7, 659.0)">e</text><text xml:space="preserve" font-family="Menlo-Bold" font-weight="bold" font-size="40.0" fill="#373840" transform="matrix(1.00, 0.00, -0.00, -1.00, 427.8, 659.0)">a</text><text xml:space="preserve" font-family="Menlo-Bold" font-weight="bold" font-size="40.0" fill="#373840" transform="matrix(1.00, 0.00, -0.00, -1.00, 451.9, 659.0)">l</text><text xml:space="preserve" font-family="Menlo-Bold" font-weight="bold" font-size="40.0" fill="#373840" transform="matrix(1.00, 0.00, -0.00, -1.00, 475.9, 659.0)">l</text><text xml:space="preserve" font-family="Menlo-Bold" font-weight="bold" font-size="40.0" fill="#373840" transform="matrix(1.00, 0.00, -0.00, -1.00, 500.0, 659.0)">y</text><text xml:space="preserve" font-family="Menlo-Bold" font-weight="bold" font-size="40.0" fill="#373840" transform="matrix(1.00, 0.00, -0.00, -1.00, 524.1, 659.0)"> </text><text xml:space="preserve" font-family="Menlo-Bold" font-weight="bold" font-size="40.0" fill="#373840" transform="matrix(1.00, 0.00, -0.00, -1.00, 548.2, 659.0)">n</text><text xml:space="preserve" font-family="Menlo-Bold" font-weight="bold" font-size="40.0" fill="#373840" transform="matrix(1.00, 0.00, -0.00, -1.00, 572.3, 659.0)">o</text><text xml:space="preserve" font-family="Menlo-Bold" font-weight="bold" font-size="40.0" fill="#373840" transform="matrix(1.00, 0.00, -0.00, -1.00, 596.4, 659.0)">v</text><text xml:space="preserve" font-family="Menlo-Bold" font-weight="bold" font-size="40.0" fill="#373840" transform="matrix(1.00, 0.00, -0.00, -1.00, 620.5, 659.0)">e</text><text xml:space="preserve" font-family="Menlo-Bold" font-weight="bold" font-size="40.0" fill="#373840" transform="matrix(1.00, 0.00, -0.00, -1.00, 644.5, 659.0)">l</text><text xml:space="preserve" font-family="Menlo-Bold" font-weight="bold" font-size="40.0" fill="#373840" transform="matrix(1.00, 0.00, -0.00, -1.00, 668.6, 659.0)"> </text><text xml:space="preserve" font-family="Menlo-Bold" font-weight="bold" font-size="40.0" fill="#373840" transform="matrix(1.00, 0.00, -0.00, -1.00, 692.7, 659.0)">a</text><text xml:space="preserve" font-family="Menlo-Bold" font-weight="bold" font-size="40.0" fill="#373840" transform="matrix(1.00, 0.00, -0.00, -1.00, 716.8, 659.0)">b</text><text xml:space="preserve" font-family="Menlo-Bold" font-weight="bold" font-size="40.0" fill="#373840" transform="matrix(1.00, 0.00, -0.00, -1.00, 740.9, 659.0)">o</text><text xml:space="preserve" font-family="Menlo-Bold" font-weight="bold" font-size="40.0" fill="#373840" transform="matrix(1.00, 0.00, -0.00, -1.00, 765.0, 659.0)">u</text><text xml:space="preserve" font-family="Menlo-Bold" font-weight="bold" font-size="40.0" fill="#373840" transform="matrix(1.00, 0.00, -0.00, -1.00, 789.1, 659.0)">t</text><text xml:space="preserve" font-family="Menlo-Bold" font-weight="bold" font-size="40.0" fill="#373840" transform="matrix(1.00, 0.00, -0.00, -1.00, 813.2, 659.0)"> </text><text xml:space="preserve" font-family="Menlo-Bold" font-weight="bold" font-size="40.0" fill="#373840" transform="matrix(1.00, 0.00, -0.00, -1.00, 404.0, 608.0)">C</text><text xml:space="preserve" font-family="Menlo-Bold" font-weight="bold" font-size="40.0" fill="#373840" transform="matrix(1.00, 0.00, -0.00, -1.00, 428.1, 608.0)">y</text><text xml:space="preserve" font-family="Menlo-Bold" font-weight="bold" font-size="40.0" fill="#373840" transform="matrix(1.00, 0.00, -0.00, -1.00, 452.2, 608.0)">c</text><text xml:space="preserve" font-family="Menlo-Bold" font-weight="bold" font-size="40.0" fill="#373840" transform="matrix(1.00, 0.00, -0.00, -1.00, 476.3, 608.0)">l</text><text xml:space="preserve" font-family="Menlo-Bold" font-weight="bold" font-size="40.0" fill="#373840" transform="matrix(1.00, 0.00, -0.00, -1.00, 500.3, 608.0)">e</text><text xml:space="preserve" font-family="Menlo-Bold" font-weight="bold" font-size="40.0" fill="#373840" transform="matrix(1.00, 0.00, -0.00, -1.00, 524.4, 608.0)">.</text><text xml:space="preserve" font-family="Menlo-Bold" font-weight="bold" font-size="40.0" fill="#373840" transform="matrix(1.00, 0.00, -0.00, -1.00, 548.5, 608.0)">j</text><text xml:space="preserve" font-family="Menlo-Bold" font-weight="bold" font-size="40.0" fill="#373840" transform="matrix(1.00, 0.00, -0.00, -1.00, 572.6, 608.0)">s</text><text xml:space="preserve" font-family="Menlo-Bold" font-weight="bold" font-size="40.0" fill="#373840" transform="matrix(1.00, 0.00, -0.00, -1.00, 596.7, 608.0)">?</text><text xml:space="preserve" font-family="Menlo-Bold" font-weight="bold" font-size="40.0" fill="#373840" transform="matrix(1.00, 0.00, -0.00, -1.00, 620.8, 608.0)"> </text><text xml:space="preserve" font-family="Menlo-Regular" font-size="40.0" fill="#373840" transform="matrix(1.00, 0.00, -0.00, -1.00, 160.0, 507.0)">T</text><text xml:space="preserve" font-family="Menlo-Regular" font-size="40.0" fill="#373840" transform="matrix(1.00, 0.00, -0.00, -1.00, 184.1, 507.0)">h</text><text xml:space="preserve" font-family="Menlo-Regular" font-size="40.0" fill="#373840" transform="matrix(1.00, 0.00, -0.00, -1.00, 208.2, 507.0)">e</text><text xml:space="preserve" font-family="Menlo-Regular" font-size="40.0" fill="#373840" transform="matrix(1.00, 0.00, -0.00, -1.00, 232.3, 507.0)"> </text><text xml:space="preserve" font-family="Menlo-BoldItalic" font-style="italic" font-weight="bold" font-size="40.0" fill="#373840" transform="matrix(1.00, 0.00, -0.00, -1.00, 256.3, 507.0)">r</text><text xml:space="preserve" font-family="Menlo-BoldItalic" font-style="italic" font-weight="bold" font-size="40.0" fill="#373840" transform="matrix(1.00, 0.00, -0.00, -1.00, 280.4, 507.0)">e</text><text xml:space="preserve" font-family="Menlo-BoldItalic" font-style="italic" font-weight="bold" font-size="40.0" fill="#373840" transform="matrix(1.00, 0.00, -0.00, -1.00, 304.5, 507.0)">a</text><text xml:space="preserve" font-family="Menlo-BoldItalic" font-style="italic" font-weight="bold" font-size="40.0" fill="#373840" transform="matrix(1.00, 0.00, -0.00, -1.00, 328.6, 507.0)">c</text><text xml:space="preserve" font-family="Menlo-BoldItalic" font-style="italic" font-weight="bold" font-size="40.0" fill="#373840" transform="matrix(1.00, 0.00, -0.00, -1.00, 352.7, 507.0)">t</text><text xml:space="preserve" font-family="Menlo-BoldItalic" font-style="italic" font-weight="bold" font-size="40.0" fill="#373840" transform="matrix(1.00, 0.00, -0.00, -1.00, 376.8, 507.0)">i</text><text xml:space="preserve" font-family="Menlo-BoldItalic" font-style="italic" font-weight="bold" font-size="40.0" fill="#373840" transform="matrix(1.00, 0.00, -0.00, -1.00, 400.8, 507.0)">v</text><text xml:space="preserve" font-family="Menlo-BoldItalic" font-style="italic" font-weight="bold" font-size="40.0" fill="#373840" transform="matrix(1.00, 0.00, -0.00, -1.00, 424.9, 507.0)">e</text><text xml:space="preserve" font-family="Menlo-BoldItalic" font-style="italic" font-weight="bold" font-size="40.0" fill="#373840" transform="matrix(1.00, 0.00, -0.00, -1.00, 449.0, 507.0)"> </text><text xml:space="preserve" font-family="Menlo-BoldItalic" font-style="italic" font-weight="bold" font-size="40.0" fill="#373840" transform="matrix(1.00, 0.00, -0.00, -1.00, 473.1, 507.0)">l</text><text xml:space="preserve" font-family="Menlo-BoldItalic" font-style="italic" font-weight="bold" font-size="40.0" fill="#373840" transform="matrix(1.00, 0.00, -0.00, -1.00, 497.2, 507.0)">o</text><text xml:space="preserve" font-family="Menlo-BoldItalic" font-style="italic" font-weight="bold" font-size="40.0" fill="#373840" transform="matrix(1.00, 0.00, -0.00, -1.00, 521.3, 507.0)">o</text><text xml:space="preserve" font-family="Menlo-BoldItalic" font-style="italic" font-weight="bold" font-size="40.0" fill="#373840" transform="matrix(1.00, 0.00, -0.00, -1.00, 545.4, 507.0)">p</text><text xml:space="preserve" font-family="Menlo-Regular" font-size="40.0" fill="#373840" transform="matrix(1.00, 0.00, -0.00, -1.00, 569.4, 507.0)"> </text><text xml:space="preserve" font-family="Menlo-Regular" font-size="40.0" fill="#373840" transform="matrix(1.00, 0.00, -0.00, -1.00, 593.5, 507.0)">b</text><text xml:space="preserve" font-family="Menlo-Regular" font-size="40.0" fill="#373840" transform="matrix(1.00, 0.00, -0.00, -1.00, 617.6, 507.0)">e</text><text xml:space="preserve" font-family="Menlo-Regular" font-size="40.0" fill="#373840" transform="matrix(1.00, 0.00, -0.00, -1.00, 641.7, 507.0)">t</text><text xml:space="preserve" font-family="Menlo-Regular" font-size="40.0" fill="#373840" transform="matrix(1.00, 0.00, -0.00, -1.00, 665.7, 507.0)">w</text><text xml:space="preserve" font-family="Menlo-Regular" font-size="40.0" fill="#373840" transform="matrix(1.00, 0.00, -0.00, -1.00, 689.8, 507.0)">e</text><text xml:space="preserve" font-family="Menlo-Regular" font-size="40.0" fill="#373840" transform="matrix(1.00, 0.00, -0.00, -1.00, 713.9, 507.0)">e</text><text xml:space="preserve" font-family="Menlo-Regular" font-size="40.0" fill="#373840" transform="matrix(1.00, 0.00, -0.00, -1.00, 738.0, 507.0)">n</text><text xml:space="preserve" font-family="Menlo-Regular" font-size="40.0" fill="#373840" transform="matrix(1.00, 0.00, -0.00, -1.00, 762.1, 507.0)"> </text><text xml:space="preserve" font-family="Menlo-Regular" font-size="40.0" fill="#373840" transform="matrix(1.00, 0.00, -0.00, -1.00, 786.2, 507.0)">y</text><text xml:space="preserve" font-family="Menlo-Regular" font-size="40.0" fill="#373840" transform="matrix(1.00, 0.00, -0.00, -1.00, 810.3, 507.0)">o</text><text xml:space="preserve" font-family="Menlo-Regular" font-size="40.0" fill="#373840" transform="matrix(1.00, 0.00, -0.00, -1.00, 834.3, 507.0)">u</text><text xml:space="preserve" font-family="Menlo-Regular" font-size="40.0" fill="#373840" transform="matrix(1.00, 0.00, -0.00, -1.00, 858.4, 507.0)">r</text><text xml:space="preserve" font-family="Menlo-Regular" font-size="40.0" fill="#373840" transform="matrix(1.00, 0.00, -0.00, -1.00, 882.5, 507.0)"> </text><g><clipPath id="clip-124"><path d="M 255.1 502.7 L 569.2 502.7 L 569.2 506.5 L 255.1 506.5 Z M 255.1 502.7 "></path></clipPath><g clip-path="url(#clip-124)"><path d="M 163.0 194.9 L 476.1 194.9 " fill="none" stroke="#373840" stroke-width="1.76" stroke-miterlimit="0.00" transform="matrix(1.00, 0.00, 0.00, -1.00, 93.1, 699.5)"></path></g></g><text xml:space="preserve" font-family="Menlo-Regular" font-size="40.0" fill="#373840" transform="matrix(1.00, 0.00, -0.00, -1.00, 124.0, 457.0)">a</text><text xml:space="preserve" font-family="Menlo-Regular" font-size="40.0" fill="#373840" transform="matrix(1.00, 0.00, -0.00, -1.00, 148.1, 457.0)">p</text><text xml:space="preserve" font-family="Menlo-Regular" font-size="40.0" fill="#373840" transform="matrix(1.00, 0.00, -0.00, -1.00, 172.2, 457.0)">p</text><text xml:space="preserve" font-family="Menlo-Regular" font-size="40.0" fill="#373840" transform="matrix(1.00, 0.00, -0.00, -1.00, 196.3, 457.0)"> </text><text xml:space="preserve" font-family="Menlo-Regular" font-size="40.0" fill="#373840" transform="matrix(1.00, 0.00, -0.00, -1.00, 220.3, 457.0)">(</text><text xml:space="preserve" font-family="Menlo-Regular" font-size="40.0" fill="#373840" transform="matrix(1.00, 0.00, -0.00, -1.00, 244.4, 457.0)">l</text><text xml:space="preserve" font-family="Menlo-Regular" font-size="40.0" fill="#373840" transform="matrix(1.00, 0.00, -0.00, -1.00, 268.5, 457.0)">o</text><text xml:space="preserve" font-family="Menlo-Regular" font-size="40.0" fill="#373840" transform="matrix(1.00, 0.00, -0.00, -1.00, 292.6, 457.0)">g</text><text xml:space="preserve" font-family="Menlo-Regular" font-size="40.0" fill="#373840" transform="matrix(1.00, 0.00, -0.00, -1.00, 316.7, 457.0)">i</text><text xml:space="preserve" font-family="Menlo-Regular" font-size="40.0" fill="#373840" transform="matrix(1.00, 0.00, -0.00, -1.00, 340.8, 457.0)">c</text><text xml:space="preserve" font-family="Menlo-Regular" font-size="40.0" fill="#373840" transform="matrix(1.00, 0.00, -0.00, -1.00, 364.9, 457.0)">)</text><text xml:space="preserve" font-family="Menlo-Regular" font-size="40.0" fill="#373840" transform="matrix(1.00, 0.00, -0.00, -1.00, 388.9, 457.0)"> </text><text xml:space="preserve" font-family="Menlo-Regular" font-size="40.0" fill="#373840" transform="matrix(1.00, 0.00, -0.00, -1.00, 413.0, 457.0)">a</text><text xml:space="preserve" font-family="Menlo-Regular" font-size="40.0" fill="#373840" transform="matrix(1.00, 0.00, -0.00, -1.00, 437.1, 457.0)">n</text><text xml:space="preserve" font-family="Menlo-Regular" font-size="40.0" fill="#373840" transform="matrix(1.00, 0.00, -0.00, -1.00, 461.2, 457.0)">d</text><text xml:space="preserve" font-family="Menlo-Regular" font-size="40.0" fill="#373840" transform="matrix(1.00, 0.00, -0.00, -1.00, 485.3, 457.0)"> </text><text xml:space="preserve" font-family="Menlo-Regular" font-size="40.0" fill="#373840" transform="matrix(1.00, 0.00, -0.00, -1.00, 509.4, 457.0)">t</text><text xml:space="preserve" font-family="Menlo-Regular" font-size="40.0" fill="#373840" transform="matrix(1.00, 0.00, -0.00, -1.00, 533.5, 457.0)">h</text><text xml:space="preserve" font-family="Menlo-Regular" font-size="40.0" fill="#373840" transform="matrix(1.00, 0.00, -0.00, -1.00, 557.5, 457.0)">e</text><text xml:space="preserve" font-family="Menlo-Regular" font-size="40.0" fill="#373840" transform="matrix(1.00, 0.00, -0.00, -1.00, 581.6, 457.0)"> </text><text xml:space="preserve" font-family="Menlo-Regular" font-size="40.0" fill="#373840" transform="matrix(1.00, 0.00, -0.00, -1.00, 605.7, 457.0)">o</text><text xml:space="preserve" font-family="Menlo-Regular" font-size="40.0" fill="#373840" transform="matrix(1.00, 0.00, -0.00, -1.00, 629.8, 457.0)">u</text><text xml:space="preserve" font-family="Menlo-Regular" font-size="40.0" fill="#373840" transform="matrix(1.00, 0.00, -0.00, -1.00, 653.9, 457.0)">t</text><text xml:space="preserve" font-family="Menlo-Regular" font-size="40.0" fill="#373840" transform="matrix(1.00, 0.00, -0.00, -1.00, 678.0, 457.0)">s</text><text xml:space="preserve" font-family="Menlo-Regular" font-size="40.0" fill="#373840" transform="matrix(1.00, 0.00, -0.00, -1.00, 702.1, 457.0)">i</text><text xml:space="preserve" font-family="Menlo-Regular" font-size="40.0" fill="#373840" transform="matrix(1.00, 0.00, -0.00, -1.00, 726.2, 457.0)">d</text><text xml:space="preserve" font-family="Menlo-Regular" font-size="40.0" fill="#373840" transform="matrix(1.00, 0.00, -0.00, -1.00, 750.2, 457.0)">e</text><text xml:space="preserve" font-family="Menlo-Regular" font-size="40.0" fill="#373840" transform="matrix(1.00, 0.00, -0.00, -1.00, 774.3, 457.0)"> </text><text xml:space="preserve" font-family="Menlo-Regular" font-size="40.0" fill="#373840" transform="matrix(1.00, 0.00, -0.00, -1.00, 798.4, 457.0)">w</text><text xml:space="preserve" font-family="Menlo-Regular" font-size="40.0" fill="#373840" transform="matrix(1.00, 0.00, -0.00, -1.00, 822.5, 457.0)">o</text><text xml:space="preserve" font-family="Menlo-Regular" font-size="40.0" fill="#373840" transform="matrix(1.00, 0.00, -0.00, -1.00, 846.6, 457.0)">r</text><text xml:space="preserve" font-family="Menlo-Regular" font-size="40.0" fill="#373840" transform="matrix(1.00, 0.00, -0.00, -1.00, 870.7, 457.0)">l</text><text xml:space="preserve" font-family="Menlo-Regular" font-size="40.0" fill="#373840" transform="matrix(1.00, 0.00, -0.00, -1.00, 894.8, 457.0)">d</text><text xml:space="preserve" font-family="Menlo-Regular" font-size="40.0" fill="#373840" transform="matrix(1.00, 0.00, -0.00, -1.00, 918.8, 457.0)"> </text><text xml:space="preserve" font-family="Menlo-Regular" font-size="40.0" fill="#373840" transform="matrix(1.00, 0.00, -0.00, -1.00, 160.0, 406.0)">(</text><text xml:space="preserve" font-family="Menlo-Regular" font-size="40.0" fill="#373840" transform="matrix(1.00, 0.00, -0.00, -1.00, 184.1, 406.0)">e</text><text xml:space="preserve" font-family="Menlo-Regular" font-size="40.0" fill="#373840" transform="matrix(1.00, 0.00, -0.00, -1.00, 208.2, 406.0)">f</text><text xml:space="preserve" font-family="Menlo-Regular" font-size="40.0" fill="#373840" transform="matrix(1.00, 0.00, -0.00, -1.00, 232.3, 406.0)">f</text><text xml:space="preserve" font-family="Menlo-Regular" font-size="40.0" fill="#373840" transform="matrix(1.00, 0.00, -0.00, -1.00, 256.3, 406.0)">e</text><text xml:space="preserve" font-family="Menlo-Regular" font-size="40.0" fill="#373840" transform="matrix(1.00, 0.00, -0.00, -1.00, 280.4, 406.0)">c</text><text xml:space="preserve" font-family="Menlo-Regular" font-size="40.0" fill="#373840" transform="matrix(1.00, 0.00, -0.00, -1.00, 304.5, 406.0)">t</text><text xml:space="preserve" font-family="Menlo-Regular" font-size="40.0" fill="#373840" transform="matrix(1.00, 0.00, -0.00, -1.00, 328.6, 406.0)">s</text><text xml:space="preserve" font-family="Menlo-Regular" font-size="40.0" fill="#373840" transform="matrix(1.00, 0.00, -0.00, -1.00, 352.7, 406.0)">)</text><text xml:space="preserve" font-family="Menlo-Regular" font-size="40.0" fill="#373840" transform="matrix(1.00, 0.00, -0.00, -1.00, 376.8, 406.0)"> </text><text xml:space="preserve" font-family="Menlo-Regular" font-size="40.0" fill="#373840" transform="matrix(1.00, 0.00, -0.00, -1.00, 400.9, 406.0)">i</text><text xml:space="preserve" font-family="Menlo-Regular" font-size="40.0" fill="#373840" transform="matrix(1.00, 0.00, -0.00, -1.00, 424.9, 406.0)">s</text><text xml:space="preserve" font-family="Menlo-Regular" font-size="40.0" fill="#373840" transform="matrix(1.00, 0.00, -0.00, -1.00, 449.0, 406.0)"> </text><text xml:space="preserve" font-family="Menlo-Regular" font-size="40.0" fill="#373840" transform="matrix(1.00, 0.00, -0.00, -1.00, 473.1, 406.0)">a</text><text xml:space="preserve" font-family="Menlo-Regular" font-size="40.0" fill="#373840" transform="matrix(1.00, 0.00, -0.00, -1.00, 497.2, 406.0)"> </text><text xml:space="preserve" font-family="Menlo-Regular" font-size="40.0" fill="#373840" transform="matrix(1.00, 0.00, -0.00, -1.00, 521.3, 406.0)">n</text><text xml:space="preserve" font-family="Menlo-Regular" font-size="40.0" fill="#373840" transform="matrix(1.00, 0.00, -0.00, -1.00, 545.4, 406.0)">o</text><text xml:space="preserve" font-family="Menlo-Regular" font-size="40.0" fill="#373840" transform="matrix(1.00, 0.00, -0.00, -1.00, 569.5, 406.0)">v</text><text xml:space="preserve" font-family="Menlo-Regular" font-size="40.0" fill="#373840" transform="matrix(1.00, 0.00, -0.00, -1.00, 593.5, 406.0)">e</text><text xml:space="preserve" font-family="Menlo-Regular" font-size="40.0" fill="#373840" transform="matrix(1.00, 0.00, -0.00, -1.00, 617.6, 406.0)">l</text><text xml:space="preserve" font-family="Menlo-Regular" font-size="40.0" fill="#373840" transform="matrix(1.00, 0.00, -0.00, -1.00, 641.7, 406.0)"> </text><text xml:space="preserve" font-family="Menlo-Regular" font-size="40.0" fill="#373840" transform="matrix(1.00, 0.00, -0.00, -1.00, 665.8, 406.0)">p</text><text xml:space="preserve" font-family="Menlo-Regular" font-size="40.0" fill="#373840" transform="matrix(1.00, 0.00, -0.00, -1.00, 689.9, 406.0)">a</text><text xml:space="preserve" font-family="Menlo-Regular" font-size="40.0" fill="#373840" transform="matrix(1.00, 0.00, -0.00, -1.00, 714.0, 406.0)">r</text><text xml:space="preserve" font-family="Menlo-Regular" font-size="40.0" fill="#373840" transform="matrix(1.00, 0.00, -0.00, -1.00, 738.1, 406.0)">a</text><text xml:space="preserve" font-family="Menlo-Regular" font-size="40.0" fill="#373840" transform="matrix(1.00, 0.00, -0.00, -1.00, 762.2, 406.0)">d</text><text xml:space="preserve" font-family="Menlo-Regular" font-size="40.0" fill="#373840" transform="matrix(1.00, 0.00, -0.00, -1.00, 786.2, 406.0)">i</text><text xml:space="preserve" font-family="Menlo-Regular" font-size="40.0" fill="#373840" transform="matrix(1.00, 0.00, -0.00, -1.00, 810.3, 406.0)">g</text><text xml:space="preserve" font-family="Menlo-Regular" font-size="40.0" fill="#373840" transform="matrix(1.00, 0.00, -0.00, -1.00, 834.4, 406.0)">m</text><text xml:space="preserve" font-family="Menlo-Regular" font-size="40.0" fill="#373840" transform="matrix(1.00, 0.00, -0.00, -1.00, 858.5, 406.0)">.</text><image xlink:href="../../303EAC8A-857F-45DC-BE6A-D1D7EACEA38D/assets/585A0FAA1AA6A5C344850961B44545B5.png" width="450.00" height="339.00" transform="matrix(1.00, 0.00, -0.00, -1.00, 278.0, 342.0)"></image></g></svg>