<?xml version="1.0" encoding="UTF-8" standalone="no"?><svg xmlns="http://www.w3.org/2000/svg" xmlns:xlink="http://www.w3.org/1999/xlink" clip-rule="evenodd" stroke-miterlimit="4.00" viewBox="0 0 1024 768"><desc>SVG generated by Keynote</desc><defs></defs><g transform="matrix(1.00, 0.00, -0.00, -1.00, 0.0, 768.0)"><path d="M 0.0 768.0 L 1024.0 768.0 L 1024.0 0.0 L 0.0 0.0 Z M 0.0 768.0 " fill="#FAFAFA"></path><text xml:space="preserve" font-family="Menlo-Bold" font-weight="bold" font-size="40.0" fill="#373840" transform="matrix(1.00, 0.00, -0.00, -1.00, 247.0, 370.0)">W</text><text xml:space="preserve" font-family="Menlo-Bold" font-weight="bold" font-size="40.0" fill="#373840" transform="matrix(1.00, 0.00, -0.00, -1.00, 271.1, 370.0)">h</text><text xml:space="preserve" font-family="Menlo-Bold" font-weight="bold" font-size="40.0" fill="#373840" transform="matrix(1.00, 0.00, -0.00, -1.00, 295.2, 370.0)">a</text><text xml:space="preserve" font-family="Menlo-Bold" font-weight="bold" font-size="40.0" fill="#373840" transform="matrix(1.00, 0.00, -0.00, -1.00, 319.3, 370.0)">t</text><text xml:space="preserve" font-family="Menlo-Bold" font-weight="bold" font-size="40.0" fill="#373840" transform="matrix(1.00, 0.00, -0.00, -1.00, 343.3, 370.0)"> </text><text xml:space="preserve" font-family="Menlo-Bold" font-weight="bold" font-size="40.0" fill="#373840" transform="matrix(1.00, 0.00, -0.00, -1.00, 367.4, 370.0)">a</text><text xml:space="preserve" font-family="Menlo-Bold" font-weight="bold" font-size="40.0" fill="#373840" transform="matrix(1.00, 0.00, -0.00, -1.00, 391.5, 370.0)">b</text><text xml:space="preserve" font-family="Menlo-Bold" font-weight="bold" font-size="40.0" fill="#373840" transform="matrix(1.00, 0.00, -0.00, -1.00, 415.6, 370.0)">o</text><text xml:space="preserve" font-family="Menlo-Bold" font-weight="bold" font-size="40.0" fill="#373840" transform="matrix(1.00, 0.00, -0.00, -1.00, 439.7, 370.0)">u</text><text xml:space="preserve" font-family="Menlo-Bold" font-weight="bold" font-size="40.0" fill="#373840" transform="matrix(1.00, 0.00, -0.00, -1.00, 463.8, 370.0)">t</text><text xml:space="preserve" font-family="Menlo-Bold" font-weight="bold" font-size="40.0" fill="#373840" transform="matrix(1.00, 0.00, -0.00, -1.00, 487.9, 370.0)"> </text><text xml:space="preserve" font-family="Menlo-Bold" font-weight="bold" font-size="40.0" fill="#373840" transform="matrix(1.00, 0.00, -0.00, -1.00, 511.9, 370.0)">c</text><text xml:space="preserve" font-family="Menlo-Bold" font-weight="bold" font-size="40.0" fill="#373840" transform="matrix(1.00, 0.00, -0.00, -1.00, 536.0, 370.0)">o</text><text xml:space="preserve" font-family="Menlo-Bold" font-weight="bold" font-size="40.0" fill="#373840" transform="matrix(1.00, 0.00, -0.00, -1.00, 560.1, 370.0)">m</text><text xml:space="preserve" font-family="Menlo-Bold" font-weight="bold" font-size="40.0" fill="#373840" transform="matrix(1.00, 0.00, -0.00, -1.00, 584.2, 370.0)">p</text><text xml:space="preserve" font-family="Menlo-Bold" font-weight="bold" font-size="40.0" fill="#373840" transform="matrix(1.00, 0.00, -0.00, -1.00, 608.3, 370.0)">o</text><text xml:space="preserve" font-family="Menlo-Bold" font-weight="bold" font-size="40.0" fill="#373840" transform="matrix(1.00, 0.00, -0.00, -1.00, 632.4, 370.0)">n</text><text xml:space="preserve" font-family="Menlo-Bold" font-weight="bold" font-size="40.0" fill="#373840" transform="matrix(1.00, 0.00, -0.00, -1.00, 656.5, 370.0)">e</text><text xml:space="preserve" font-family="Menlo-Bold" font-weight="bold" font-size="40.0" fill="#373840" transform="matrix(1.00, 0.00, -0.00, -1.00, 680.5, 370.0)">n</text><text xml:space="preserve" font-family="Menlo-Bold" font-weight="bold" font-size="40.0" fill="#373840" transform="matrix(1.00, 0.00, -0.00, -1.00, 704.6, 370.0)">t</text><text xml:space="preserve" font-family="Menlo-Bold" font-weight="bold" font-size="40.0" fill="#373840" transform="matrix(1.00, 0.00, -0.00, -1.00, 728.7, 370.0)">s</text><text xml:space="preserve" font-family="Menlo-Bold" font-weight="bold" font-size="40.0" fill="#373840" transform="matrix(1.00, 0.00, -0.00, -1.00, 752.8, 370.0)">?</text></g></svg>