<?xml version="1.0" encoding="UTF-8" standalone="no"?><svg xmlns="http://www.w3.org/2000/svg" xmlns:xlink="http://www.w3.org/1999/xlink" clip-rule="evenodd" stroke-miterlimit="4.00" viewBox="0 0 572 33"><desc>SVG generated by Keynote</desc><defs></defs><g transform="matrix(1.00, 0.00, -0.00, -1.00, 0.0, 33.0)"><text xml:space="preserve" font-family="Menlo-Regular" font-size="33.0" fill="#373840" transform="matrix(1.00, 0.00, -0.00, -1.00, 1.0, 4.0)">&gt;</text><text xml:space="preserve" font-family="Menlo-Regular" font-size="33.0" fill="#373840" transform="matrix(1.00, 0.00, -0.00, -1.00, 20.9, 4.0)"> </text><text xml:space="preserve" font-family="Menlo-Regular" font-size="33.0" fill="#373840" transform="matrix(1.00, 0.00, -0.00, -1.00, 40.7, 4.0)">[</text><text xml:space="preserve" font-family="Menlo-Regular" font-size="33.0" fill="#373840" transform="matrix(1.00, 0.00, -0.00, -1.00, 60.6, 4.0)">1</text><text xml:space="preserve" font-family="Menlo-Regular" font-size="33.0" fill="#373840" transform="matrix(1.00, 0.00, -0.00, -1.00, 80.5, 4.0)">…</text><text xml:space="preserve" font-family="Menlo-Regular" font-size="33.0" fill="#373840" transform="matrix(1.00, 0.00, -0.00, -1.00, 100.4, 4.0)">2</text><text xml:space="preserve" font-family="Menlo-Regular" font-size="33.0" fill="#373840" transform="matrix(1.00, 0.00, -0.00, -1.00, 120.2, 4.0)">…</text><text xml:space="preserve" font-family="Menlo-Regular" font-size="33.0" fill="#373840" transform="matrix(1.00, 0.00, -0.00, -1.00, 140.1, 4.0)">…</text><text xml:space="preserve" font-family="Menlo-Regular" font-size="33.0" fill="#373840" transform="matrix(1.00, 0.00, -0.00, -1.00, 160.0, 4.0)">3</text><text xml:space="preserve" font-family="Menlo-Regular" font-size="33.0" fill="#373840" transform="matrix(1.00, 0.00, -0.00, -1.00, 179.8, 4.0)">]</text><text xml:space="preserve" font-family="Menlo-Regular" font-size="33.0" fill="#373840" transform="matrix(1.00, 0.00, -0.00, -1.00, 199.7, 4.0)">.</text><text xml:space="preserve" font-family="Menlo-Regular" font-size="33.0" fill="#3F82EE" transform="matrix(1.00, 0.00, -0.00, -1.00, 219.5, 4.0)">f</text><text xml:space="preserve" font-family="Menlo-Regular" font-size="33.0" fill="#3F82EE" transform="matrix(1.00, 0.00, -0.00, -1.00, 239.4, 4.0)">i</text><text xml:space="preserve" font-family="Menlo-Regular" font-size="33.0" fill="#3F82EE" transform="matrix(1.00, 0.00, -0.00, -1.00, 259.3, 4.0)">l</text><text xml:space="preserve" font-family="Menlo-Regular" font-size="33.0" fill="#3F82EE" transform="matrix(1.00, 0.00, -0.00, -1.00, 279.2, 4.0)">t</text><text xml:space="preserve" font-family="Menlo-Regular" font-size="33.0" fill="#3F82EE" transform="matrix(1.00, 0.00, -0.00, -1.00, 299.0, 4.0)">e</text><text xml:space="preserve" font-family="Menlo-Regular" font-size="33.0" fill="#3F82EE" transform="matrix(1.00, 0.00, -0.00, -1.00, 318.9, 4.0)">r</text><text xml:space="preserve" font-family="Menlo-Regular" font-size="33.0" fill="#373840" transform="matrix(1.00, 0.00, -0.00, -1.00, 338.8, 4.0)">(</text><text xml:space="preserve" font-family="Menlo-Regular" font-size="33.0" fill="#373840" transform="matrix(1.00, 0.00, -0.00, -1.00, 358.6, 4.0)">x</text><text xml:space="preserve" font-family="Menlo-Regular" font-size="33.0" fill="#373840" transform="matrix(1.00, 0.00, -0.00, -1.00, 378.5, 4.0)"> </text><text xml:space="preserve" font-family="Menlo-Regular" font-size="33.0" fill="#373840" transform="matrix(1.00, 0.00, -0.00, -1.00, 398.4, 4.0)">=</text><text xml:space="preserve" font-family="Menlo-Regular" font-size="33.0" fill="#373840" transform="matrix(1.00, 0.00, -0.00, -1.00, 418.2, 4.0)">&gt;</text><text xml:space="preserve" font-family="Menlo-Regular" font-size="33.0" fill="#373840" transform="matrix(1.00, 0.00, -0.00, -1.00, 438.1, 4.0)"> </text><text xml:space="preserve" font-family="Menlo-Regular" font-size="33.0" fill="#373840" transform="matrix(1.00, 0.00, -0.00, -1.00, 458.0, 4.0)">x</text><text xml:space="preserve" font-family="Menlo-Regular" font-size="33.0" fill="#373840" transform="matrix(1.00, 0.00, -0.00, -1.00, 477.8, 4.0)"> </text><text xml:space="preserve" font-family="Menlo-Regular" font-size="33.0" fill="#373840" transform="matrix(1.00, 0.00, -0.00, -1.00, 497.7, 4.0)">&gt;</text><text xml:space="preserve" font-family="Menlo-Regular" font-size="33.0" fill="#373840" transform="matrix(1.00, 0.00, -0.00, -1.00, 517.6, 4.0)"> </text><text xml:space="preserve" font-family="Menlo-Regular" font-size="33.0" fill="#373840" transform="matrix(1.00, 0.00, -0.00, -1.00, 537.5, 4.0)">1</text><text xml:space="preserve" font-family="Menlo-Regular" font-size="33.0" fill="#373840" transform="matrix(1.00, 0.00, -0.00, -1.00, 557.3, 4.0)">)</text></g></svg>