<?xml version="1.0" encoding="UTF-8" standalone="no"?><svg xmlns="http://www.w3.org/2000/svg" xmlns:xlink="http://www.w3.org/1999/xlink" clip-rule="evenodd" stroke-miterlimit="4.00" viewBox="0 0 1024 768"><desc>SVG generated by Keynote</desc><defs></defs><g transform="matrix(1.00, 0.00, -0.00, -1.00, 0.0, 768.0)"><path d="M 0.0 768.0 L 1024.0 768.0 L 1024.0 0.0 L 0.0 0.0 Z M 0.0 768.0 " fill="#FAFAFA"></path><text xml:space="preserve" font-family="Menlo-Regular" font-size="50.0" fill="#373840" transform="matrix(1.00, 0.00, -0.00, -1.00, 392.0, 665.0)">P</text><text xml:space="preserve" font-family="Menlo-Regular" font-size="50.0" fill="#373840" transform="matrix(1.00, 0.00, -0.00, -1.00, 422.1, 665.0)">r</text><text xml:space="preserve" font-family="Menlo-Regular" font-size="50.0" fill="#373840" transform="matrix(1.00, 0.00, -0.00, -1.00, 452.2, 665.0)">o</text><text xml:space="preserve" font-family="Menlo-Regular" font-size="50.0" fill="#373840" transform="matrix(1.00, 0.00, -0.00, -1.00, 482.3, 665.0)">m</text><text xml:space="preserve" font-family="Menlo-Regular" font-size="50.0" fill="#373840" transform="matrix(1.00, 0.00, -0.00, -1.00, 512.4, 665.0)">i</text><text xml:space="preserve" font-family="Menlo-Regular" font-size="50.0" fill="#373840" transform="matrix(1.00, 0.00, -0.00, -1.00, 542.5, 665.0)">s</text><text xml:space="preserve" font-family="Menlo-Regular" font-size="50.0" fill="#373840" transform="matrix(1.00, 0.00, -0.00, -1.00, 572.6, 665.0)">e</text><text xml:space="preserve" font-family="Menlo-Regular" font-size="50.0" fill="#373840" transform="matrix(1.00, 0.00, -0.00, -1.00, 602.8, 665.0)">s</text><path d="M 0.0 0.0 L 472.5 0.0 L 475.0 0.0 " fill="none" stroke="#373840" stroke-width="5.00" transform="matrix(1.00, 0.00, 0.00, -1.00, 365.0, 569.7)"></path><path d="M 837.5 559.5 L 857.9 569.7 L 837.5 579.9 Z M 837.5 559.5 " fill="#373840"></path><text xml:space="preserve" font-family="Menlo-Regular" font-size="30.0" fill="#373840" transform="matrix(1.00, 0.00, -0.00, -1.00, 771.0, 590.0)">t</text><text xml:space="preserve" font-family="Menlo-Regular" font-size="30.0" fill="#373840" transform="matrix(1.00, 0.00, -0.00, -1.00, 789.1, 590.0)">i</text><text xml:space="preserve" font-family="Menlo-Regular" font-size="30.0" fill="#373840" transform="matrix(1.00, 0.00, -0.00, -1.00, 807.1, 590.0)">m</text><text xml:space="preserve" font-family="Menlo-Regular" font-size="30.0" fill="#373840" transform="matrix(1.00, 0.00, -0.00, -1.00, 825.2, 590.0)">e</text><path d="M 58.8 515.0 L 156.9 515.0 L 156.9 416.8 L 58.8 416.8 Z M 58.8 515.0 " fill="#FF5A75"></path><g><clipPath id="clip-148"><path d="M 53.4 416.8 L 162.3 416.8 L 162.3 515.0 L 53.4 515.0 Z M 53.4 416.8 "></path></clipPath><g clip-path="url(#clip-148)"><text xml:space="preserve" font-family="Menlo-Regular" font-size="32.0" fill="#F8F8F0" transform="matrix(1.00, 0.00, -0.00, -1.00, 89.0, 455.0)">4</text><text xml:space="preserve" font-family="Menlo-Regular" font-size="32.0" fill="#F8F8F0" transform="matrix(1.00, 0.00, -0.00, -1.00, 108.3, 455.0)">2</text></g></g><image xlink:href="../../CFD9342E-2F3F-49EE-AE16-1A3B868F2922/assets/96D8E5250295D8CB0DA1F941B9E67CDE.png" width="516.00" height="244.00" transform="matrix(1.00, 0.00, -0.00, -1.00, 353.0, 474.0)"></image><path d="M 217.1 596.0 L 293.3 596.0 L 293.3 519.7 L 217.1 519.7 Z M 217.1 596.0 " fill="#FAFAFA"></path><path d="M 0.0 0.0 L 76.2 0.0 L 76.2 76.2 L 0.0 76.2 Z M 0.0 0.0 " fill="none" stroke="#373840" stroke-width="2.00" transform="matrix(1.00, 0.00, 0.00, -1.00, 217.1, 596.0)"></path><g><clipPath id="clip-149"><path d="M 215.1 520.7 L 295.3 520.7 L 295.3 595.0 L 215.1 595.0 Z M 215.1 520.7 "></path></clipPath><g clip-path="url(#clip-149)"><text xml:space="preserve" font-family="Menlo-Regular" font-size="24.0" fill="#373840" transform="matrix(1.00, 0.00, -0.00, -1.00, 241.0, 550.0)">4</text><text xml:space="preserve" font-family="Menlo-Regular" font-size="24.0" fill="#373840" transform="matrix(1.00, 0.00, -0.00, -1.00, 255.5, 550.0)">2</text></g></g><path d="M 217.1 493.0 L 293.3 493.0 L 293.3 416.7 L 217.1 416.7 Z M 217.1 493.0 " fill="#FAFAFA"></path><path d="M 0.0 0.0 L 76.2 0.0 L 76.2 76.2 L 0.0 76.2 Z M 0.0 0.0 " fill="none" stroke="#373840" stroke-width="2.00" transform="matrix(1.00, 0.00, 0.00, -1.00, 217.1, 493.0)"></path><g><clipPath id="clip-150"><path d="M 215.1 417.7 L 295.3 417.7 L 295.3 492.0 L 215.1 492.0 Z M 215.1 417.7 "></path></clipPath><g clip-path="url(#clip-150)"><text xml:space="preserve" font-family="Menlo-Regular" font-size="24.0" fill="#373840" transform="matrix(1.00, 0.00, -0.00, -1.00, 241.0, 447.0)">4</text><text xml:space="preserve" font-family="Menlo-Regular" font-size="24.0" fill="#373840" transform="matrix(1.00, 0.00, -0.00, -1.00, 255.5, 447.0)">2</text></g></g><path d="M 217.1 390.0 L 293.3 390.0 L 293.3 313.7 L 217.1 313.7 Z M 217.1 390.0 " fill="#FAFAFA"></path><path d="M 0.0 0.0 L 76.2 0.0 L 76.2 76.2 L 0.0 76.2 Z M 0.0 0.0 " fill="none" stroke="#373840" stroke-width="2.00" transform="matrix(1.00, 0.00, 0.00, -1.00, 217.1, 390.0)"></path><g><clipPath id="clip-151"><path d="M 215.1 314.7 L 295.3 314.7 L 295.3 389.0 L 215.1 389.0 Z M 215.1 314.7 "></path></clipPath><g clip-path="url(#clip-151)"><text xml:space="preserve" font-family="Menlo-Regular" font-size="24.0" fill="#373840" transform="matrix(1.00, 0.00, -0.00, -1.00, 241.0, 344.0)">4</text><text xml:space="preserve" font-family="Menlo-Regular" font-size="24.0" fill="#373840" transform="matrix(1.00, 0.00, -0.00, -1.00, 255.5, 344.0)">2</text></g></g><path d="M 1025.9 596.7 L 1079.9 596.7 L 1079.9 542.7 L 1025.9 542.7 Z M 1025.9 596.7 " fill="#FF5A75"></path><g><clipPath id="clip-152"><path d="M 1020.6 541.4 L 1085.2 541.4 L 1085.2 598.0 L 1020.6 598.0 Z M 1020.6 541.4 "></path></clipPath><g clip-path="url(#clip-152)"><text xml:space="preserve" font-family="Menlo-Regular" font-size="32.0" fill="#F8F8F0" transform="matrix(1.00, 0.00, -0.00, -1.00, 1034.0, 558.0)">4</text><text xml:space="preserve" font-family="Menlo-Regular" font-size="32.0" fill="#F8F8F0" transform="matrix(1.00, 0.00, -0.00, -1.00, 1053.3, 558.0)">2</text></g></g></g></svg>