<?xml version="1.0" encoding="UTF-8" standalone="no"?><svg xmlns="http://www.w3.org/2000/svg" xmlns:xlink="http://www.w3.org/1999/xlink" clip-rule="evenodd" stroke-miterlimit="4.00" viewBox="0 0 1024 768"><desc>SVG generated by Keynote</desc><defs></defs><g transform="matrix(1.00, 0.00, -0.00, -1.00, 0.0, 768.0)"><path d="M 0.0 768.0 L 1024.0 768.0 L 1024.0 0.0 L 0.0 0.0 Z M 0.0 768.0 " fill="#FAFAFA"></path><path d="M 217.1 596.0 L 293.3 596.0 L 293.3 519.7 L 217.1 519.7 Z M 217.1 596.0 " fill="#FAFAFA"></path><path d="M 0.0 0.0 L 76.2 0.0 L 76.2 76.2 L 0.0 76.2 Z M 0.0 0.0 " fill="none" stroke="#373840" stroke-width="2.00" transform="matrix(1.00, 0.00, 0.00, -1.00, 217.1, 596.0)"></path><g><clipPath id="clip-37"><path d="M 218.1 520.7 L 292.3 520.7 L 292.3 595.0 L 218.1 595.0 Z M 218.1 520.7 "></path></clipPath><g clip-path="url(#clip-37)"><text xml:space="preserve" font-family="Menlo-Regular" font-size="12.0" fill="#373840" transform="matrix(1.00, 0.00, -0.00, -1.00, 223.0, 554.0)">s</text><text xml:space="preserve" font-family="Menlo-Regular" font-size="12.0" fill="#373840" transform="matrix(1.00, 0.00, -0.00, -1.00, 230.2, 554.0)">u</text><text xml:space="preserve" font-family="Menlo-Regular" font-size="12.0" fill="#373840" transform="matrix(1.00, 0.00, -0.00, -1.00, 237.5, 554.0)">b</text><text xml:space="preserve" font-family="Menlo-Regular" font-size="12.0" fill="#373840" transform="matrix(1.00, 0.00, -0.00, -1.00, 244.7, 554.0)">s</text><text xml:space="preserve" font-family="Menlo-Regular" font-size="12.0" fill="#373840" transform="matrix(1.00, 0.00, -0.00, -1.00, 251.9, 554.0)">c</text><text xml:space="preserve" font-family="Menlo-Regular" font-size="12.0" fill="#373840" transform="matrix(1.00, 0.00, -0.00, -1.00, 259.1, 554.0)">r</text><text xml:space="preserve" font-family="Menlo-Regular" font-size="12.0" fill="#373840" transform="matrix(1.00, 0.00, -0.00, -1.00, 266.4, 554.0)">i</text><text xml:space="preserve" font-family="Menlo-Regular" font-size="12.0" fill="#373840" transform="matrix(1.00, 0.00, -0.00, -1.00, 273.6, 554.0)">b</text><text xml:space="preserve" font-family="Menlo-Regular" font-size="12.0" fill="#373840" transform="matrix(1.00, 0.00, -0.00, -1.00, 280.8, 554.0)">e</text></g></g><path d="M 217.1 493.0 L 293.3 493.0 L 293.3 416.7 L 217.1 416.7 Z M 217.1 493.0 " fill="#FAFAFA"></path><path d="M 0.0 0.0 L 76.2 0.0 L 76.2 76.2 L 0.0 76.2 Z M 0.0 0.0 " fill="none" stroke="#373840" stroke-width="2.00" transform="matrix(1.00, 0.00, 0.00, -1.00, 217.1, 493.0)"></path><g><clipPath id="clip-38"><path d="M 218.1 417.7 L 292.3 417.7 L 292.3 492.0 L 218.1 492.0 Z M 218.1 417.7 "></path></clipPath><g clip-path="url(#clip-38)"><text xml:space="preserve" font-family="Menlo-Regular" font-size="12.0" fill="#373840" transform="matrix(1.00, 0.00, -0.00, -1.00, 223.0, 451.0)">s</text><text xml:space="preserve" font-family="Menlo-Regular" font-size="12.0" fill="#373840" transform="matrix(1.00, 0.00, -0.00, -1.00, 230.2, 451.0)">u</text><text xml:space="preserve" font-family="Menlo-Regular" font-size="12.0" fill="#373840" transform="matrix(1.00, 0.00, -0.00, -1.00, 237.5, 451.0)">b</text><text xml:space="preserve" font-family="Menlo-Regular" font-size="12.0" fill="#373840" transform="matrix(1.00, 0.00, -0.00, -1.00, 244.7, 451.0)">s</text><text xml:space="preserve" font-family="Menlo-Regular" font-size="12.0" fill="#373840" transform="matrix(1.00, 0.00, -0.00, -1.00, 251.9, 451.0)">c</text><text xml:space="preserve" font-family="Menlo-Regular" font-size="12.0" fill="#373840" transform="matrix(1.00, 0.00, -0.00, -1.00, 259.1, 451.0)">r</text><text xml:space="preserve" font-family="Menlo-Regular" font-size="12.0" fill="#373840" transform="matrix(1.00, 0.00, -0.00, -1.00, 266.4, 451.0)">i</text><text xml:space="preserve" font-family="Menlo-Regular" font-size="12.0" fill="#373840" transform="matrix(1.00, 0.00, -0.00, -1.00, 273.6, 451.0)">b</text><text xml:space="preserve" font-family="Menlo-Regular" font-size="12.0" fill="#373840" transform="matrix(1.00, 0.00, -0.00, -1.00, 280.8, 451.0)">e</text></g></g><path d="M 217.1 390.0 L 293.3 390.0 L 293.3 313.7 L 217.1 313.7 Z M 217.1 390.0 " fill="#FAFAFA"></path><path d="M 0.0 0.0 L 76.2 0.0 L 76.2 76.2 L 0.0 76.2 Z M 0.0 0.0 " fill="none" stroke="#373840" stroke-width="2.00" transform="matrix(1.00, 0.00, 0.00, -1.00, 217.1, 390.0)"></path><g><clipPath id="clip-39"><path d="M 218.1 314.7 L 292.3 314.7 L 292.3 389.0 L 218.1 389.0 Z M 218.1 314.7 "></path></clipPath><g clip-path="url(#clip-39)"><text xml:space="preserve" font-family="Menlo-Regular" font-size="12.0" fill="#373840" transform="matrix(1.00, 0.00, -0.00, -1.00, 223.0, 348.0)">s</text><text xml:space="preserve" font-family="Menlo-Regular" font-size="12.0" fill="#373840" transform="matrix(1.00, 0.00, -0.00, -1.00, 230.2, 348.0)">u</text><text xml:space="preserve" font-family="Menlo-Regular" font-size="12.0" fill="#373840" transform="matrix(1.00, 0.00, -0.00, -1.00, 237.5, 348.0)">b</text><text xml:space="preserve" font-family="Menlo-Regular" font-size="12.0" fill="#373840" transform="matrix(1.00, 0.00, -0.00, -1.00, 244.7, 348.0)">s</text><text xml:space="preserve" font-family="Menlo-Regular" font-size="12.0" fill="#373840" transform="matrix(1.00, 0.00, -0.00, -1.00, 251.9, 348.0)">c</text><text xml:space="preserve" font-family="Menlo-Regular" font-size="12.0" fill="#373840" transform="matrix(1.00, 0.00, -0.00, -1.00, 259.1, 348.0)">r</text><text xml:space="preserve" font-family="Menlo-Regular" font-size="12.0" fill="#373840" transform="matrix(1.00, 0.00, -0.00, -1.00, 266.4, 348.0)">i</text><text xml:space="preserve" font-family="Menlo-Regular" font-size="12.0" fill="#373840" transform="matrix(1.00, 0.00, -0.00, -1.00, 273.6, 348.0)">b</text><text xml:space="preserve" font-family="Menlo-Regular" font-size="12.0" fill="#373840" transform="matrix(1.00, 0.00, -0.00, -1.00, 280.8, 348.0)">e</text></g></g><text xml:space="preserve" font-family="Menlo-Regular" font-size="50.0" fill="#373840" transform="matrix(1.00, 0.00, -0.00, -1.00, 346.0, 665.0)">O</text><text xml:space="preserve" font-family="Menlo-Regular" font-size="50.0" fill="#373840" transform="matrix(1.00, 0.00, -0.00, -1.00, 376.1, 665.0)">b</text><text xml:space="preserve" font-family="Menlo-Regular" font-size="50.0" fill="#373840" transform="matrix(1.00, 0.00, -0.00, -1.00, 406.2, 665.0)">s</text><text xml:space="preserve" font-family="Menlo-Regular" font-size="50.0" fill="#373840" transform="matrix(1.00, 0.00, -0.00, -1.00, 436.3, 665.0)">e</text><text xml:space="preserve" font-family="Menlo-Regular" font-size="50.0" fill="#373840" transform="matrix(1.00, 0.00, -0.00, -1.00, 466.4, 665.0)">r</text><text xml:space="preserve" font-family="Menlo-Regular" font-size="50.0" fill="#373840" transform="matrix(1.00, 0.00, -0.00, -1.00, 496.5, 665.0)">v</text><text xml:space="preserve" font-family="Menlo-Regular" font-size="50.0" fill="#373840" transform="matrix(1.00, 0.00, -0.00, -1.00, 526.6, 665.0)">a</text><text xml:space="preserve" font-family="Menlo-Regular" font-size="50.0" fill="#373840" transform="matrix(1.00, 0.00, -0.00, -1.00, 556.8, 665.0)">b</text><text xml:space="preserve" font-family="Menlo-Regular" font-size="50.0" fill="#373840" transform="matrix(1.00, 0.00, -0.00, -1.00, 586.9, 665.0)">l</text><text xml:space="preserve" font-family="Menlo-Regular" font-size="50.0" fill="#373840" transform="matrix(1.00, 0.00, -0.00, -1.00, 617.0, 665.0)">e</text><text xml:space="preserve" font-family="Menlo-Regular" font-size="50.0" fill="#373840" transform="matrix(1.00, 0.00, -0.00, -1.00, 647.1, 665.0)">s</text><path d="M 0.0 0.0 L 472.5 0.0 L 475.0 0.0 " fill="none" stroke="#373840" stroke-width="5.00" transform="matrix(1.00, 0.00, 0.00, -1.00, 365.0, 569.7)"></path><path d="M 837.5 559.5 L 857.9 569.7 L 837.5 579.9 Z M 837.5 559.5 " fill="#373840"></path><text xml:space="preserve" font-family="Menlo-Regular" font-size="30.0" fill="#373840" transform="matrix(1.00, 0.00, -0.00, -1.00, 771.0, 590.0)">t</text><text xml:space="preserve" font-family="Menlo-Regular" font-size="30.0" fill="#373840" transform="matrix(1.00, 0.00, -0.00, -1.00, 789.1, 590.0)">i</text><text xml:space="preserve" font-family="Menlo-Regular" font-size="30.0" fill="#373840" transform="matrix(1.00, 0.00, -0.00, -1.00, 807.1, 590.0)">m</text><text xml:space="preserve" font-family="Menlo-Regular" font-size="30.0" fill="#373840" transform="matrix(1.00, 0.00, -0.00, -1.00, 825.2, 590.0)">e</text><path d="M 58.8 515.0 L 156.9 515.0 L 156.9 416.8 L 58.8 416.8 Z M 58.8 515.0 " fill="#FE71EF"></path><g><clipPath id="clip-40"><path d="M 53.4 416.8 L 162.3 416.8 L 162.3 515.0 L 53.4 515.0 Z M 53.4 416.8 "></path></clipPath><g clip-path="url(#clip-40)"><text xml:space="preserve" font-family="Menlo-Regular" font-size="32.0" fill="#F8F8F0" transform="matrix(1.00, 0.00, -0.00, -1.00, 98.0, 455.0)">?</text></g></g><image xlink:href="6FD0E9F465E1E963D68CD7B1E55C2202.png" width="514.00" height="281.00" transform="matrix(1.00, 0.00, -0.00, -1.00, 353.0, 492.0)"></image></g></svg>