<?xml version="1.0" encoding="UTF-8" standalone="no"?><svg xmlns="http://www.w3.org/2000/svg" xmlns:xlink="http://www.w3.org/1999/xlink" clip-rule="evenodd" stroke-miterlimit="4.00" viewBox="0 0 81 81"><desc>SVG generated by Keynote</desc><defs></defs><g transform="matrix(1.00, 0.00, -0.00, -1.00, 0.0, 81.0)"><path d="M 2.1 79.0 L 78.3 79.0 L 78.3 2.7 L 2.1 2.7 Z M 2.1 79.0 " fill="#FAFAFA"></path><path d="M 0.0 0.0 L 76.2 0.0 L 76.2 76.2 L 0.0 76.2 Z M 0.0 0.0 " fill="none" stroke="#373840" stroke-width="2.00" transform="matrix(1.00, 0.00, 0.00, -1.00, 2.1, 79.0)"></path><g><clipPath id="clip-144"><path d="M 0.1 3.7 L 80.3 3.7 L 80.3 78.0 L 0.1 78.0 Z M 0.1 3.7 "></path></clipPath><g clip-path="url(#clip-144)"><text xml:space="preserve" font-family="Menlo-Regular" font-size="24.0" fill="#373840" transform="matrix(1.00, 0.00, -0.00, -1.00, 11.0, 33.0)">t</text><text xml:space="preserve" font-family="Menlo-Regular" font-size="24.0" fill="#373840" transform="matrix(1.00, 0.00, -0.00, -1.00, 25.5, 33.0)">h</text><text xml:space="preserve" font-family="Menlo-Regular" font-size="24.0" fill="#373840" transform="matrix(1.00, 0.00, -0.00, -1.00, 39.9, 33.0)">e</text><text xml:space="preserve" font-family="Menlo-Regular" font-size="24.0" fill="#373840" transform="matrix(1.00, 0.00, -0.00, -1.00, 54.4, 33.0)">n</text></g></g></g></svg>